<?xml version="1.0" encoding="UTF-8" standalone="no"?><svg xmlns="http://www.w3.org/2000/svg" xmlns:xlink="http://www.w3.org/1999/xlink" contentStyleType="text/css" height="605px" preserveAspectRatio="none" style="width:657px;height:605px;background:#FFFFFF;" version="1.1" viewBox="0 0 657 605" width="657px" zoomAndPan="magnify"><defs/><g><text fill="#000000" font-family="&quot;arial&quot;" font-size="14" font-weight="bold" lengthAdjust="spacing" textLength="30" x="306.75" y="24.5332">Leaf</text><!--class Exist--><g id="elem_Exist"><rect codeLine="5" fill="#F1F1F1" height="204.875" id="Exist" rx="2.5" ry="2.5" style="stroke:#181818;stroke-width:0.5;" width="206" x="255.5" y="206.6094"/><ellipse cx="339.75" cy="222.6094" fill="#ADD1B2" rx="11" ry="11" style="stroke:#181818;stroke-width:1.0;"/><path d="M342.4531,228.0469 Q341.5313,228.9688 339.2656,228.9688 Q338,228.9688 337.0781,228.0469 Q335.4219,226.3906 335.4219,222.8594 Q335.4219,218.75 337.2031,216.9531 Q338.1406,216.0313 339.3281,216.0313 Q341.5938,216.0313 342.3281,216.75 Q343.7188,218.1563 343.6563,220.5469 L341.1875,220.5469 Q341.125,218.4219 340.3906,217.6875 Q340,217.2813 339.3281,217.2813 Q339.3281,217.2813 339.2656,217.75 Q337.9375,219.0781 337.9375,222.7344 Q337.9375,225.9219 339.0781,227.0469 Q339.6094,227.5781 339.6094,227.5781 Q339.8594,227.5781 340.3906,227.0469 Q341.0625,226.3906 341.125,224 L343.7188,224 Q343.5156,226.9844 342.4531,228.0469 Z " fill="#000000"/><text fill="#000000" font-family="&quot;arial&quot;" font-size="14" lengthAdjust="spacing" textLength="29" x="360.25" y="228.3379">Exist</text><line style="stroke:#181818;stroke-width:0.5;" x1="256.5" x2="460.5" y1="238.6094" y2="238.6094"/><ellipse cx="266.5" cy="252.9141" fill="none" rx="3" ry="3" style="stroke:#038048;stroke-width:1.0;"/><text fill="#000000" font-family="&quot;arial&quot;" font-size="14" lengthAdjust="spacing" textLength="133" x="275.5" y="257.1426">container : Container</text><line style="stroke:#181818;stroke-width:1.0;stroke-dasharray:1.0,2.0;" x1="256.5" x2="460.5" y1="264.2188" y2="264.2188"/><ellipse cx="266.5" cy="278.5234" fill="none" rx="3" ry="3" style="stroke:#038048;stroke-width:1.0;"/><text fill="#000000" font-family="&quot;arial&quot;" font-size="14" lengthAdjust="spacing" textLength="146" x="275.5" y="282.752">[ _parts ] : Set &lt; Exist &gt;</text><ellipse cx="266.5" cy="296.1328" fill="#84BE84" rx="3" ry="3" style="stroke:#038048;stroke-width:1.0;"/><text fill="#000000" font-family="&quot;arial&quot;" font-size="14" lengthAdjust="spacing" textLength="157" x="275.5" y="300.3613">[ _addpart ]( part : Exist )</text><ellipse cx="266.5" cy="313.7422" fill="#84BE84" rx="3" ry="3" style="stroke:#038048;stroke-width:1.0;"/><text fill="#000000" font-family="&quot;arial&quot;" font-size="14" lengthAdjust="spacing" textLength="180" x="275.5" y="317.9707">[ _removepart ]( part : Exist )</text><line style="stroke:#181818;stroke-width:1.0;stroke-dasharray:1.0,2.0;" x1="256.5" x2="460.5" y1="325.0469" y2="325.0469"/><polygon fill="none" points="266.5,334.3516,270.5,338.3516,266.5,342.3516,262.5,338.3516" style="stroke:#B38D22;stroke-width:1.0;"/><text fill="#000000" font-family="&quot;arial&quot;" font-size="14" lengthAdjust="spacing" textLength="119" x="275.5" y="343.5801">[ refs ] : Set&lt; Ref &gt;</text><ellipse cx="266.5" cy="356.9609" fill="#84BE84" rx="3" ry="3" style="stroke:#038048;stroke-width:1.0;"/><text fill="#000000" font-family="&quot;arial&quot;" font-size="14" lengthAdjust="spacing" textLength="164" x="275.5" y="361.1895">[ addRef ]( ref : Exist.Ref )</text><ellipse cx="266.5" cy="374.5703" fill="#84BE84" rx="3" ry="3" style="stroke:#038048;stroke-width:1.0;"/><text fill="#000000" font-family="&quot;arial&quot;" font-size="14" lengthAdjust="spacing" textLength="120" x="275.5" y="378.7988">[ removeRef ]( ref )</text><line style="stroke:#181818;stroke-width:1.0;stroke-dasharray:1.0,2.0;" x1="256.5" x2="460.5" y1="385.875" y2="385.875"/><ellipse cx="266.5" cy="400.1797" fill="#84BE84" rx="3" ry="3" style="stroke:#038048;stroke-width:1.0;"/><text fill="#000000" font-family="&quot;arial&quot;" font-size="14" lengthAdjust="spacing" textLength="69" x="275.5" y="404.4082">terminate()</text></g><!--class ExistRef--><g id="elem_ExistRef"><rect codeLine="19" fill="#F1F1F1" height="100.8281" id="ExistRef" rx="2.5" ry="2.5" style="stroke:#181818;stroke-width:0.5;" width="110" x="303.5" y="45.6094"/><ellipse cx="328.85" cy="61.6094" fill="#ADD1B2" rx="11" ry="11" style="stroke:#181818;stroke-width:1.0;"/><path d="M331.5531,67.0469 Q330.6313,67.9688 328.3656,67.9688 Q327.1,67.9688 326.1781,67.0469 Q324.5219,65.3906 324.5219,61.8594 Q324.5219,57.75 326.3031,55.9531 Q327.2406,55.0313 328.4281,55.0313 Q330.6938,55.0313 331.4281,55.75 Q332.8188,57.1563 332.7563,59.5469 L330.2875,59.5469 Q330.225,57.4219 329.4906,56.6875 Q329.1,56.2813 328.4281,56.2813 Q328.4281,56.2813 328.3656,56.75 Q327.0375,58.0781 327.0375,61.7344 Q327.0375,64.9219 328.1781,66.0469 Q328.7094,66.5781 328.7094,66.5781 Q328.9594,66.5781 329.4906,66.0469 Q330.1625,65.3906 330.225,63 L332.8188,63 Q332.6156,65.9844 331.5531,67.0469 Z " fill="#000000"/><text fill="#000000" font-family="&quot;arial&quot;" font-size="14" lengthAdjust="spacing" textLength="55" x="345.15" y="67.3379">Exist.Ref</text><line style="stroke:#181818;stroke-width:0.5;" x1="304.5" x2="412.5" y1="77.6094" y2="77.6094"/><ellipse cx="314.5" cy="91.9141" fill="none" rx="3" ry="3" style="stroke:#038048;stroke-width:1.0;"/><text fill="#000000" font-family="&quot;arial&quot;" font-size="14" lengthAdjust="spacing" textLength="84" x="323.5" y="96.1426">source : Exist</text><ellipse cx="314.5" cy="109.5234" fill="none" rx="3" ry="3" style="stroke:#038048;stroke-width:1.0;"/><text fill="#000000" font-family="&quot;arial&quot;" font-size="14" lengthAdjust="spacing" textLength="65" x="323.5" y="113.752">acts : Acts</text><line style="stroke:#181818;stroke-width:1.0;stroke-dasharray:1.0,2.0;" x1="304.5" x2="412.5" y1="120.8281" y2="120.8281"/><ellipse cx="314.5" cy="135.1328" fill="#84BE84" rx="3" ry="3" style="stroke:#038048;stroke-width:1.0;"/><text fill="#000000" font-family="&quot;arial&quot;" font-size="14" lengthAdjust="spacing" textLength="69" x="323.5" y="139.3613">terminate()</text></g><!--class ExistRefActs--><g id="elem_ExistRefActs"><rect codeLine="26" fill="#F1F1F1" height="65.6094" id="ExistRefActs" rx="2.5" ry="2.5" style="stroke:#181818;stroke-width:0.5;" width="118" x="532.5" y="276.1094"/><ellipse cx="547.5" cy="292.1094" fill="#B4A7E5" rx="11" ry="11" style="stroke:#181818;stroke-width:1.0;"/><path d="M548.4844,297.0156 L549.2188,297.0156 L549.2188,298.4688 L545.2188,298.4688 L545.2188,297.0156 L545.9531,297.0156 L545.9531,286.9844 L545.2188,286.9844 L545.2188,285.5313 L549.2188,285.5313 L549.2188,286.9844 L548.4844,286.9844 L548.4844,297.0156 Z " fill="#000000"/><text fill="#000000" font-family="&quot;arial&quot;" font-size="14" font-style="italic" lengthAdjust="spacing" textLength="86" x="561.5" y="297.8379">Exist.Ref.Acts</text><line style="stroke:#181818;stroke-width:0.5;" x1="533.5" x2="649.5" y1="308.1094" y2="308.1094"/><line style="stroke:#181818;stroke-width:0.5;" x1="533.5" x2="649.5" y1="316.1094" y2="316.1094"/><text fill="#000000" font-family="&quot;arial&quot;" font-size="14" lengthAdjust="spacing" textLength="69" x="538.5" y="334.6426">terminate()</text></g><!--class Leaf--><g id="elem_Leaf"><rect codeLine="39" fill="#F1F1F1" height="126.4375" id="Leaf" rx="2.5" ry="2.5" style="stroke:#181818;stroke-width:0.5;" width="192" x="287.5" y="471.6094"/><ellipse cx="356.25" cy="487.6094" fill="#ADD1B2" rx="11" ry="11" style="stroke:#181818;stroke-width:1.0;"/><path d="M358.9531,493.0469 Q358.0313,493.9688 355.7656,493.9688 Q354.5,493.9688 353.5781,493.0469 Q351.9219,491.3906 351.9219,487.8594 Q351.9219,483.75 353.7031,481.9531 Q354.6406,481.0313 355.8281,481.0313 Q358.0938,481.0313 358.8281,481.75 Q360.2188,483.1563 360.1563,485.5469 L357.6875,485.5469 Q357.625,483.4219 356.8906,482.6875 Q356.5,482.2813 355.8281,482.2813 Q355.8281,482.2813 355.7656,482.75 Q354.4375,484.0781 354.4375,487.7344 Q354.4375,490.9219 355.5781,492.0469 Q356.1094,492.5781 356.1094,492.5781 Q356.3594,492.5781 356.8906,492.0469 Q357.5625,491.3906 357.625,489 L360.2188,489 Q360.0156,491.9844 358.9531,493.0469 Z " fill="#000000"/><text fill="#000000" font-family="&quot;arial&quot;" font-size="14" lengthAdjust="spacing" textLength="28" x="376.75" y="493.3379">Leaf</text><rect fill="#FFFFFF" height="15.7988" style="stroke:#181818;stroke-width:1.0;stroke-dasharray:2.0,2.0;" width="16" x="466.5" y="468.6094"/><text fill="#000000" font-family="arial" font-size="12" font-style="italic" lengthAdjust="spacing" textLength="8" x="470.5" y="481.0615">V</text><line style="stroke:#181818;stroke-width:0.5;" x1="288.5" x2="478.5" y1="503.6094" y2="503.6094"/><ellipse cx="298.5" cy="517.9141" fill="#84BE84" rx="3" ry="3" style="stroke:#038048;stroke-width:1.0;"/><text fill="#000000" font-family="&quot;arial&quot;" font-size="14" lengthAdjust="spacing" textLength="166" x="307.5" y="522.1426">[ _addref ]( ref : Leaf.Ref )</text><line style="stroke:#181818;stroke-width:1.0;stroke-dasharray:1.0,2.0;" x1="288.5" x2="478.5" y1="529.2188" y2="529.2188"/><polygon fill="none" points="298.5,538.5234,302.5,542.5234,298.5,546.5234,294.5,542.5234" style="stroke:#B38D22;stroke-width:1.0;"/><text fill="#000000" font-family="&quot;arial&quot;" font-size="14" lengthAdjust="spacing" textLength="55" x="307.5" y="547.752">value : V</text><ellipse cx="298.5" cy="561.1328" fill="#84BE84" rx="3" ry="3" style="stroke:#038048;stroke-width:1.0;"/><text fill="#000000" font-family="&quot;arial&quot;" font-size="14" lengthAdjust="spacing" textLength="92" x="307.5" y="565.3613">set( value : V )</text><line style="stroke:#181818;stroke-width:1.0;stroke-dasharray:1.0,2.0;" x1="288.5" x2="478.5" y1="572.4375" y2="572.4375"/><text fill="#000000" font-family="&quot;arial&quot;" font-size="14" lengthAdjust="spacing" textLength="69" x="293.5" y="590.9707">terminate()</text></g><!--class LeafRef--><g id="elem_LeafRef"><rect codeLine="48" fill="#F1F1F1" height="83.2188" id="LeafRef" rx="2.5" ry="2.5" style="stroke:#181818;stroke-width:0.5;" width="245" x="7" y="493.1094"/><ellipse cx="89.25" cy="509.1094" fill="#ADD1B2" rx="11" ry="11" style="stroke:#181818;stroke-width:1.0;"/><path d="M91.9531,514.5469 Q91.0313,515.4688 88.7656,515.4688 Q87.5,515.4688 86.5781,514.5469 Q84.9219,512.8906 84.9219,509.3594 Q84.9219,505.25 86.7031,503.4531 Q87.6406,502.5313 88.8281,502.5313 Q91.0938,502.5313 91.8281,503.25 Q93.2188,504.6563 93.1563,507.0469 L90.6875,507.0469 Q90.625,504.9219 89.8906,504.1875 Q89.5,503.7813 88.8281,503.7813 Q88.8281,503.7813 88.7656,504.25 Q87.4375,505.5781 87.4375,509.2344 Q87.4375,512.4219 88.5781,513.5469 Q89.1094,514.0781 89.1094,514.0781 Q89.3594,514.0781 89.8906,513.5469 Q90.5625,512.8906 90.625,510.5 L93.2188,510.5 Q93.0156,513.4844 91.9531,514.5469 Z " fill="#000000"/><text fill="#000000" font-family="&quot;arial&quot;" font-size="14" lengthAdjust="spacing" textLength="54" x="109.75" y="514.8379">Leaf.Ref</text><rect fill="#FFFFFF" height="15.7988" style="stroke:#181818;stroke-width:1.0;stroke-dasharray:2.0,2.0;" width="16" x="239" y="490.1094"/><text fill="#000000" font-family="arial" font-size="12" font-style="italic" lengthAdjust="spacing" textLength="8" x="243" y="502.5615">V</text><line style="stroke:#181818;stroke-width:0.5;" x1="8" x2="251" y1="525.1094" y2="525.1094"/><ellipse cx="18" cy="539.4141" fill="none" rx="3" ry="3" style="stroke:#038048;stroke-width:1.0;"/><text fill="#000000" font-family="&quot;arial&quot;" font-size="14" lengthAdjust="spacing" textLength="55" x="27" y="543.6426">value : V</text><line style="stroke:#181818;stroke-width:1.0;stroke-dasharray:1.0,2.0;" x1="8" x2="251" y1="550.7188" y2="550.7188"/><ellipse cx="18" cy="565.0234" fill="#84BE84" rx="3" ry="3" style="stroke:#038048;stroke-width:1.0;"/><text fill="#000000" font-family="&quot;arial&quot;" font-size="14" lengthAdjust="spacing" textLength="219" x="27" y="569.252">_new_value( newval :V, oldval : V )</text></g><!--link Exist to Exist--><g id="link_Exist_Exist"><path codeLine="30" d="M461.71,290.0894 C482.04,292.2594 496.5,298.5994 496.5,309.1094 C496.5,315.7594 490.71,320.7394 481.31,324.0494 " fill="none" id="Exist-to-Exist" style="stroke:#181818;stroke-width:1.0;"/><polygon fill="none" points="482.72,330.9094,461.71,328.1294,479.87,317.1994,482.72,330.9094" style="stroke:#181818;stroke-width:1.0;"/></g><!--reverse link Exist to Exist--><g id="link_Exist_Exist"><path codeLine="31" d="M474.69,269.5894 C506.87,271.4394 531.5,284.6194 531.5,309.1094 C531.5,336.8494 499.9,350.0694 461.51,348.7694 " fill="none" id="Exist-backto-Exist" style="stroke:#181818;stroke-width:1.0;"/><polygon fill="#181818" points="461.51,269.4494,467.4657,273.5151,473.5093,269.5812,467.5536,265.5155,461.51,269.4494" style="stroke:#181818;stroke-width:1.0;"/></g><!--link ExistRef to Exist--><g id="link_ExistRef_Exist"><path codeLine="33" d="M358.5,158.8494 C358.5,158.8494 358.5,194.3994 358.5,194.3994 " fill="none" id="ExistRef-Exist" style="stroke:#181818;stroke-width:1.0;"/><polygon fill="none" points="358.5,146.8494,354.5,152.8494,358.5,158.8494,362.5,152.8494,358.5,146.8494" style="stroke:#181818;stroke-width:1.0;"/><polygon fill="none" points="358.5,206.3994,362.5,200.3994,358.5,194.3994,354.5,200.3994,358.5,206.3994" style="stroke:#181818;stroke-width:1.0;"/></g><!--reverse link ExistRef to ExistRefActs--><g id="link_ExistRef_ExistRefActs"><path codeLine="34" d="M424.73,136.5294 C454.19,155.7094 488.28,180.2894 515.5,206.6094 C537.02,227.4194 557.13,254.7694 571.25,275.8294 " fill="none" id="ExistRef-backto-ExistRefActs" style="stroke:#181818;stroke-width:1.0;"/><polygon fill="#181818" points="413.69,129.4494,416.5828,136.0548,423.7927,135.9251,420.8999,129.3197,413.69,129.4494" style="stroke:#181818;stroke-width:1.0;"/></g><!--reverse link Exist to Leaf--><g id="link_Exist_Leaf"><path codeLine="54" d="M372.12,431.8594 C373.65,445.5794 375.16,459.0894 376.56,471.5694 " fill="none" id="Exist-backto-Leaf" style="stroke:#181818;stroke-width:1.0;"/><polygon fill="none" points="365.13,432.3794,369.87,411.7194,379.05,430.8194,365.13,432.3794" style="stroke:#181818;stroke-width:1.0;"/></g><!--reverse link ExistRef to LeafRef--><g id="link_ExistRef_LeafRef"><path codeLine="55" d="M288.07,149.7594 C269.61,166.2994 251.09,185.7394 237.5,206.6094 C177.31,299.0494 147.78,428.0994 135.98,492.9694 " fill="none" id="ExistRef-backto-LeafRef" style="stroke:#181818;stroke-width:1.0;"/><polygon fill="none" points="283.71,144.2694,303.46,136.5794,292.82,154.8994,283.71,144.2694" style="stroke:#181818;stroke-width:1.0;"/></g><!--link LeafRef to Leaf--><g id="link_LeafRef_Leaf"><path codeLine="56" d="M257.29,534.6094 C265.62,534.6094 273.95,534.6094 282.28,534.6094 " fill="none" id="LeafRef-Leaf" style="stroke:#181818;stroke-width:1.0;stroke-dasharray:7.0,7.0;"/><polygon fill="#181818" points="252.04,534.6094,261.04,538.6094,257.04,534.6094,261.04,530.6094,252.04,534.6094" style="stroke:#181818;stroke-width:1.0;"/><polygon fill="#181818" points="287.47,534.6094,278.47,530.6094,282.47,534.6094,278.47,538.6094,287.47,534.6094" style="stroke:#181818;stroke-width:1.0;"/></g><!--SRC=[TL7BIiH043plV4KJBrar-O0G0kBZ91uKzYBBqcGxC9Y7J2QhuFhlTiyZ6yKzJKzrTTLqpVYc-tSqsC4TDJYrzc7exHDs10aQZMsYbDMs9RZ_rADLgcvn7Fq5ljJg2chce-x9G06tiLQhF9VcA-nOt8wmvUuBMIZ3Q1MwkDyB0ROfkBC8_NNe6-g60vsZYCa5qmmriqK9pzH4VPQN6uyo9Kxc0WK3hx_WhEFJBPbEzsWfNQllk7So2oI08GOPTacCmsHgYYw2OCsh5t33nnbPtJFG88-Tf7FX_z8NG3p-3FiSicCL7FtzCilYPytl6x9XoH5efWLz5J_waR29-qfTmWOglw7_CBDCL1WnKFyT1smdIM7ZCY6Rdf18-Z_RAELMbmlN2_E5hezorzF7pg4fSCaL59jh6DgzAvtTd59vv7tTQdC20cNHI8KJohnos0y0]--></g></svg>