<?xml version="1.0" encoding="UTF-8" standalone="no"?><svg xmlns="http://www.w3.org/2000/svg" xmlns:xlink="http://www.w3.org/1999/xlink" contentStyleType="text/css" height="421px" preserveAspectRatio="none" style="width:819px;height:421px;background:#FFFFFF;" version="1.1" viewBox="0 0 819 421" width="819px" zoomAndPan="magnify"><defs/><g><text fill="#000000" font-family="&quot;arial&quot;" font-size="14" font-weight="bold" lengthAdjust="spacing" textLength="37" x="384" y="24.5332">Renn</text><!--cluster Leafr--><g id="cluster_Leafr"><path d="M611.5,294.6094 L648.5,294.6094 A3.75,3.75 0 0 1 651,297.1094 L658,318.2188 L809.5,318.2188 A2.5,2.5 0 0 1 812,320.7188 L812,392.1094 A2.5,2.5 0 0 1 809.5,394.6094 L611.5,394.6094 A2.5,2.5 0 0 1 609,392.1094 L609,297.1094 A2.5,2.5 0 0 1 611.5,294.6094 " fill="none" style="stroke:#000000;stroke-width:1.5;"/><line style="stroke:#000000;stroke-width:1.5;" x1="609" x2="658" y1="318.2188" y2="318.2188"/><text fill="#000000" font-family="&quot;arial&quot;" font-size="14" font-weight="bold" lengthAdjust="spacing" textLength="36" x="613" y="311.1426">Leafr</text></g><!--class Leafr.Number--><g id="elem_Leafr.Number"><rect fill="#F1F1F1" height="48" id="Leafr.Number" rx="2.5" ry="2.5" style="stroke:#181818;stroke-width:0.5;" width="81" x="714.5" y="330.6094"/><ellipse cx="729.5" cy="346.6094" fill="#ADD1B2" rx="11" ry="11" style="stroke:#181818;stroke-width:1.0;"/><path d="M732.2031,352.0469 Q731.2813,352.9688 729.0156,352.9688 Q727.75,352.9688 726.8281,352.0469 Q725.1719,350.3906 725.1719,346.8594 Q725.1719,342.75 726.9531,340.9531 Q727.8906,340.0313 729.0781,340.0313 Q731.3438,340.0313 732.0781,340.75 Q733.4688,342.1563 733.4063,344.5469 L730.9375,344.5469 Q730.875,342.4219 730.1406,341.6875 Q729.75,341.2813 729.0781,341.2813 Q729.0781,341.2813 729.0156,341.75 Q727.6875,343.0781 727.6875,346.7344 Q727.6875,349.9219 728.8281,351.0469 Q729.3594,351.5781 729.3594,351.5781 Q729.6094,351.5781 730.1406,351.0469 Q730.8125,350.3906 730.875,348 L733.4688,348 Q733.2656,350.9844 732.2031,352.0469 Z " fill="#000000"/><text fill="#000000" font-family="&quot;arial&quot;" font-size="14" lengthAdjust="spacing" textLength="49" x="743.5" y="352.3379">Number</text><line style="stroke:#181818;stroke-width:0.5;" x1="715.5" x2="794.5" y1="362.6094" y2="362.6094"/><line style="stroke:#181818;stroke-width:0.5;" x1="715.5" x2="794.5" y1="370.6094" y2="370.6094"/></g><!--class Leafr.Ref--><g id="elem_Leafr.Ref"><rect fill="#F1F1F1" height="48" id="Leafr.Ref" rx="2.5" ry="2.5" style="stroke:#181818;stroke-width:0.5;" width="54" x="625" y="330.6094"/><ellipse cx="640" cy="346.6094" fill="#ADD1B2" rx="11" ry="11" style="stroke:#181818;stroke-width:1.0;"/><path d="M642.7031,352.0469 Q641.7813,352.9688 639.5156,352.9688 Q638.25,352.9688 637.3281,352.0469 Q635.6719,350.3906 635.6719,346.8594 Q635.6719,342.75 637.4531,340.9531 Q638.3906,340.0313 639.5781,340.0313 Q641.8438,340.0313 642.5781,340.75 Q643.9688,342.1563 643.9063,344.5469 L641.4375,344.5469 Q641.375,342.4219 640.6406,341.6875 Q640.25,341.2813 639.5781,341.2813 Q639.5781,341.2813 639.5156,341.75 Q638.1875,343.0781 638.1875,346.7344 Q638.1875,349.9219 639.3281,351.0469 Q639.8594,351.5781 639.8594,351.5781 Q640.1094,351.5781 640.6406,351.0469 Q641.3125,350.3906 641.375,348 L643.9688,348 Q643.7656,350.9844 642.7031,352.0469 Z " fill="#000000"/><text fill="#000000" font-family="&quot;arial&quot;" font-size="14" lengthAdjust="spacing" textLength="22" x="654" y="352.3379">Ref</text><line style="stroke:#181818;stroke-width:0.5;" x1="626" x2="678" y1="362.6094" y2="362.6094"/><line style="stroke:#181818;stroke-width:0.5;" x1="626" x2="678" y1="370.6094" y2="370.6094"/></g><!--class Renn--><g id="elem_Renn"><rect codeLine="5" fill="#F1F1F1" height="187.2656" id="Renn" rx="2.5" ry="2.5" style="stroke:#181818;stroke-width:0.5;" width="204" x="425" y="48.6094"/><ellipse cx="481.25" cy="64.6094" fill="#ADD1B2" rx="11" ry="11" style="stroke:#181818;stroke-width:1.0;"/><path d="M483.9531,70.0469 Q483.0313,70.9688 480.7656,70.9688 Q479.5,70.9688 478.5781,70.0469 Q476.9219,68.3906 476.9219,64.8594 Q476.9219,60.75 478.7031,58.9531 Q479.6406,58.0313 480.8281,58.0313 Q483.0938,58.0313 483.8281,58.75 Q485.2188,60.1563 485.1563,62.5469 L482.6875,62.5469 Q482.625,60.4219 481.8906,59.6875 Q481.5,59.2813 480.8281,59.2813 Q480.8281,59.2813 480.7656,59.75 Q479.4375,61.0781 479.4375,64.7344 Q479.4375,67.9219 480.5781,69.0469 Q481.1094,69.5781 481.1094,69.5781 Q481.3594,69.5781 481.8906,69.0469 Q482.5625,68.3906 482.625,66 L485.2188,66 Q485.0156,68.9844 483.9531,70.0469 Z " fill="#000000"/><text fill="#000000" font-family="&quot;arial&quot;" font-size="14" lengthAdjust="spacing" textLength="34" x="501.75" y="70.3379">Renn</text><rect fill="#FFFFFF" height="15.7988" style="stroke:#181818;stroke-width:1.0;stroke-dasharray:2.0,2.0;" width="47" x="585" y="45.6094"/><text fill="#000000" font-family="arial" font-size="12" font-style="italic" lengthAdjust="spacing" textLength="39" x="589" y="58.0615">Source</text><line style="stroke:#181818;stroke-width:0.5;" x1="426" x2="628" y1="80.6094" y2="80.6094"/><ellipse cx="436" cy="94.9141" fill="none" rx="3" ry="3" style="stroke:#038048;stroke-width:1.0;"/><text fill="#000000" font-family="&quot;arial&quot;" font-size="14" lengthAdjust="spacing" textLength="41" x="445" y="99.1426">orders</text><line style="stroke:#181818;stroke-width:1.0;stroke-dasharray:1.0,2.0;" x1="426" x2="628" y1="106.2188" y2="106.2188"/><ellipse cx="436" cy="120.5234" fill="#84BE84" rx="3" ry="3" style="stroke:#038048;stroke-width:1.0;"/><text fill="#000000" font-family="&quot;arial&quot;" font-size="14" lengthAdjust="spacing" textLength="146" x="445" y="124.752">insert( sources, pos ? )</text><ellipse cx="436" cy="138.1328" fill="#84BE84" rx="3" ry="3" style="stroke:#038048;stroke-width:1.0;"/><text fill="#000000" font-family="&quot;arial&quot;" font-size="14" lengthAdjust="spacing" textLength="128" x="445" y="142.3613">delete( start, count )</text><ellipse cx="436" cy="155.7422" fill="#84BE84" rx="3" ry="3" style="stroke:#038048;stroke-width:1.0;"/><text fill="#000000" font-family="&quot;arial&quot;" font-size="14" lengthAdjust="spacing" textLength="178" x="445" y="159.9707">move_to( start, count, dest )</text><line style="stroke:#181818;stroke-width:1.0;stroke-dasharray:1.0,2.0;" x1="426" x2="628" y1="167.0469" y2="167.0469"/><polygon fill="#FFFF44" points="436,176.3516,440,180.3516,436,184.3516,432,180.3516" style="stroke:#B38D22;stroke-width:1.0;"/><text fill="#000000" font-family="&quot;arial&quot;" font-size="14" lengthAdjust="spacing" textLength="119" x="445" y="185.5801">add( start, orders )</text><polygon fill="#FFFF44" points="436,193.9609,440,197.9609,436,201.9609,432,197.9609" style="stroke:#B38D22;stroke-width:1.0;"/><text fill="#000000" font-family="&quot;arial&quot;" font-size="14" lengthAdjust="spacing" textLength="136" x="445" y="203.1895">remove( start, count )</text><line style="stroke:#181818;stroke-width:1.0;stroke-dasharray:1.0,2.0;" x1="426" x2="628" y1="210.2656" y2="210.2656"/><ellipse cx="436" cy="224.5703" fill="#84BE84" rx="3" ry="3" style="stroke:#038048;stroke-width:1.0;"/><text fill="#000000" font-family="&quot;arial&quot;" font-size="14" lengthAdjust="spacing" textLength="143" x="445" y="228.7988">move( start, count, to )</text></g><!--class Order--><g id="elem_Order"><rect codeLine="18" fill="#F1F1F1" height="118.4375" id="Order" rx="2.5" ry="2.5" style="stroke:#181818;stroke-width:0.5;" width="126" x="464" y="295.6094"/><ellipse cx="482.6" cy="311.6094" fill="#ADD1B2" rx="11" ry="11" style="stroke:#181818;stroke-width:1.0;"/><path d="M485.3031,317.0469 Q484.3813,317.9688 482.1156,317.9688 Q480.85,317.9688 479.9281,317.0469 Q478.2719,315.3906 478.2719,311.8594 Q478.2719,307.75 480.0531,305.9531 Q480.9906,305.0313 482.1781,305.0313 Q484.4438,305.0313 485.1781,305.75 Q486.5688,307.1563 486.5063,309.5469 L484.0375,309.5469 Q483.975,307.4219 483.2406,306.6875 Q482.85,306.2813 482.1781,306.2813 Q482.1781,306.2813 482.1156,306.75 Q480.7875,308.0781 480.7875,311.7344 Q480.7875,314.9219 481.9281,316.0469 Q482.4594,316.5781 482.4594,316.5781 Q482.7094,316.5781 483.2406,316.0469 Q483.9125,315.3906 483.975,313 L486.5688,313 Q486.3656,315.9844 485.3031,317.0469 Z " fill="#000000"/><text fill="#000000" font-family="&quot;arial&quot;" font-size="14" lengthAdjust="spacing" textLength="37" x="497.4" y="317.3379">Order</text><rect fill="#FFFFFF" height="15.7988" style="stroke:#181818;stroke-width:1.0;stroke-dasharray:2.0,2.0;" width="47" x="546" y="292.6094"/><text fill="#000000" font-family="arial" font-size="12" font-style="italic" lengthAdjust="spacing" textLength="39" x="550" y="305.0615">Source</text><line style="stroke:#181818;stroke-width:0.5;" x1="465" x2="589" y1="327.6094" y2="327.6094"/><polygon fill="none" points="475,336.9141,479,340.9141,475,344.9141,471,340.9141" style="stroke:#B38D22;stroke-width:1.0;"/><text fill="#000000" font-family="&quot;arial&quot;" font-size="14" lengthAdjust="spacing" textLength="29" x="484" y="346.1426">renn</text><ellipse cx="475" cy="359.5234" fill="none" rx="3" ry="3" style="stroke:#038048;stroke-width:1.0;"/><text fill="#000000" font-family="&quot;arial&quot;" font-size="14" lengthAdjust="spacing" textLength="34" x="484" y="363.752">value</text><ellipse cx="475" cy="377.1328" fill="none" rx="3" ry="3" style="stroke:#038048;stroke-width:1.0;"/><text fill="#000000" font-family="&quot;arial&quot;" font-size="14" lengthAdjust="spacing" textLength="100" x="484" y="381.3613">source : Source</text><line style="stroke:#181818;stroke-width:0.5;" x1="465" x2="589" y1="388.4375" y2="388.4375"/><ellipse cx="475" cy="402.7422" fill="#84BE84" rx="3" ry="3" style="stroke:#038048;stroke-width:1.0;"/><text fill="#000000" font-family="&quot;arial&quot;" font-size="14" lengthAdjust="spacing" textLength="49" x="484" y="406.9707">delete()</text></g><!--class Ref--><g id="elem_Ref"><rect codeLine="25" fill="#F1F1F1" height="136.0469" id="Ref" rx="2.5" ry="2.5" style="stroke:#181818;stroke-width:0.5;" width="176" x="214" y="74.1094"/><ellipse cx="286.75" cy="90.1094" fill="#ADD1B2" rx="11" ry="11" style="stroke:#181818;stroke-width:1.0;"/><path d="M289.4531,95.5469 Q288.5313,96.4688 286.2656,96.4688 Q285,96.4688 284.0781,95.5469 Q282.4219,93.8906 282.4219,90.3594 Q282.4219,86.25 284.2031,84.4531 Q285.1406,83.5313 286.3281,83.5313 Q288.5938,83.5313 289.3281,84.25 Q290.7188,85.6563 290.6563,88.0469 L288.1875,88.0469 Q288.125,85.9219 287.3906,85.1875 Q287,84.7813 286.3281,84.7813 Q286.3281,84.7813 286.2656,85.25 Q284.9375,86.5781 284.9375,90.2344 Q284.9375,93.4219 286.0781,94.5469 Q286.6094,95.0781 286.6094,95.0781 Q286.8594,95.0781 287.3906,94.5469 Q288.0625,93.8906 288.125,91.5 L290.7188,91.5 Q290.5156,94.4844 289.4531,95.5469 Z " fill="#000000"/><text fill="#000000" font-family="&quot;arial&quot;" font-size="14" lengthAdjust="spacing" textLength="22" x="307.25" y="95.8379">Ref</text><line style="stroke:#181818;stroke-width:0.5;" x1="215" x2="389" y1="106.1094" y2="106.1094"/><polygon fill="none" points="225,115.4141,229,119.4141,225,123.4141,221,119.4141" style="stroke:#B38D22;stroke-width:1.0;"/><text fill="#000000" font-family="&quot;arial&quot;" font-size="14" lengthAdjust="spacing" textLength="89" x="234" y="124.6426">source : Renn</text><polygon fill="none" points="225,133.0234,229,137.0234,225,141.0234,221,137.0234" style="stroke:#B38D22;stroke-width:1.0;"/><text fill="#000000" font-family="&quot;arial&quot;" font-size="14" lengthAdjust="spacing" textLength="83" x="234" y="142.252">notes : Notes</text><line style="stroke:#181818;stroke-width:0.5;" x1="215" x2="389" y1="149.3281" y2="149.3281"/><ellipse cx="225" cy="163.6328" fill="#84BE84" rx="3" ry="3" style="stroke:#038048;stroke-width:1.0;"/><text fill="#000000" font-family="&quot;arial&quot;" font-size="14" lengthAdjust="spacing" textLength="150" x="234" y="167.8613"># _insert( start, orders )</text><ellipse cx="225" cy="181.2422" fill="#84BE84" rx="3" ry="3" style="stroke:#038048;stroke-width:1.0;"/><text fill="#000000" font-family="&quot;arial&quot;" font-size="14" lengthAdjust="spacing" textLength="148" x="234" y="185.4707"># _delete( start, count )</text><ellipse cx="225" cy="198.8516" fill="#84BE84" rx="3" ry="3" style="stroke:#038048;stroke-width:1.0;"/><text fill="#000000" font-family="&quot;arial&quot;" font-size="14" lengthAdjust="spacing" textLength="64" x="234" y="203.0801"># _move()</text></g><!--class Notes--><g id="elem_Notes"><rect codeLine="33" fill="#F1F1F1" height="100.8281" id="Notes" rx="2.5" ry="2.5" style="stroke:#181818;stroke-width:0.5;" width="172" x="7" y="91.6094"/><ellipse cx="70.75" cy="107.6094" fill="#ADD1B2" rx="11" ry="11" style="stroke:#181818;stroke-width:1.0;"/><path d="M73.4531,113.0469 Q72.5313,113.9688 70.2656,113.9688 Q69,113.9688 68.0781,113.0469 Q66.4219,111.3906 66.4219,107.8594 Q66.4219,103.75 68.2031,101.9531 Q69.1406,101.0313 70.3281,101.0313 Q72.5938,101.0313 73.3281,101.75 Q74.7188,103.1563 74.6563,105.5469 L72.1875,105.5469 Q72.125,103.4219 71.3906,102.6875 Q71,102.2813 70.3281,102.2813 Q70.3281,102.2813 70.2656,102.75 Q68.9375,104.0781 68.9375,107.7344 Q68.9375,110.9219 70.0781,112.0469 Q70.6094,112.5781 70.6094,112.5781 Q70.8594,112.5781 71.3906,112.0469 Q72.0625,111.3906 72.125,109 L74.7188,109 Q74.5156,111.9844 73.4531,113.0469 Z " fill="#000000"/><text fill="#000000" font-family="&quot;arial&quot;" font-size="14" lengthAdjust="spacing" textLength="36" x="91.25" y="113.3379">Notes</text><line style="stroke:#181818;stroke-width:0.5;" x1="8" x2="178" y1="123.6094" y2="123.6094"/><line style="stroke:#181818;stroke-width:0.5;" x1="8" x2="178" y1="131.6094" y2="131.6094"/><ellipse cx="18" cy="145.9141" fill="#84BE84" rx="3" ry="3" style="stroke:#038048;stroke-width:1.0;"/><text fill="#000000" font-family="&quot;arial&quot;" font-size="14" lengthAdjust="spacing" textLength="134" x="27" y="150.1426">insert ( start, orders )</text><ellipse cx="18" cy="163.5234" fill="#84BE84" rx="3" ry="3" style="stroke:#038048;stroke-width:1.0;"/><text fill="#000000" font-family="&quot;arial&quot;" font-size="14" lengthAdjust="spacing" textLength="132" x="27" y="167.752">delete ( start, count )</text><ellipse cx="18" cy="181.1328" fill="#84BE84" rx="3" ry="3" style="stroke:#038048;stroke-width:1.0;"/><text fill="#000000" font-family="&quot;arial&quot;" font-size="14" lengthAdjust="spacing" textLength="146" x="27" y="185.3613">remove ( start, orders )</text></g><!--link Renn to Order--><g id="link_Renn_Order"><path codeLine="39" d="M527,247.7394 C527,247.7394 527,283.4594 527,283.4594 " fill="none" id="Renn-Order" style="stroke:#181818;stroke-width:1.0;"/><polygon fill="#181818" points="527,235.7394,523,241.7394,527,247.7394,531,241.7394,527,235.7394" style="stroke:#181818;stroke-width:1.0;"/><polygon fill="none" points="527,295.4594,531,289.4594,527,283.4594,523,289.4594,527,295.4594" style="stroke:#181818;stroke-width:1.0;"/></g><!--link Ref to Renn--><g id="link_Ref_Renn"><path codeLine="40" d="M402.33,142.1094 C402.33,142.1094 412.76,142.1094 412.76,142.1094 " fill="none" id="Ref-Renn" style="stroke:#181818;stroke-width:1.0;"/><polygon fill="none" points="390.33,142.1094,396.33,146.1094,402.33,142.1094,396.33,138.1094,390.33,142.1094" style="stroke:#181818;stroke-width:1.0;"/><polygon fill="none" points="424.76,142.1094,418.76,138.1094,412.76,142.1094,418.76,146.1094,424.76,142.1094" style="stroke:#181818;stroke-width:1.0;"/></g><!--link Order to Leafr.Number--><g id="link_Order_Leafr.Number"><path codeLine="42" d="M575.28,295.6094 C590.1,281.6294 607.55,268.6194 626.5,261.1094 C648.4,252.4294 658.25,250.9494 679.5,261.1094 C702.16,271.9394 720.2,293.2494 732.95,312.7894 " fill="none" id="Order-to-Leafr.Number" style="stroke:#181818;stroke-width:1.0;"/><polygon fill="none" points="739.13,309.4794,743.36,330.2394,727.1,316.6494,739.13,309.4794" style="stroke:#181818;stroke-width:1.0;"/></g><!--link Leafr.Ref to Order--><g id="link_Leafr.Ref_Order"><path codeLine="43" d="M612.6,354.6094 C612.6,354.6094 602.48,354.6094 602.48,354.6094 " fill="none" id="Leafr.Ref-Order" style="stroke:#181818;stroke-width:1.0;"/><polygon fill="none" points="624.6,354.6094,618.6,350.6094,612.6,354.6094,618.6,358.6094,624.6,354.6094" style="stroke:#181818;stroke-width:1.0;"/><polygon fill="none" points="590.48,354.6094,596.48,358.6094,602.48,354.6094,596.48,350.6094,590.48,354.6094" style="stroke:#181818;stroke-width:1.0;"/></g><!--link Notes to Ref--><g id="link_Notes_Ref"><path codeLine="45" d="M179.13,142.1094 C186.24,142.1094 193.35,142.1094 200.46,142.1094 " fill="none" id="Notes-to-Ref" style="stroke:#181818;stroke-width:1.0;"/><polygon fill="#181818" points="213.69,142.1094,207.69,138.1094,201.69,142.1094,207.69,146.1094,213.69,142.1094" style="stroke:#181818;stroke-width:1.0;"/></g><!--SRC=[TL9BJiCm45tNfnWr6oX93e1GsI1MA4Zb09L99bBKnAxiIJV0tPdnj55emoeUlu_zdXCFdJlQO0TumTQEFRrwHvKT4DOsTBPV6qCTzGWxTCwOkhSnfZKymOSVGusmXI-pUW0V6WpHhCfIfiv537G7CN5Y3aSVuHdk1MkmHqB6o0RAeVQZ8qK6Vy8z-RzGpeAO26ATWMsQYQ272fP1G97Vskg5Rh4So3F-SqdrBbvNiSILSxF-PFiHPQ69uF7CcmMQUUsmLVd4JltnXlE4aUTAlYpEO3zrTPr9m7_BOYnbcfsQFFKrr1EMJC_NXQK7q0uNP7n6UlLDKNXjoaX6pvF-6TfUyRs5DxHjAAjn-6II3XUg2etUizX8JRy0]--></g></svg>