<?xml version="1.0" encoding="UTF-8" standalone="no"?><svg xmlns="http://www.w3.org/2000/svg" xmlns:xlink="http://www.w3.org/1999/xlink" contentStyleType="text/css" height="408px" preserveAspectRatio="none" style="width:561px;height:408px;background:#FFFFFF;" version="1.1" viewBox="0 0 561 408" width="561px" zoomAndPan="magnify"><defs/><g><text fill="#000000" font-family="&quot;arial&quot;" font-size="14" font-weight="bold" lengthAdjust="spacing" textLength="34" x="256.75" y="24.5332">Exist</text><!--class Exist--><g id="elem_Exist"><rect codeLine="5" fill="#F1F1F1" height="230.4844" id="Exist" rx="2.5" ry="2.5" style="stroke:#181818;stroke-width:0.5;" width="206" x="278.5" y="45.6094"/><ellipse cx="362.75" cy="61.6094" fill="#ADD1B2" rx="11" ry="11" style="stroke:#181818;stroke-width:1.0;"/><path d="M365.4531,67.0469 Q364.5313,67.9688 362.2656,67.9688 Q361,67.9688 360.0781,67.0469 Q358.4219,65.3906 358.4219,61.8594 Q358.4219,57.75 360.2031,55.9531 Q361.1406,55.0313 362.3281,55.0313 Q364.5938,55.0313 365.3281,55.75 Q366.7188,57.1563 366.6563,59.5469 L364.1875,59.5469 Q364.125,57.4219 363.3906,56.6875 Q363,56.2813 362.3281,56.2813 Q362.3281,56.2813 362.2656,56.75 Q360.9375,58.0781 360.9375,61.7344 Q360.9375,64.9219 362.0781,66.0469 Q362.6094,66.5781 362.6094,66.5781 Q362.8594,66.5781 363.3906,66.0469 Q364.0625,65.3906 364.125,63 L366.7188,63 Q366.5156,65.9844 365.4531,67.0469 Z " fill="#000000"/><text fill="#000000" font-family="&quot;arial&quot;" font-size="14" lengthAdjust="spacing" textLength="29" x="383.25" y="67.3379">Exist</text><line style="stroke:#181818;stroke-width:0.5;" x1="279.5" x2="483.5" y1="77.6094" y2="77.6094"/><ellipse cx="289.5" cy="91.9141" fill="none" rx="3" ry="3" style="stroke:#038048;stroke-width:1.0;"/><text fill="#000000" font-family="&quot;arial&quot;" font-size="14" lengthAdjust="spacing" textLength="128" x="298.5" y="96.1426">composition ? : Exist</text><line style="stroke:#181818;stroke-width:1.0;stroke-dasharray:1.0,2.0;" x1="279.5" x2="483.5" y1="103.2188" y2="103.2188"/><ellipse cx="289.5" cy="117.5234" fill="none" rx="3" ry="3" style="stroke:#038048;stroke-width:1.0;"/><text fill="#000000" font-family="&quot;arial&quot;" font-size="14" lengthAdjust="spacing" textLength="146" x="298.5" y="121.752">[ _parts ] : Set &lt; Exist &gt;</text><ellipse cx="289.5" cy="135.1328" fill="#84BE84" rx="3" ry="3" style="stroke:#038048;stroke-width:1.0;"/><text fill="#000000" font-family="&quot;arial&quot;" font-size="14" lengthAdjust="spacing" textLength="157" x="298.5" y="139.3613">[ _addpart ]( part : Exist )</text><ellipse cx="289.5" cy="152.7422" fill="#84BE84" rx="3" ry="3" style="stroke:#038048;stroke-width:1.0;"/><text fill="#000000" font-family="&quot;arial&quot;" font-size="14" lengthAdjust="spacing" textLength="180" x="298.5" y="156.9707">[ _removepart ]( part : Exist )</text><line style="stroke:#181818;stroke-width:1.0;stroke-dasharray:1.0,2.0;" x1="279.5" x2="483.5" y1="164.0469" y2="164.0469"/><polygon fill="none" points="289.5,173.3516,293.5,177.3516,289.5,181.3516,285.5,177.3516" style="stroke:#B38D22;stroke-width:1.0;"/><text fill="#000000" font-family="&quot;arial&quot;" font-size="14" lengthAdjust="spacing" textLength="119" x="298.5" y="182.5801">[ refs ] : Set&lt; Ref &gt;</text><ellipse cx="289.5" cy="195.9609" fill="#84BE84" rx="3" ry="3" style="stroke:#038048;stroke-width:1.0;"/><text fill="#000000" font-family="&quot;arial&quot;" font-size="14" lengthAdjust="spacing" textLength="164" x="298.5" y="200.1895">[ addRef ]( ref : Exist.Ref )</text><ellipse cx="289.5" cy="213.5703" fill="#84BE84" rx="3" ry="3" style="stroke:#038048;stroke-width:1.0;"/><text fill="#000000" font-family="&quot;arial&quot;" font-size="14" lengthAdjust="spacing" textLength="120" x="298.5" y="217.7988">[ removeRef ]( ref )</text><line style="stroke:#181818;stroke-width:1.0;stroke-dasharray:1.0,2.0;" x1="279.5" x2="483.5" y1="224.875" y2="224.875"/><ellipse cx="289.5" cy="239.1797" fill="none" rx="3" ry="3" style="stroke:#038048;stroke-width:1.0;"/><text fill="#000000" font-family="&quot;arial&quot;" font-size="14" lengthAdjust="spacing" textLength="88" x="298.5" y="243.4082">link : Exist.Ref</text><line style="stroke:#181818;stroke-width:1.0;stroke-dasharray:1.0,2.0;" x1="279.5" x2="483.5" y1="250.4844" y2="250.4844"/><ellipse cx="289.5" cy="264.7891" fill="#84BE84" rx="3" ry="3" style="stroke:#038048;stroke-width:1.0;"/><text fill="#000000" font-family="&quot;arial&quot;" font-size="14" lengthAdjust="spacing" textLength="69" x="298.5" y="269.0176">terminate()</text></g><!--class ExistRef--><g id="elem_ExistRef"><rect codeLine="21" fill="#F1F1F1" height="118.4375" id="ExistRef" rx="2.5" ry="2.5" style="stroke:#181818;stroke-width:0.5;" width="110" x="133.5" y="101.6094"/><ellipse cx="158.85" cy="117.6094" fill="#ADD1B2" rx="11" ry="11" style="stroke:#181818;stroke-width:1.0;"/><path d="M161.5531,123.0469 Q160.6313,123.9688 158.3656,123.9688 Q157.1,123.9688 156.1781,123.0469 Q154.5219,121.3906 154.5219,117.8594 Q154.5219,113.75 156.3031,111.9531 Q157.2406,111.0313 158.4281,111.0313 Q160.6938,111.0313 161.4281,111.75 Q162.8188,113.1563 162.7563,115.5469 L160.2875,115.5469 Q160.225,113.4219 159.4906,112.6875 Q159.1,112.2813 158.4281,112.2813 Q158.4281,112.2813 158.3656,112.75 Q157.0375,114.0781 157.0375,117.7344 Q157.0375,120.9219 158.1781,122.0469 Q158.7094,122.5781 158.7094,122.5781 Q158.9594,122.5781 159.4906,122.0469 Q160.1625,121.3906 160.225,119 L162.8188,119 Q162.6156,121.9844 161.5531,123.0469 Z " fill="#000000"/><text fill="#000000" font-family="&quot;arial&quot;" font-size="14" lengthAdjust="spacing" textLength="55" x="175.15" y="123.3379">Exist.Ref</text><line style="stroke:#181818;stroke-width:0.5;" x1="134.5" x2="242.5" y1="133.6094" y2="133.6094"/><ellipse cx="144.5" cy="147.9141" fill="none" rx="3" ry="3" style="stroke:#038048;stroke-width:1.0;"/><text fill="#000000" font-family="&quot;arial&quot;" font-size="14" lengthAdjust="spacing" textLength="84" x="153.5" y="152.1426">source : Exist</text><ellipse cx="144.5" cy="165.5234" fill="none" rx="3" ry="3" style="stroke:#038048;stroke-width:1.0;"/><text fill="#000000" font-family="&quot;arial&quot;" font-size="14" lengthAdjust="spacing" textLength="65" x="153.5" y="169.752">acts : Acts</text><ellipse cx="144.5" cy="183.1328" fill="#84BE84" rx="3" ry="3" style="stroke:#038048;stroke-width:1.0;"/><text fill="#000000" font-family="&quot;arial&quot;" font-size="14" lengthAdjust="spacing" textLength="77" x="153.5" y="187.3613">_terminate()</text><line style="stroke:#181818;stroke-width:1.0;stroke-dasharray:1.0,2.0;" x1="134.5" x2="242.5" y1="194.4375" y2="194.4375"/><ellipse cx="144.5" cy="208.7422" fill="#84BE84" rx="3" ry="3" style="stroke:#038048;stroke-width:1.0;"/><text fill="#000000" font-family="&quot;arial&quot;" font-size="14" lengthAdjust="spacing" textLength="69" x="153.5" y="212.9707">terminate()</text></g><!--class ExistRefActs--><g id="elem_ExistRefActs"><rect codeLine="29" fill="#F1F1F1" height="65.6094" id="ExistRefActs" rx="2.5" ry="2.5" style="stroke:#181818;stroke-width:0.5;" width="118" x="129.5" y="335.6094"/><ellipse cx="144.5" cy="351.6094" fill="#B4A7E5" rx="11" ry="11" style="stroke:#181818;stroke-width:1.0;"/><path d="M145.4844,356.5156 L146.2188,356.5156 L146.2188,357.9688 L142.2188,357.9688 L142.2188,356.5156 L142.9531,356.5156 L142.9531,346.4844 L142.2188,346.4844 L142.2188,345.0313 L146.2188,345.0313 L146.2188,346.4844 L145.4844,346.4844 L145.4844,356.5156 Z " fill="#000000"/><text fill="#000000" font-family="&quot;arial&quot;" font-size="14" font-style="italic" lengthAdjust="spacing" textLength="86" x="158.5" y="357.3379">Exist.Ref.Acts</text><line style="stroke:#181818;stroke-width:0.5;" x1="130.5" x2="246.5" y1="367.6094" y2="367.6094"/><line style="stroke:#181818;stroke-width:0.5;" x1="130.5" x2="246.5" y1="375.6094" y2="375.6094"/><text fill="#000000" font-family="&quot;arial&quot;" font-size="14" lengthAdjust="spacing" textLength="69" x="135.5" y="394.1426">terminate()</text></g><!--class ExistLink--><g id="elem_ExistLink"><rect codeLine="33" fill="#F1F1F1" height="48" id="ExistLink" rx="2.5" ry="2.5" style="stroke:#181818;stroke-width:0.5;" width="91" x="7" y="136.6094"/><ellipse cx="22" cy="152.6094" fill="#ADD1B2" rx="11" ry="11" style="stroke:#181818;stroke-width:1.0;"/><path d="M24.7031,158.0469 Q23.7813,158.9688 21.5156,158.9688 Q20.25,158.9688 19.3281,158.0469 Q17.6719,156.3906 17.6719,152.8594 Q17.6719,148.75 19.4531,146.9531 Q20.3906,146.0313 21.5781,146.0313 Q23.8438,146.0313 24.5781,146.75 Q25.9688,148.1563 25.9063,150.5469 L23.4375,150.5469 Q23.375,148.4219 22.6406,147.6875 Q22.25,147.2813 21.5781,147.2813 Q21.5781,147.2813 21.5156,147.75 Q20.1875,149.0781 20.1875,152.7344 Q20.1875,155.9219 21.3281,157.0469 Q21.8594,157.5781 21.8594,157.5781 Q22.1094,157.5781 22.6406,157.0469 Q23.3125,156.3906 23.375,154 L25.9688,154 Q25.7656,156.9844 24.7031,158.0469 Z " fill="#000000"/><text fill="#000000" font-family="&quot;arial&quot;" font-size="14" lengthAdjust="spacing" textLength="59" x="36" y="158.3379">Exist.Link</text><line style="stroke:#181818;stroke-width:0.5;" x1="8" x2="97" y1="168.6094" y2="168.6094"/><line style="stroke:#181818;stroke-width:0.5;" x1="8" x2="97" y1="176.6094" y2="176.6094"/></g><!--link Exist to Exist--><g id="link_Exist_Exist"><path codeLine="37" d="M484.71,141.9494 C505.04,144.0794 519.5,150.2994 519.5,160.6094 C519.5,167.0494 513.85,171.8994 504.65,175.1494 " fill="none" id="Exist-to-Exist" style="stroke:#181818;stroke-width:1.0;"/><polygon fill="none" points="505.72,182.0794,484.71,179.2694,502.88,168.3694,505.72,182.0794" style="stroke:#181818;stroke-width:1.0;"/></g><!--reverse link Exist to Exist--><g id="link_Exist_Exist"><path codeLine="38" d="M497.69,121.8294 C529.87,123.6594 554.5,136.5794 554.5,160.6094 C554.5,187.8294 522.9,200.7994 484.51,199.5194 " fill="none" id="Exist-backto-Exist" style="stroke:#181818;stroke-width:1.0;"/><polygon fill="#181818" points="484.51,121.6994,490.4657,125.7651,496.5093,121.8312,490.5536,117.7655,484.51,121.6994" style="stroke:#181818;stroke-width:1.0;"/></g><!--link ExistRef to Exist--><g id="link_ExistRef_Exist"><path codeLine="40" d="M255.54,160.6094 C255.54,160.6094 266.3,160.6094 266.3,160.6094 " fill="none" id="ExistRef-Exist" style="stroke:#181818;stroke-width:1.0;"/><polygon fill="none" points="243.54,160.6094,249.54,164.6094,255.54,160.6094,249.54,156.6094,243.54,160.6094" style="stroke:#181818;stroke-width:1.0;"/><polygon fill="none" points="278.3,160.6094,272.3,156.6094,266.3,160.6094,272.3,164.6094,278.3,160.6094" style="stroke:#181818;stroke-width:1.0;"/></g><!--reverse link ExistRef to ExistRefActs--><g id="link_ExistRef_ExistRefActs"><path codeLine="41" d="M188.5,232.8894 C188.5,267.7994 188.5,308.0894 188.5,335.4494 " fill="none" id="ExistRef-backto-ExistRefActs" style="stroke:#181818;stroke-width:1.0;"/><polygon fill="#181818" points="188.5,219.8194,184.5,225.8194,188.5,231.8194,192.5,225.8194,188.5,219.8194" style="stroke:#181818;stroke-width:1.0;"/></g><!--link ExistLink to ExistRef--><g id="link_ExistLink_ExistRef"><path codeLine="43" d="M98.19,160.6094 C103.24,160.6094 108.29,160.6094 113.35,160.6094 " fill="none" id="ExistLink-to-ExistRef" style="stroke:#181818;stroke-width:1.0;"/><polygon fill="none" points="113.47,153.6094,133.47,160.6094,113.47,167.6094,113.47,153.6094" style="stroke:#181818;stroke-width:1.0;"/></g><!--SRC=[VL7DQiCm33xNJo6oIxEIF40f7OEjfxB3TXobY5G1qzWkjZi6szvzKc8d6Mmx6KdVZ_GvdBMze4S33zJYjOixP-CJ6e82lSQkK2hgs14ylkiGbMew364eu4CjLj0uSt51H-qitC4wuHPrBSDNEB9u373WoGj5s2JgDatnT18079RGluaFPPfxCkwD_eA8oGt3FBMZnGQUgStwB2yLKncIcRMqai6WFyEKUVLEs_ESaVkHlD4M8orBzPNpA4PO0PZY4T4-eU2klg4fcXLWmv6iuPuVAOzppTzjjEL6YompMTN2_-4d3V7yRySztpMHf6A6e8PKgyzjsdEeRwigV_rubQlS72Ej4PQsIEXUVfJasJS0]--></g></svg>