<?xml version="1.0" encoding="us-ascii" standalone="no"?><svg xmlns="http://www.w3.org/2000/svg" xmlns:xlink="http://www.w3.org/1999/xlink" contentStyleType="text/css" height="309px" preserveAspectRatio="none" style="width:762px;height:309px;background:#FFFFFF;" version="1.1" viewBox="0 0 762 309" width="762px" zoomAndPan="magnify"><defs/><g><!--class Nodet--><g id="elem_Nodet"><rect codeLine="4" fill="#F1F1F1" height="187.2656" id="Nodet" rx="2.5" ry="2.5" style="stroke:#181818;stroke-width:0.5;" width="141" x="9" y="115"/><ellipse cx="56.75" cy="131" fill="#ADD1B2" rx="11" ry="11" style="stroke:#181818;stroke-width:1.0;"/><path d="M59.4531,136.4375 Q58.5313,137.3594 56.2656,137.3594 Q55,137.3594 54.0781,136.4375 Q52.4219,134.7813 52.4219,131.25 Q52.4219,127.1406 54.2031,125.3438 Q55.1406,124.4219 56.3281,124.4219 Q58.5938,124.4219 59.3281,125.1406 Q60.7188,126.5469 60.6563,128.9375 L58.1875,128.9375 Q58.125,126.8125 57.3906,126.0781 Q57,125.6719 56.3281,125.6719 Q56.3281,125.6719 56.2656,126.1406 Q54.9375,127.4688 54.9375,131.125 Q54.9375,134.3125 56.0781,135.4375 Q56.6094,135.9688 56.6094,135.9688 Q56.8594,135.9688 57.3906,135.4375 Q58.0625,134.7813 58.125,132.3906 L60.7188,132.3906 Q60.5156,135.375 59.4531,136.4375 Z " fill="#000000"/><text fill="#000000" font-family="sans-serif" font-size="14" lengthAdjust="spacing" textLength="37" x="77.25" y="136.7285">Nodet</text><line style="stroke:#181818;stroke-width:0.5;" x1="10" x2="149" y1="147" y2="147"/><polygon fill="none" points="20,156.3047,24,160.3047,20,164.3047,16,160.3047" style="stroke:#B38D22;stroke-width:1.0;"/><text fill="#000000" font-family="sans-serif" font-size="14" lengthAdjust="spacing" textLength="62" x="29" y="165.5332">element ?</text><polygon fill="none" points="20,173.9141,24,177.9141,20,181.9141,16,177.9141" style="stroke:#B38D22;stroke-width:1.0;"/><text fill="#000000" font-family="sans-serif" font-size="14" lengthAdjust="spacing" textLength="32" x="29" y="183.1426">node</text><line style="stroke:#181818;stroke-width:1.0;stroke-dasharray:1.0,2.0;" x1="10" x2="149" y1="190.2188" y2="190.2188"/><text fill="#000000" font-family="sans-serif" font-size="14" lengthAdjust="spacing" textLength="105" x="15" y="208.752">createText( def )</text><text fill="#000000" font-family="sans-serif" font-size="14" lengthAdjust="spacing" textLength="129" x="15" y="226.3613">createElement( def )</text><line style="stroke:#181818;stroke-width:1.0;stroke-dasharray:1.0,2.0;" x1="10" x2="149" y1="233.4375" y2="233.4375"/><text fill="#000000" font-family="sans-serif" font-size="14" lengthAdjust="spacing" textLength="98" x="15" y="251.9707">refs : Exist.Refs</text><text fill="#000000" font-family="sans-serif" font-size="14" lengthAdjust="spacing" textLength="62" x="15" y="269.5801">parts : PF</text><line style="stroke:#181818;stroke-width:1.0;stroke-dasharray:1.0,2.0;" x1="10" x2="149" y1="276.6563" y2="276.6563"/><text fill="#000000" font-family="sans-serif" font-size="14" lengthAdjust="spacing" textLength="69" x="15" y="295.1895">terminate()</text></g><!--class PF--><g id="elem_PF"><rect codeLine="17" fill="#F1F1F1" height="108.8281" id="PF" rx="2.5" ry="2.5" style="stroke:#181818;stroke-width:0.5;" width="143" x="185" y="154"/><ellipse cx="243.25" cy="170" fill="#ADD1B2" rx="11" ry="11" style="stroke:#181818;stroke-width:1.0;"/><path d="M245.9531,175.4375 Q245.0313,176.3594 242.7656,176.3594 Q241.5,176.3594 240.5781,175.4375 Q238.9219,173.7813 238.9219,170.25 Q238.9219,166.1406 240.7031,164.3438 Q241.6406,163.4219 242.8281,163.4219 Q245.0938,163.4219 245.8281,164.1406 Q247.2188,165.5469 247.1563,167.9375 L244.6875,167.9375 Q244.625,165.8125 243.8906,165.0781 Q243.5,164.6719 242.8281,164.6719 Q242.8281,164.6719 242.7656,165.1406 Q241.4375,166.4688 241.4375,170.125 Q241.4375,173.3125 242.5781,174.4375 Q243.1094,174.9688 243.1094,174.9688 Q243.3594,174.9688 243.8906,174.4375 Q244.5625,173.7813 244.625,171.3906 L247.2188,171.3906 Q247.0156,174.375 245.9531,175.4375 Z " fill="#000000"/><text fill="#000000" font-family="sans-serif" font-size="14" lengthAdjust="spacing" textLength="18" x="263.75" y="175.7285">PF</text><line style="stroke:#181818;stroke-width:0.5;" x1="186" x2="327" y1="186" y2="186"/><text fill="#000000" font-family="sans-serif" font-size="14" lengthAdjust="spacing" textLength="56" x="191" y="204.5332">next : PF</text><line style="stroke:#181818;stroke-width:1.0;stroke-dasharray:1.0,2.0;" x1="186" x2="327" y1="211.6094" y2="211.6094"/><text fill="#000000" font-family="sans-serif" font-size="14" lengthAdjust="spacing" textLength="131" x="191" y="230.1426">items : Set &lt; Nodet &gt;</text><line style="stroke:#181818;stroke-width:1.0;stroke-dasharray:1.0,2.0;" x1="186" x2="327" y1="237.2188" y2="237.2188"/><text fill="#000000" font-family="sans-serif" font-size="14" lengthAdjust="spacing" textLength="69" x="191" y="255.752">terminate()</text></g><!--class Exist--><g id="elem_Exist"><rect fill="#F1F1F1" height="48" id="Exist" rx="2.5" ry="2.5" style="stroke:#181818;stroke-width:0.5;" width="61" x="49" y="7"/><ellipse cx="64" cy="23" fill="#ADD1B2" rx="11" ry="11" style="stroke:#181818;stroke-width:1.0;"/><path d="M66.7031,28.4375 Q65.7813,29.3594 63.5156,29.3594 Q62.25,29.3594 61.3281,28.4375 Q59.6719,26.7813 59.6719,23.25 Q59.6719,19.1406 61.4531,17.3438 Q62.3906,16.4219 63.5781,16.4219 Q65.8438,16.4219 66.5781,17.1406 Q67.9688,18.5469 67.9063,20.9375 L65.4375,20.9375 Q65.375,18.8125 64.6406,18.0781 Q64.25,17.6719 63.5781,17.6719 Q63.5781,17.6719 63.5156,18.1406 Q62.1875,19.4688 62.1875,23.125 Q62.1875,26.3125 63.3281,27.4375 Q63.8594,27.9688 63.8594,27.9688 Q64.1094,27.9688 64.6406,27.4375 Q65.3125,26.7813 65.375,24.3906 L67.9688,24.3906 Q67.7656,27.375 66.7031,28.4375 Z " fill="#000000"/><text fill="#000000" font-family="sans-serif" font-size="14" lengthAdjust="spacing" textLength="29" x="78" y="28.7285">Exist</text><line style="stroke:#181818;stroke-width:0.5;" x1="50" x2="109" y1="39" y2="39"/><line style="stroke:#181818;stroke-width:0.5;" x1="50" x2="109" y1="47" y2="47"/></g><!--class DomNode--><g id="elem_DomNode"><rect fill="#F1F1F1" height="48" id="DomNode" rx="2.5" ry="2.5" style="stroke:#181818;stroke-width:0.5;" width="94" x="661.5" y="184.5"/><ellipse cx="676.5" cy="200.5" fill="#ADD1B2" rx="11" ry="11" style="stroke:#181818;stroke-width:1.0;"/><path d="M679.2031,205.9375 Q678.2813,206.8594 676.0156,206.8594 Q674.75,206.8594 673.8281,205.9375 Q672.1719,204.2813 672.1719,200.75 Q672.1719,196.6406 673.9531,194.8438 Q674.8906,193.9219 676.0781,193.9219 Q678.3438,193.9219 679.0781,194.6406 Q680.4688,196.0469 680.4063,198.4375 L677.9375,198.4375 Q677.875,196.3125 677.1406,195.5781 Q676.75,195.1719 676.0781,195.1719 Q676.0781,195.1719 676.0156,195.6406 Q674.6875,196.9688 674.6875,200.625 Q674.6875,203.8125 675.8281,204.9375 Q676.3594,205.4688 676.3594,205.4688 Q676.6094,205.4688 677.1406,204.9375 Q677.8125,204.2813 677.875,201.8906 L680.4688,201.8906 Q680.2656,204.875 679.2031,205.9375 Z " fill="#000000"/><text fill="#000000" font-family="sans-serif" font-size="14" lengthAdjust="spacing" textLength="62" x="690.5" y="206.2285">DomNode</text><line style="stroke:#181818;stroke-width:0.5;" x1="662.5" x2="754.5" y1="216.5" y2="216.5"/><line style="stroke:#181818;stroke-width:0.5;" x1="662.5" x2="754.5" y1="224.5" y2="224.5"/></g><!--class Refs--><g id="elem_Refs"><rect fill="#F1F1F1" height="48" id="Refs" rx="2.5" ry="2.5" style="stroke:#181818;stroke-width:0.5;" width="61" x="381" y="184.5"/><ellipse cx="396" cy="200.5" fill="#ADD1B2" rx="11" ry="11" style="stroke:#181818;stroke-width:1.0;"/><path d="M398.7031,205.9375 Q397.7813,206.8594 395.5156,206.8594 Q394.25,206.8594 393.3281,205.9375 Q391.6719,204.2813 391.6719,200.75 Q391.6719,196.6406 393.4531,194.8438 Q394.3906,193.9219 395.5781,193.9219 Q397.8438,193.9219 398.5781,194.6406 Q399.9688,196.0469 399.9063,198.4375 L397.4375,198.4375 Q397.375,196.3125 396.6406,195.5781 Q396.25,195.1719 395.5781,195.1719 Q395.5781,195.1719 395.5156,195.6406 Q394.1875,196.9688 394.1875,200.625 Q394.1875,203.8125 395.3281,204.9375 Q395.8594,205.4688 395.8594,205.4688 Q396.1094,205.4688 396.6406,204.9375 Q397.3125,204.2813 397.375,201.8906 L399.9688,201.8906 Q399.7656,204.875 398.7031,205.9375 Z " fill="#000000"/><text fill="#000000" font-family="sans-serif" font-size="14" lengthAdjust="spacing" textLength="29" x="410" y="206.2285">Refs</text><line style="stroke:#181818;stroke-width:0.5;" x1="382" x2="441" y1="216.5" y2="216.5"/><line style="stroke:#181818;stroke-width:0.5;" x1="382" x2="441" y1="224.5" y2="224.5"/></g><!--class Container--><g id="elem_Container"><rect fill="#F1F1F1" height="48" id="Container" rx="2.5" ry="2.5" style="stroke:#181818;stroke-width:0.5;" width="94" x="209.5" y="7"/><ellipse cx="224.5" cy="23" fill="#ADD1B2" rx="11" ry="11" style="stroke:#181818;stroke-width:1.0;"/><path d="M227.2031,28.4375 Q226.2813,29.3594 224.0156,29.3594 Q222.75,29.3594 221.8281,28.4375 Q220.1719,26.7813 220.1719,23.25 Q220.1719,19.1406 221.9531,17.3438 Q222.8906,16.4219 224.0781,16.4219 Q226.3438,16.4219 227.0781,17.1406 Q228.4688,18.5469 228.4063,20.9375 L225.9375,20.9375 Q225.875,18.8125 225.1406,18.0781 Q224.75,17.6719 224.0781,17.6719 Q224.0781,17.6719 224.0156,18.1406 Q222.6875,19.4688 222.6875,23.125 Q222.6875,26.3125 223.8281,27.4375 Q224.3594,27.9688 224.3594,27.9688 Q224.6094,27.9688 225.1406,27.4375 Q225.8125,26.7813 225.875,24.3906 L228.4688,24.3906 Q228.2656,27.375 227.2031,28.4375 Z " fill="#000000"/><text fill="#000000" font-family="sans-serif" font-size="14" lengthAdjust="spacing" textLength="62" x="238.5" y="28.7285">Container</text><line style="stroke:#181818;stroke-width:0.5;" x1="210.5" x2="302.5" y1="39" y2="39"/><line style="stroke:#181818;stroke-width:0.5;" x1="210.5" x2="302.5" y1="47" y2="47"/></g><!--class Ref--><g id="elem_Ref"><rect fill="#F1F1F1" height="48" id="Ref" rx="2.5" ry="2.5" style="stroke:#181818;stroke-width:0.5;" width="54" x="477.5" y="184.5"/><ellipse cx="492.5" cy="200.5" fill="#ADD1B2" rx="11" ry="11" style="stroke:#181818;stroke-width:1.0;"/><path d="M495.2031,205.9375 Q494.2813,206.8594 492.0156,206.8594 Q490.75,206.8594 489.8281,205.9375 Q488.1719,204.2813 488.1719,200.75 Q488.1719,196.6406 489.9531,194.8438 Q490.8906,193.9219 492.0781,193.9219 Q494.3438,193.9219 495.0781,194.6406 Q496.4688,196.0469 496.4063,198.4375 L493.9375,198.4375 Q493.875,196.3125 493.1406,195.5781 Q492.75,195.1719 492.0781,195.1719 Q492.0781,195.1719 492.0156,195.6406 Q490.6875,196.9688 490.6875,200.625 Q490.6875,203.8125 491.8281,204.9375 Q492.3594,205.4688 492.3594,205.4688 Q492.6094,205.4688 493.1406,204.9375 Q493.8125,204.2813 493.875,201.8906 L496.4688,201.8906 Q496.2656,204.875 495.2031,205.9375 Z " fill="#000000"/><text fill="#000000" font-family="sans-serif" font-size="14" lengthAdjust="spacing" textLength="22" x="506.5" y="206.2285">Ref</text><line style="stroke:#181818;stroke-width:0.5;" x1="478.5" x2="530.5" y1="216.5" y2="216.5"/><line style="stroke:#181818;stroke-width:0.5;" x1="478.5" x2="530.5" y1="224.5" y2="224.5"/></g><!--class Leaf--><g id="elem_Leaf"><rect fill="#F1F1F1" height="48" id="Leaf" rx="2.5" ry="2.5" style="stroke:#181818;stroke-width:0.5;" width="60" x="566.5" y="184.5"/><ellipse cx="581.5" cy="200.5" fill="#ADD1B2" rx="11" ry="11" style="stroke:#181818;stroke-width:1.0;"/><path d="M584.2031,205.9375 Q583.2813,206.8594 581.0156,206.8594 Q579.75,206.8594 578.8281,205.9375 Q577.1719,204.2813 577.1719,200.75 Q577.1719,196.6406 578.9531,194.8438 Q579.8906,193.9219 581.0781,193.9219 Q583.3438,193.9219 584.0781,194.6406 Q585.4688,196.0469 585.4063,198.4375 L582.9375,198.4375 Q582.875,196.3125 582.1406,195.5781 Q581.75,195.1719 581.0781,195.1719 Q581.0781,195.1719 581.0156,195.6406 Q579.6875,196.9688 579.6875,200.625 Q579.6875,203.8125 580.8281,204.9375 Q581.3594,205.4688 581.3594,205.4688 Q581.6094,205.4688 582.1406,204.9375 Q582.8125,204.2813 582.875,201.8906 L585.4688,201.8906 Q585.2656,204.875 584.2031,205.9375 Z " fill="#000000"/><text fill="#000000" font-family="sans-serif" font-size="14" lengthAdjust="spacing" textLength="28" x="595.5" y="206.2285">Leaf</text><line style="stroke:#181818;stroke-width:0.5;" x1="567.5" x2="625.5" y1="216.5" y2="216.5"/><line style="stroke:#181818;stroke-width:0.5;" x1="567.5" x2="625.5" y1="224.5" y2="224.5"/></g><!--reverse link Exist to Nodet--><g id="link_Exist_Nodet"><path codeLine="25" d="M79.5,73.31 C79.5,88.97 79.5,92.74 79.5,114.92 " fill="none" id="Exist-backto-Nodet" style="stroke:#181818;stroke-width:1.0;"/><polygon fill="none" points="79.5,55.31,73.5,73.31,85.5,73.31,79.5,55.31" style="stroke:#181818;stroke-width:1.0;"/></g><!--reverse link Nodet to DomNode--><g id="link_Nodet_DomNode"><path codeLine="26" d="M151.5951,106.556 C164.0351,94.436 169.51,92.14 185,85 C229.6,64.44 583.75,61.73 627,85 C666.02,106 689.46,154.77 700.6,184.36 " fill="none" id="Nodet-backto-DomNode" style="stroke:#181818;stroke-width:1.0;"/><polygon fill="#181818" points="143,114.93,150.0889,113.608,151.5951,106.556,144.5062,107.878,143,114.93" style="stroke:#181818;stroke-width:1.0;"/></g><!--reverse link Nodet to Refs--><g id="link_Nodet_Refs"><path codeLine="27" d="M151.5951,106.556 C164.0351,94.436 169.51,92.14 185,85 C249.98,55.05 283.95,49.36 346,85 C382.3,105.85 399.42,154.68 406.73,184.31 " fill="none" id="Nodet-backto-Refs" style="stroke:#181818;stroke-width:1.0;"/><polygon fill="#181818" points="143,114.93,150.0889,113.608,151.5951,106.556,144.5062,107.878,143,114.93" style="stroke:#181818;stroke-width:1.0;"/></g><!--reverse link Nodet to PF--><g id="link_Nodet_PF"><path codeLine="28" d="M161.4433,279.4053 C181.2733,285.7853 189.67,277.94 209.5,263.2 " fill="none" id="Nodet-backto-PF" style="stroke:#181818;stroke-width:1.0;"/><polygon fill="#181818" points="150.02,275.73,154.5066,281.3754,161.4433,279.4053,156.9568,273.7599,150.02,275.73" style="stroke:#181818;stroke-width:1.0;"/></g><!--reverse link PF to Nodet--><g id="link_PF_Nodet"><path codeLine="32" d="M199.8692,146.6413 C180.0392,131.9013 169.85,134.89 150.02,141.27 " fill="none" id="PF-backto-Nodet" style="stroke:#181818;stroke-width:1.0;"/><polygon fill="#181818" points="209.5,153.8,207.0708,147.0104,199.8692,146.6413,202.2984,153.4309,209.5,153.8" style="stroke:#181818;stroke-width:1.0;"/></g><!--reverse link Container to PF--><g id="link_Container_PF"><path codeLine="30" d="M256.5,73.31 C256.5,98.29 256.5,120.82 256.5,153.77 " fill="none" id="Container-backto-PF" style="stroke:#181818;stroke-width:1.0;"/><polygon fill="none" points="256.5,55.31,250.5,73.31,262.5,73.31,256.5,55.31" style="stroke:#181818;stroke-width:1.0;"/></g><!--reverse link PF to PF--><g id="link_PF_PF"><path codeLine="31" d="M340.1413,176.6634 C359.8813,178.2534 363,188.22 363,208.5 C363,228.78 347.92,239.71 328.18,241.3 " fill="none" id="PF-backto-PF" style="stroke:#181818;stroke-width:1.0;"/><polygon fill="#181818" points="328.18,175.7,333.8395,180.1688,340.1413,176.6634,334.4818,172.1946,328.18,175.7" style="stroke:#181818;stroke-width:1.0;"/></g><!--reverse link Refs to Ref--><g id="link_Refs_Ref"><path codeLine="34" d="M454.02,208.5 C465.73,208.5 465.45,208.5 477.16,208.5 " fill="none" id="Refs-backto-Ref" style="stroke:#181818;stroke-width:1.0;"/><polygon fill="#181818" points="442.02,208.5,448.02,212.5,454.02,208.5,448.02,204.5,442.02,208.5" style="stroke:#181818;stroke-width:1.0;"/></g><!--link Ref to Leaf--><g id="link_Ref_Leaf"><path codeLine="35" d="M543.81,208.5 C555.35,208.5 542.89,208.5 554.43,208.5 " fill="none" id="Ref-Leaf" style="stroke:#181818;stroke-width:1.0;"/><polygon fill="none" points="531.81,208.5,537.81,212.5,543.81,208.5,537.81,204.5,531.81,208.5" style="stroke:#181818;stroke-width:1.0;"/><polygon fill="none" points="566.43,208.5,560.43,204.5,554.43,208.5,560.43,212.5,566.43,208.5" style="stroke:#181818;stroke-width:1.0;"/></g><!--SRC=[RKvB2i8m55ptdUA1crP83o155zgkH8fwWT2-Gg1D97cBWdftawRMBjpD3FDhUkaSNanBZ4z8DaWz3QGP3u5ehqEIvv0qbYJJdKPEiQKEiwzKHl-Y1hEbpk4Eor4vpg-UGFAGbeDMLz72P0UbVJxDu0tGJ3VgAdpGVcJbL4n3IDxyms9-klzRCkrXyH8YsY2Qjm9FPWZu9qod5kQdu6WqIwN9nW8l-JVR5OYL499pGy1eXC4poGu-]--></g></svg>