<?xml version="1.0" encoding="us-ascii" standalone="no"?><svg xmlns="http://www.w3.org/2000/svg" xmlns:xlink="http://www.w3.org/1999/xlink" contentStyleType="text/css" height="343px" preserveAspectRatio="none" style="width:549px;height:343px;background:#FFFFFF;" version="1.1" viewBox="0 0 549 343" width="549px" zoomAndPan="magnify"><defs/><g><text fill="#000000" font-family="arial" font-size="14" font-weight="bold" lengthAdjust="spacing" textLength="34" x="250.75" y="23.3608">Exist</text><!--class RootExist--><g id="elem_RootExist"><rect codeLine="6" fill="#F1F1F1" height="96.2959" id="RootExist" rx="2.5" ry="2.5" style="stroke:#181818;stroke-width:0.5;" width="172" x="369.5" y="44.0986"/><ellipse cx="421.75" cy="60.0986" fill="#ADD1B2" rx="11" ry="11" style="stroke:#181818;stroke-width:1.0;"/><path d="M424.4531,65.5361 Q423.5313,66.458 421.2656,66.458 Q420,66.458 419.0781,65.5361 Q417.4219,63.8799 417.4219,60.3486 Q417.4219,56.2393 419.2031,54.4424 Q420.1406,53.5205 421.3281,53.5205 Q423.5938,53.5205 424.3281,54.2393 Q425.7188,55.6455 425.6563,58.0361 L423.1875,58.0361 Q423.125,55.9111 422.3906,55.1768 Q422,54.7705 421.3281,54.7705 Q421.3281,54.7705 421.2656,55.2393 Q419.9375,56.5674 419.9375,60.2236 Q419.9375,63.4111 421.0781,64.5361 Q421.6094,65.0674 421.6094,65.0674 Q421.8594,65.0674 422.3906,64.5361 Q423.0625,63.8799 423.125,61.4893 L425.7188,61.4893 Q425.5156,64.4736 424.4531,65.5361 Z " fill="#000000"/><text fill="#000000" font-family="arial" font-size="14" lengthAdjust="spacing" textLength="59" x="442.25" y="65.4102">RootExist</text><line style="stroke:#181818;stroke-width:0.5;" x1="370.5" x2="540.5" y1="76.0986" y2="76.0986"/><ellipse cx="380.5" cy="89.6479" fill="none" rx="3" ry="3" style="stroke:#038048;stroke-width:1.0;"/><text fill="#000000" font-family="arial" font-size="14" lengthAdjust="spacing" textLength="146" x="389.5" y="93.4595">[ _parts ] : Set &lt; Exist &gt;</text><line style="stroke:#181818;stroke-width:1.0;stroke-dasharray:1.0,2.0;" x1="370.5" x2="540.5" y1="100.1973" y2="100.1973"/><ellipse cx="380.5" cy="113.7466" fill="#84BE84" rx="3" ry="3" style="stroke:#038048;stroke-width:1.0;"/><text fill="#000000" font-family="arial" font-size="14" lengthAdjust="spacing" textLength="69" x="389.5" y="117.5581">terminate()</text><text fill="#000000" font-family="arial" font-size="14" lengthAdjust="spacing" textLength="4" x="389.5" y="133.6567">&#160;</text></g><!--class Exist--><g id="elem_Exist"><rect codeLine="13" fill="#F1F1F1" height="136.4932" id="Exist" rx="2.5" ry="2.5" style="stroke:#181818;stroke-width:0.5;" width="174" x="368.5" y="200.0986"/><ellipse cx="436.75" cy="216.0986" fill="#ADD1B2" rx="11" ry="11" style="stroke:#181818;stroke-width:1.0;"/><path d="M439.4531,221.5361 Q438.5313,222.458 436.2656,222.458 Q435,222.458 434.0781,221.5361 Q432.4219,219.8799 432.4219,216.3486 Q432.4219,212.2393 434.2031,210.4424 Q435.1406,209.5205 436.3281,209.5205 Q438.5938,209.5205 439.3281,210.2393 Q440.7188,211.6455 440.6563,214.0361 L438.1875,214.0361 Q438.125,211.9111 437.3906,211.1768 Q437,210.7705 436.3281,210.7705 Q436.3281,210.7705 436.2656,211.2393 Q434.9375,212.5674 434.9375,216.2236 Q434.9375,219.4111 436.0781,220.5361 Q436.6094,221.0674 436.6094,221.0674 Q436.8594,221.0674 437.3906,220.5361 Q438.0625,219.8799 438.125,217.4893 L440.7188,217.4893 Q440.5156,220.4736 439.4531,221.5361 Z " fill="#000000"/><text fill="#000000" font-family="arial" font-size="14" lengthAdjust="spacing" textLength="29" x="457.25" y="221.4102">Exist</text><line style="stroke:#181818;stroke-width:0.5;" x1="369.5" x2="541.5" y1="232.0986" y2="232.0986"/><ellipse cx="379.5" cy="245.6479" fill="none" rx="3" ry="3" style="stroke:#038048;stroke-width:1.0;"/><text fill="#000000" font-family="arial" font-size="14" lengthAdjust="spacing" textLength="133" x="388.5" y="249.4595">container : Container</text><line style="stroke:#181818;stroke-width:1.0;stroke-dasharray:1.0,2.0;" x1="369.5" x2="541.5" y1="256.1973" y2="256.1973"/><rect fill="none" height="6" style="stroke:#C82930;stroke-width:1.0;" width="6" x="376.5" y="266.7466"/><text fill="#000000" font-family="arial" font-size="14" lengthAdjust="spacing" textLength="103" x="388.5" y="273.5581">refs : Set&lt; Ref &gt;</text><ellipse cx="379.5" cy="285.8452" fill="#84BE84" rx="3" ry="3" style="stroke:#038048;stroke-width:1.0;"/><text fill="#000000" font-family="arial" font-size="14" lengthAdjust="spacing" textLength="148" x="388.5" y="289.6567">addRef( ref : Exist.Ref )</text><ellipse cx="379.5" cy="301.9438" fill="#84BE84" rx="3" ry="3" style="stroke:#038048;stroke-width:1.0;"/><text fill="#000000" font-family="arial" font-size="14" lengthAdjust="spacing" textLength="104" x="388.5" y="305.7554">removeRef( ref )</text><line style="stroke:#181818;stroke-width:1.0;stroke-dasharray:1.0,2.0;" x1="369.5" x2="541.5" y1="312.4932" y2="312.4932"/><ellipse cx="379.5" cy="326.0425" fill="#84BE84" rx="3" ry="3" style="stroke:#038048;stroke-width:1.0;"/><text fill="#000000" font-family="arial" font-size="14" lengthAdjust="spacing" textLength="69" x="388.5" y="329.854">terminate()</text></g><!--class ExistRef--><g id="elem_ExistRef"><rect codeLine="23" fill="#F1F1F1" height="104.2959" id="ExistRef" rx="2.5" ry="2.5" style="stroke:#181818;stroke-width:0.5;" width="230" x="103.5" y="216.0986"/><ellipse cx="186.75" cy="232.0986" fill="#ADD1B2" rx="11" ry="11" style="stroke:#181818;stroke-width:1.0;"/><path d="M189.4531,237.5361 Q188.5313,238.458 186.2656,238.458 Q185,238.458 184.0781,237.5361 Q182.4219,235.8799 182.4219,232.3486 Q182.4219,228.2393 184.2031,226.4424 Q185.1406,225.5205 186.3281,225.5205 Q188.5938,225.5205 189.3281,226.2393 Q190.7188,227.6455 190.6563,230.0361 L188.1875,230.0361 Q188.125,227.9111 187.3906,227.1768 Q187,226.7705 186.3281,226.7705 Q186.3281,226.7705 186.2656,227.2393 Q184.9375,228.5674 184.9375,232.2236 Q184.9375,235.4111 186.0781,236.5361 Q186.6094,237.0674 186.6094,237.0674 Q186.8594,237.0674 187.3906,236.5361 Q188.0625,235.8799 188.125,233.4893 L190.7188,233.4893 Q190.5156,236.4736 189.4531,237.5361 Z " fill="#000000"/><text fill="#000000" font-family="arial" font-size="14" lengthAdjust="spacing" textLength="55" x="207.25" y="237.4102">Exist.Ref</text><line style="stroke:#181818;stroke-width:0.5;" x1="104.5" x2="332.5" y1="248.0986" y2="248.0986"/><ellipse cx="114.5" cy="261.6479" fill="none" rx="3" ry="3" style="stroke:#038048;stroke-width:1.0;"/><text fill="#000000" font-family="arial" font-size="14" lengthAdjust="spacing" textLength="84" x="123.5" y="265.4595">source : Exist</text><line style="stroke:#181818;stroke-width:1.0;stroke-dasharray:1.0,2.0;" x1="104.5" x2="332.5" y1="272.1973" y2="272.1973"/><polygon fill="#FFFF44" points="114.5,280.7466,118.5,284.7466,114.5,288.7466,110.5,284.7466" style="stroke:#B38D22;stroke-width:1.0;"/><text fill="#000000" font-family="arial" font-size="14" lengthAdjust="spacing" textLength="116" x="123.5" y="289.5581">_update : ()=&gt;void</text><line style="stroke:#181818;stroke-width:1.0;stroke-dasharray:1.0,2.0;" x1="104.5" x2="332.5" y1="296.2959" y2="296.2959"/><ellipse cx="114.5" cy="309.8452" fill="#84BE84" rx="3" ry="3" style="stroke:#038048;stroke-width:1.0;"/><text fill="#000000" font-family="arial" font-size="14" lengthAdjust="spacing" textLength="204" x="123.5" y="313.6567"># _new_source( newsrc, oldsrc )</text></g><!--class Set--><g id="elem_Set"><rect fill="#F1F1F1" height="48" id="Set" rx="2.5" ry="2.5" style="stroke:#181818;stroke-width:0.5;" width="53" x="11" y="68.0986"/><ellipse cx="26" cy="84.0986" fill="#ADD1B2" rx="11" ry="11" style="stroke:#181818;stroke-width:1.0;"/><path d="M28.7031,89.5361 Q27.7813,90.458 25.5156,90.458 Q24.25,90.458 23.3281,89.5361 Q21.6719,87.8799 21.6719,84.3486 Q21.6719,80.2393 23.4531,78.4424 Q24.3906,77.5205 25.5781,77.5205 Q27.8438,77.5205 28.5781,78.2393 Q29.9688,79.6455 29.9063,82.0361 L27.4375,82.0361 Q27.375,79.9111 26.6406,79.1768 Q26.25,78.7705 25.5781,78.7705 Q25.5781,78.7705 25.5156,79.2393 Q24.1875,80.5674 24.1875,84.2236 Q24.1875,87.4111 25.3281,88.5361 Q25.8594,89.0674 25.8594,89.0674 Q26.1094,89.0674 26.6406,88.5361 Q27.3125,87.8799 27.375,85.4893 L29.9688,85.4893 Q29.7656,88.4736 28.7031,89.5361 Z " fill="#000000"/><text fill="#000000" font-family="arial" font-size="14" lengthAdjust="spacing" textLength="21" x="40" y="89.4102">Set</text><line style="stroke:#181818;stroke-width:0.5;" x1="12" x2="63" y1="100.0986" y2="100.0986"/><line style="stroke:#181818;stroke-width:0.5;" x1="12" x2="63" y1="108.0986" y2="108.0986"/></g><!--class Refs--><g id="elem_Refs"><rect fill="#F1F1F1" height="48" id="Refs" rx="2.5" ry="2.5" style="stroke:#181818;stroke-width:0.5;" width="61" x="7" y="244.0986"/><ellipse cx="22" cy="260.0986" fill="#ADD1B2" rx="11" ry="11" style="stroke:#181818;stroke-width:1.0;"/><path d="M24.7031,265.5361 Q23.7813,266.458 21.5156,266.458 Q20.25,266.458 19.3281,265.5361 Q17.6719,263.8799 17.6719,260.3486 Q17.6719,256.2393 19.4531,254.4424 Q20.3906,253.5205 21.5781,253.5205 Q23.8438,253.5205 24.5781,254.2393 Q25.9688,255.6455 25.9063,258.0361 L23.4375,258.0361 Q23.375,255.9111 22.6406,255.1768 Q22.25,254.7705 21.5781,254.7705 Q21.5781,254.7705 21.5156,255.2393 Q20.1875,256.5674 20.1875,260.2236 Q20.1875,263.4111 21.3281,264.5361 Q21.8594,265.0674 21.8594,265.0674 Q22.1094,265.0674 22.6406,264.5361 Q23.3125,263.8799 23.375,261.4893 L25.9688,261.4893 Q25.7656,264.4736 24.7031,265.5361 Z " fill="#000000"/><text fill="#000000" font-family="arial" font-size="14" lengthAdjust="spacing" textLength="29" x="36" y="265.4102">Refs</text><line style="stroke:#181818;stroke-width:0.5;" x1="8" x2="67" y1="276.0986" y2="276.0986"/><line style="stroke:#181818;stroke-width:0.5;" x1="8" x2="67" y1="284.0986" y2="284.0986"/></g><!--reverse link RootExist to Exist--><g id="link_RootExist_Exist"><path codeLine="31" d="M455.5,158.1886 C455.5,176.6086 455.5,180.0686 455.5,200.0486 " fill="none" id="RootExist-backto-Exist" style="stroke:#181818;stroke-width:1.0;"/><polygon fill="none" points="455.5,140.1886,449.5,158.1886,461.5,158.1886,455.5,140.1886" style="stroke:#181818;stroke-width:1.0;"/></g><!--link ExistRef to Exist--><g id="link_ExistRef_Exist"><path codeLine="32" d="M345.76,268.0986 C357.33,268.0986 344.9,268.0986 356.47,268.0986 " fill="none" id="ExistRef-Exist" style="stroke:#181818;stroke-width:1.0;"/><polygon fill="none" points="333.76,268.0986,339.76,272.0986,345.76,268.0986,339.76,264.0986,333.76,268.0986" style="stroke:#181818;stroke-width:1.0;"/><polygon fill="none" points="368.47,268.0986,362.47,264.0986,356.47,268.0986,362.47,272.0986,368.47,268.0986" style="stroke:#181818;stroke-width:1.0;"/></g><!--reverse link Set to Refs--><g id="link_Set_Refs"><path codeLine="34" d="M37.5,134.2086 C37.5,167.4886 37.5,210.5686 37.5,243.8986 " fill="none" id="Set-backto-Refs" style="stroke:#181818;stroke-width:1.0;"/><polygon fill="none" points="37.5,116.2086,31.5,134.2086,43.5,134.2086,37.5,116.2086" style="stroke:#181818;stroke-width:1.0;"/></g><!--reverse link Refs to ExistRef--><g id="link_Refs_ExistRef"><path codeLine="35" d="M80.26,268.0986 C91.99,268.0986 91.73,268.0986 103.47,268.0986 " fill="none" id="Refs-backto-ExistRef" style="stroke:#181818;stroke-width:1.0;"/><polygon fill="#181818" points="68.26,268.0986,74.26,272.0986,80.26,268.0986,74.26,264.0986,68.26,268.0986" style="stroke:#181818;stroke-width:1.0;"/></g><!--SRC=[RP3DJiGm38JFwwSObKlBqZu0AdlXvyXXEI9KMQqhHTisgoHTa81tn-aV7BWabiV-PcH_CiEP7VTua9R7BZpP8JnpBqZO6UuIec129tZyC3uGrHrxZwErOMhWatPxlA9IHl1umorU9A2Snt6WNL74YI2kDmC7IJEYxnNp1r6hBPj1d1BkrthUpk6azJEvn57QYDs3cqRhD8ggJQWYYbaKdVJs8fkU_PTZYv5iombuIHL9Kp1lHrVBwZ1phb2DvqOfsawpkyF5ccPnK6cGzshUIg6rT_KDRDVeZydqztZbLvultCtKvdQzzNJ9EA9zJ_71TRx58_e1]--></g></svg>