<?xml version="1.0" encoding="us-ascii" standalone="no"?><svg xmlns="http://www.w3.org/2000/svg" xmlns:xlink="http://www.w3.org/1999/xlink" contentStyleType="text/css" height="671px" preserveAspectRatio="none" style="width:582px;height:671px;background:#FFFFFF;" version="1.1" viewBox="0 0 582 671" width="582px" zoomAndPan="magnify"><defs/><g><text fill="#000000" font-family="arial" font-size="14" font-weight="bold" lengthAdjust="spacing" textLength="30" x="269" y="23.3608">Leaf</text><!--class RootExist--><g id="elem_RootExist"><rect codeLine="6" fill="#F1F1F1" height="96.2959" id="RootExist" rx="2.5" ry="2.5" style="stroke:#181818;stroke-width:0.5;" width="172" x="378.5" y="44.0986"/><ellipse cx="430.75" cy="60.0986" fill="#ADD1B2" rx="11" ry="11" style="stroke:#181818;stroke-width:1.0;"/><path d="M433.4531,65.5361 Q432.5313,66.458 430.2656,66.458 Q429,66.458 428.0781,65.5361 Q426.4219,63.8799 426.4219,60.3486 Q426.4219,56.2393 428.2031,54.4424 Q429.1406,53.5205 430.3281,53.5205 Q432.5938,53.5205 433.3281,54.2393 Q434.7188,55.6455 434.6563,58.0361 L432.1875,58.0361 Q432.125,55.9111 431.3906,55.1768 Q431,54.7705 430.3281,54.7705 Q430.3281,54.7705 430.2656,55.2393 Q428.9375,56.5674 428.9375,60.2236 Q428.9375,63.4111 430.0781,64.5361 Q430.6094,65.0674 430.6094,65.0674 Q430.8594,65.0674 431.3906,64.5361 Q432.0625,63.8799 432.125,61.4893 L434.7188,61.4893 Q434.5156,64.4736 433.4531,65.5361 Z " fill="#000000"/><text fill="#000000" font-family="arial" font-size="14" lengthAdjust="spacing" textLength="59" x="451.25" y="65.4102">RootExist</text><line style="stroke:#181818;stroke-width:0.5;" x1="379.5" x2="549.5" y1="76.0986" y2="76.0986"/><ellipse cx="389.5" cy="89.6479" fill="none" rx="3" ry="3" style="stroke:#038048;stroke-width:1.0;"/><text fill="#000000" font-family="arial" font-size="14" lengthAdjust="spacing" textLength="146" x="398.5" y="93.4595">[ _parts ] : Set &lt; Exist &gt;</text><line style="stroke:#181818;stroke-width:1.0;stroke-dasharray:1.0,2.0;" x1="379.5" x2="549.5" y1="100.1973" y2="100.1973"/><ellipse cx="389.5" cy="113.7466" fill="#84BE84" rx="3" ry="3" style="stroke:#038048;stroke-width:1.0;"/><text fill="#000000" font-family="arial" font-size="14" lengthAdjust="spacing" textLength="69" x="398.5" y="117.5581">terminate()</text><text fill="#000000" font-family="arial" font-size="14" lengthAdjust="spacing" textLength="4" x="398.5" y="133.6567">&#160;</text></g><!--class Exist--><g id="elem_Exist"><rect codeLine="13" fill="#F1F1F1" height="136.4932" id="Exist" rx="2.5" ry="2.5" style="stroke:#181818;stroke-width:0.5;" width="174" x="377.5" y="200.0986"/><ellipse cx="445.75" cy="216.0986" fill="#ADD1B2" rx="11" ry="11" style="stroke:#181818;stroke-width:1.0;"/><path d="M448.4531,221.5361 Q447.5313,222.458 445.2656,222.458 Q444,222.458 443.0781,221.5361 Q441.4219,219.8799 441.4219,216.3486 Q441.4219,212.2393 443.2031,210.4424 Q444.1406,209.5205 445.3281,209.5205 Q447.5938,209.5205 448.3281,210.2393 Q449.7188,211.6455 449.6563,214.0361 L447.1875,214.0361 Q447.125,211.9111 446.3906,211.1768 Q446,210.7705 445.3281,210.7705 Q445.3281,210.7705 445.2656,211.2393 Q443.9375,212.5674 443.9375,216.2236 Q443.9375,219.4111 445.0781,220.5361 Q445.6094,221.0674 445.6094,221.0674 Q445.8594,221.0674 446.3906,220.5361 Q447.0625,219.8799 447.125,217.4893 L449.7188,217.4893 Q449.5156,220.4736 448.4531,221.5361 Z " fill="#000000"/><text fill="#000000" font-family="arial" font-size="14" lengthAdjust="spacing" textLength="29" x="466.25" y="221.4102">Exist</text><line style="stroke:#181818;stroke-width:0.5;" x1="378.5" x2="550.5" y1="232.0986" y2="232.0986"/><ellipse cx="388.5" cy="245.6479" fill="none" rx="3" ry="3" style="stroke:#038048;stroke-width:1.0;"/><text fill="#000000" font-family="arial" font-size="14" lengthAdjust="spacing" textLength="133" x="397.5" y="249.4595">container : Container</text><line style="stroke:#181818;stroke-width:1.0;stroke-dasharray:1.0,2.0;" x1="378.5" x2="550.5" y1="256.1973" y2="256.1973"/><rect fill="none" height="6" style="stroke:#C82930;stroke-width:1.0;" width="6" x="385.5" y="266.7466"/><text fill="#000000" font-family="arial" font-size="14" lengthAdjust="spacing" textLength="103" x="397.5" y="273.5581">refs : Set&lt; Ref &gt;</text><ellipse cx="388.5" cy="285.8452" fill="#84BE84" rx="3" ry="3" style="stroke:#038048;stroke-width:1.0;"/><text fill="#000000" font-family="arial" font-size="14" lengthAdjust="spacing" textLength="148" x="397.5" y="289.6567">addRef( ref : Exist.Ref )</text><ellipse cx="388.5" cy="301.9438" fill="#84BE84" rx="3" ry="3" style="stroke:#038048;stroke-width:1.0;"/><text fill="#000000" font-family="arial" font-size="14" lengthAdjust="spacing" textLength="104" x="397.5" y="305.7554">removeRef( ref )</text><line style="stroke:#181818;stroke-width:1.0;stroke-dasharray:1.0,2.0;" x1="378.5" x2="550.5" y1="312.4932" y2="312.4932"/><ellipse cx="388.5" cy="326.0425" fill="#84BE84" rx="3" ry="3" style="stroke:#038048;stroke-width:1.0;"/><text fill="#000000" font-family="arial" font-size="14" lengthAdjust="spacing" textLength="69" x="397.5" y="329.854">terminate()</text></g><!--class ExistRef--><g id="elem_ExistRef"><rect codeLine="23" fill="#F1F1F1" height="104.2959" id="ExistRef" rx="2.5" ry="2.5" style="stroke:#181818;stroke-width:0.5;" width="230" x="103.5" y="216.0986"/><ellipse cx="186.75" cy="232.0986" fill="#ADD1B2" rx="11" ry="11" style="stroke:#181818;stroke-width:1.0;"/><path d="M189.4531,237.5361 Q188.5313,238.458 186.2656,238.458 Q185,238.458 184.0781,237.5361 Q182.4219,235.8799 182.4219,232.3486 Q182.4219,228.2393 184.2031,226.4424 Q185.1406,225.5205 186.3281,225.5205 Q188.5938,225.5205 189.3281,226.2393 Q190.7188,227.6455 190.6563,230.0361 L188.1875,230.0361 Q188.125,227.9111 187.3906,227.1768 Q187,226.7705 186.3281,226.7705 Q186.3281,226.7705 186.2656,227.2393 Q184.9375,228.5674 184.9375,232.2236 Q184.9375,235.4111 186.0781,236.5361 Q186.6094,237.0674 186.6094,237.0674 Q186.8594,237.0674 187.3906,236.5361 Q188.0625,235.8799 188.125,233.4893 L190.7188,233.4893 Q190.5156,236.4736 189.4531,237.5361 Z " fill="#000000"/><text fill="#000000" font-family="arial" font-size="14" lengthAdjust="spacing" textLength="55" x="207.25" y="237.4102">Exist.Ref</text><line style="stroke:#181818;stroke-width:0.5;" x1="104.5" x2="332.5" y1="248.0986" y2="248.0986"/><ellipse cx="114.5" cy="261.6479" fill="none" rx="3" ry="3" style="stroke:#038048;stroke-width:1.0;"/><text fill="#000000" font-family="arial" font-size="14" lengthAdjust="spacing" textLength="84" x="123.5" y="265.4595">source : Exist</text><line style="stroke:#181818;stroke-width:1.0;stroke-dasharray:1.0,2.0;" x1="104.5" x2="332.5" y1="272.1973" y2="272.1973"/><polygon fill="#FFFF44" points="114.5,280.7466,118.5,284.7466,114.5,288.7466,110.5,284.7466" style="stroke:#B38D22;stroke-width:1.0;"/><text fill="#000000" font-family="arial" font-size="14" lengthAdjust="spacing" textLength="116" x="123.5" y="289.5581">_update : ()=&gt;void</text><line style="stroke:#181818;stroke-width:1.0;stroke-dasharray:1.0,2.0;" x1="104.5" x2="332.5" y1="296.2959" y2="296.2959"/><ellipse cx="114.5" cy="309.8452" fill="#84BE84" rx="3" ry="3" style="stroke:#038048;stroke-width:1.0;"/><text fill="#000000" font-family="arial" font-size="14" lengthAdjust="spacing" textLength="204" x="123.5" y="313.6567"># _new_source( newsrc, oldsrc )</text></g><!--class Set--><g id="elem_Set"><rect fill="#F1F1F1" height="48" id="Set" rx="2.5" ry="2.5" style="stroke:#181818;stroke-width:0.5;" width="53" x="11" y="68.0986"/><ellipse cx="26" cy="84.0986" fill="#ADD1B2" rx="11" ry="11" style="stroke:#181818;stroke-width:1.0;"/><path d="M28.7031,89.5361 Q27.7813,90.458 25.5156,90.458 Q24.25,90.458 23.3281,89.5361 Q21.6719,87.8799 21.6719,84.3486 Q21.6719,80.2393 23.4531,78.4424 Q24.3906,77.5205 25.5781,77.5205 Q27.8438,77.5205 28.5781,78.2393 Q29.9688,79.6455 29.9063,82.0361 L27.4375,82.0361 Q27.375,79.9111 26.6406,79.1768 Q26.25,78.7705 25.5781,78.7705 Q25.5781,78.7705 25.5156,79.2393 Q24.1875,80.5674 24.1875,84.2236 Q24.1875,87.4111 25.3281,88.5361 Q25.8594,89.0674 25.8594,89.0674 Q26.1094,89.0674 26.6406,88.5361 Q27.3125,87.8799 27.375,85.4893 L29.9688,85.4893 Q29.7656,88.4736 28.7031,89.5361 Z " fill="#000000"/><text fill="#000000" font-family="arial" font-size="14" lengthAdjust="spacing" textLength="21" x="40" y="89.4102">Set</text><line style="stroke:#181818;stroke-width:0.5;" x1="12" x2="63" y1="100.0986" y2="100.0986"/><line style="stroke:#181818;stroke-width:0.5;" x1="12" x2="63" y1="108.0986" y2="108.0986"/></g><!--class Refs--><g id="elem_Refs"><rect fill="#F1F1F1" height="48" id="Refs" rx="2.5" ry="2.5" style="stroke:#181818;stroke-width:0.5;" width="61" x="7" y="244.0986"/><ellipse cx="22" cy="260.0986" fill="#ADD1B2" rx="11" ry="11" style="stroke:#181818;stroke-width:1.0;"/><path d="M24.7031,265.5361 Q23.7813,266.458 21.5156,266.458 Q20.25,266.458 19.3281,265.5361 Q17.6719,263.8799 17.6719,260.3486 Q17.6719,256.2393 19.4531,254.4424 Q20.3906,253.5205 21.5781,253.5205 Q23.8438,253.5205 24.5781,254.2393 Q25.9688,255.6455 25.9063,258.0361 L23.4375,258.0361 Q23.375,255.9111 22.6406,255.1768 Q22.25,254.7705 21.5781,254.7705 Q21.5781,254.7705 21.5156,255.2393 Q20.1875,256.5674 20.1875,260.2236 Q20.1875,263.4111 21.3281,264.5361 Q21.8594,265.0674 21.8594,265.0674 Q22.1094,265.0674 22.6406,264.5361 Q23.3125,263.8799 23.375,261.4893 L25.9688,261.4893 Q25.7656,264.4736 24.7031,265.5361 Z " fill="#000000"/><text fill="#000000" font-family="arial" font-size="14" lengthAdjust="spacing" textLength="29" x="36" y="265.4102">Refs</text><line style="stroke:#181818;stroke-width:0.5;" x1="8" x2="67" y1="276.0986" y2="276.0986"/><line style="stroke:#181818;stroke-width:0.5;" x1="8" x2="67" y1="284.0986" y2="284.0986"/></g><!--class RefFactory--><g id="elem_RefFactory"><rect codeLine="6" fill="#F1F1F1" height="64.0986" id="RefFactory" rx="2.5" ry="2.5" style="stroke:#181818;stroke-width:0.5;" width="217" x="358" y="396.0986"/><ellipse cx="427.25" cy="412.0986" fill="#ADD1B2" rx="11" ry="11" style="stroke:#181818;stroke-width:1.0;"/><path d="M429.9531,417.5361 Q429.0313,418.458 426.7656,418.458 Q425.5,418.458 424.5781,417.5361 Q422.9219,415.8799 422.9219,412.3486 Q422.9219,408.2393 424.7031,406.4424 Q425.6406,405.5205 426.8281,405.5205 Q429.0938,405.5205 429.8281,406.2393 Q431.2188,407.6455 431.1563,410.0361 L428.6875,410.0361 Q428.625,407.9111 427.8906,407.1768 Q427.5,406.7705 426.8281,406.7705 Q426.8281,406.7705 426.7656,407.2393 Q425.4375,408.5674 425.4375,412.2236 Q425.4375,415.4111 426.5781,416.5361 Q427.1094,417.0674 427.1094,417.0674 Q427.3594,417.0674 427.8906,416.5361 Q428.5625,415.8799 428.625,413.4893 L431.2188,413.4893 Q431.0156,416.4736 429.9531,417.5361 Z " fill="#000000"/><text fill="#000000" font-family="arial" font-size="14" lengthAdjust="spacing" textLength="70" x="447.75" y="417.4102">RefFactory</text><line style="stroke:#181818;stroke-width:0.5;" x1="359" x2="574" y1="428.0986" y2="428.0986"/><line style="stroke:#181818;stroke-width:0.5;" x1="359" x2="574" y1="436.0986" y2="436.0986"/><ellipse cx="369" cy="449.6479" fill="#84BE84" rx="3" ry="3" style="stroke:#038048;stroke-width:1.0;"/><text fill="#000000" font-family="arial" font-size="14" lengthAdjust="spacing" textLength="191" x="378" y="453.4595">createRef( container, update )</text></g><!--class Leaf--><g id="elem_Leaf"><rect codeLine="10" fill="#F1F1F1" height="144.5918" id="Leaf" rx="2.5" ry="2.5" style="stroke:#181818;stroke-width:0.5;" width="194" x="372.5" y="520.0986"/><ellipse cx="440.25" cy="536.0986" fill="#ADD1B2" rx="11" ry="11" style="stroke:#181818;stroke-width:1.0;"/><path d="M442.9531,541.5361 Q442.0313,542.458 439.7656,542.458 Q438.5,542.458 437.5781,541.5361 Q435.9219,539.8799 435.9219,536.3486 Q435.9219,532.2393 437.7031,530.4424 Q438.6406,529.5205 439.8281,529.5205 Q442.0938,529.5205 442.8281,530.2393 Q444.2188,531.6455 444.1563,534.0361 L441.6875,534.0361 Q441.625,531.9111 440.8906,531.1768 Q440.5,530.7705 439.8281,530.7705 Q439.8281,530.7705 439.7656,531.2393 Q438.4375,532.5674 438.4375,536.2236 Q438.4375,539.4111 439.5781,540.5361 Q440.1094,541.0674 440.1094,541.0674 Q440.3594,541.0674 440.8906,540.5361 Q441.5625,539.8799 441.625,537.4893 L444.2188,537.4893 Q444.0156,540.4736 442.9531,541.5361 Z " fill="#000000"/><text fill="#000000" font-family="arial" font-size="14" lengthAdjust="spacing" textLength="28" x="460.75" y="541.4102">Leaf</text><rect fill="#FFFFFF" height="15.7988" style="stroke:#181818;stroke-width:1.0;stroke-dasharray:2.0,2.0;" width="16" x="553.5" y="517.0986"/><text fill="#000000" font-family="arial" font-size="12" font-style="italic" lengthAdjust="spacing" textLength="8" x="557.5" y="529.5508">V</text><line style="stroke:#181818;stroke-width:0.5;" x1="373.5" x2="565.5" y1="552.0986" y2="552.0986"/><ellipse cx="383.5" cy="565.6479" fill="#84BE84" rx="3" ry="3" style="stroke:#038048;stroke-width:1.0;"/><text fill="#000000" font-family="arial" font-size="14" lengthAdjust="spacing" textLength="147" x="392.5" y="569.4595">addRef( ref : Leaf.Ref )</text><ellipse cx="383.5" cy="581.7466" fill="#84BE84" rx="3" ry="3" style="stroke:#038048;stroke-width:1.0;"/><text fill="#000000" font-family="arial" font-size="14" lengthAdjust="spacing" textLength="125" x="392.5" y="585.5581">createConverter( f )</text><polygon fill="none" points="383.5,592.8452,387.5,596.8452,383.5,600.8452,379.5,596.8452" style="stroke:#B38D22;stroke-width:1.0;"/><text fill="#000000" font-family="arial" font-size="14" lengthAdjust="spacing" textLength="168" x="392.5" y="601.6567">convs : Set &lt; RefFactory &gt;</text><line style="stroke:#181818;stroke-width:1.0;stroke-dasharray:1.0,2.0;" x1="373.5" x2="565.5" y1="608.3945" y2="608.3945"/><polygon fill="none" points="383.5,616.9438,387.5,620.9438,383.5,624.9438,379.5,620.9438" style="stroke:#B38D22;stroke-width:1.0;"/><text fill="#000000" font-family="arial" font-size="14" lengthAdjust="spacing" textLength="55" x="392.5" y="625.7554">value : V</text><ellipse cx="383.5" cy="638.0425" fill="#84BE84" rx="3" ry="3" style="stroke:#038048;stroke-width:1.0;"/><text fill="#000000" font-family="arial" font-size="14" lengthAdjust="spacing" textLength="92" x="392.5" y="641.854">set( value : V )</text><ellipse cx="383.5" cy="654.1411" fill="#84BE84" rx="3" ry="3" style="stroke:#038048;stroke-width:1.0;"/><text fill="#000000" font-family="arial" font-size="14" lengthAdjust="spacing" textLength="51" x="392.5" y="657.9526">get() : V</text></g><!--class LeafRef--><g id="elem_LeafRef"><rect codeLine="20" fill="#F1F1F1" height="96.2959" id="LeafRef" rx="2.5" ry="2.5" style="stroke:#181818;stroke-width:0.5;" width="245" x="92" y="544.5986"/><ellipse cx="172.25" cy="560.5986" fill="#ADD1B2" rx="11" ry="11" style="stroke:#181818;stroke-width:1.0;"/><path d="M174.9531,566.0361 Q174.0313,566.958 171.7656,566.958 Q170.5,566.958 169.5781,566.0361 Q167.9219,564.3799 167.9219,560.8486 Q167.9219,556.7393 169.7031,554.9424 Q170.6406,554.0205 171.8281,554.0205 Q174.0938,554.0205 174.8281,554.7393 Q176.2188,556.1455 176.1563,558.5361 L173.6875,558.5361 Q173.625,556.4111 172.8906,555.6768 Q172.5,555.2705 171.8281,555.2705 Q171.8281,555.2705 171.7656,555.7393 Q170.4375,557.0674 170.4375,560.7236 Q170.4375,563.9111 171.5781,565.0361 Q172.1094,565.5674 172.1094,565.5674 Q172.3594,565.5674 172.8906,565.0361 Q173.5625,564.3799 173.625,561.9893 L176.2188,561.9893 Q176.0156,564.9736 174.9531,566.0361 Z " fill="#000000"/><text fill="#000000" font-family="arial" font-size="14" lengthAdjust="spacing" textLength="54" x="192.75" y="565.9102">Leaf.Ref</text><rect fill="#FFFFFF" height="15.7988" style="stroke:#181818;stroke-width:1.0;stroke-dasharray:2.0,2.0;" width="16" x="324" y="541.5986"/><text fill="#000000" font-family="arial" font-size="12" font-style="italic" lengthAdjust="spacing" textLength="8" x="328" y="554.0508">V</text><line style="stroke:#181818;stroke-width:0.5;" x1="93" x2="336" y1="576.5986" y2="576.5986"/><ellipse cx="103" cy="590.1479" fill="none" rx="3" ry="3" style="stroke:#038048;stroke-width:1.0;"/><text fill="#000000" font-family="arial" font-size="14" lengthAdjust="spacing" textLength="55" x="112" y="593.9595">value : V</text><ellipse cx="103" cy="606.2466" fill="none" rx="3" ry="3" style="stroke:#038048;stroke-width:1.0;"/><text fill="#000000" font-family="arial" font-size="14" lengthAdjust="spacing" textLength="82" x="112" y="610.0581">string : string</text><line style="stroke:#181818;stroke-width:1.0;stroke-dasharray:1.0,2.0;" x1="93" x2="336" y1="616.7959" y2="616.7959"/><ellipse cx="103" cy="630.3452" fill="#84BE84" rx="3" ry="3" style="stroke:#038048;stroke-width:1.0;"/><text fill="#000000" font-family="arial" font-size="14" lengthAdjust="spacing" textLength="219" x="112" y="634.1567">_new_value( newval :V, oldval : V )</text></g><!--reverse link RootExist to Exist--><g id="link_RootExist_Exist"><path codeLine="31" d="M464.5,158.1886 C464.5,176.6086 464.5,180.0686 464.5,200.0486 " fill="none" id="RootExist-backto-Exist" style="stroke:#181818;stroke-width:1.0;"/><polygon fill="none" points="464.5,140.1886,458.5,158.1886,470.5,158.1886,464.5,140.1886" style="stroke:#181818;stroke-width:1.0;"/></g><!--link ExistRef to Exist--><g id="link_ExistRef_Exist"><path codeLine="32" d="M345.81,268.0986 C360.36,268.0986 350.91,268.0986 365.46,268.0986 " fill="none" id="ExistRef-Exist" style="stroke:#181818;stroke-width:1.0;"/><polygon fill="none" points="333.81,268.0986,339.81,272.0986,345.81,268.0986,339.81,264.0986,333.81,268.0986" style="stroke:#181818;stroke-width:1.0;"/><polygon fill="none" points="377.46,268.0986,371.46,264.0986,365.46,268.0986,371.46,272.0986,377.46,268.0986" style="stroke:#181818;stroke-width:1.0;"/></g><!--reverse link Set to Refs--><g id="link_Set_Refs"><path codeLine="34" d="M37.5,134.2086 C37.5,167.4886 37.5,210.5686 37.5,243.8986 " fill="none" id="Set-backto-Refs" style="stroke:#181818;stroke-width:1.0;"/><polygon fill="none" points="37.5,116.2086,31.5,134.2086,43.5,134.2086,37.5,116.2086" style="stroke:#181818;stroke-width:1.0;"/></g><!--reverse link Refs to ExistRef--><g id="link_Refs_ExistRef"><path codeLine="35" d="M80.26,268.0986 C91.99,268.0986 91.73,268.0986 103.47,268.0986 " fill="none" id="Refs-backto-ExistRef" style="stroke:#181818;stroke-width:1.0;"/><polygon fill="#181818" points="68.26,268.0986,74.26,272.0986,80.26,268.0986,74.26,264.0986,68.26,268.0986" style="stroke:#181818;stroke-width:1.0;"/></g><!--reverse link Exist to RefFactory--><g id="link_Exist_RefFactory"><path codeLine="27" d="M465.5762,354.1072 C465.8362,374.7972 465.89,378.6086 466.1,395.6886 " fill="none" id="Exist-backto-RefFactory" style="stroke:#181818;stroke-width:1.0;"/><polygon fill="none" points="465.35,336.1086,459.5767,354.1826,471.5757,354.0318,465.35,336.1086" style="stroke:#181818;stroke-width:1.0;"/></g><!--reverse link RefFactory to Leaf--><g id="link_RefFactory_Leaf"><path codeLine="28" d="M467.4088,478.4256 C467.7188,495.3956 467.79,499.1086 468.18,519.9686 " fill="none" id="RefFactory-backto-Leaf" style="stroke:#181818;stroke-width:1.0;"/><polygon fill="none" points="467.08,460.4286,461.4098,478.5352,473.4078,478.316,467.08,460.4286" style="stroke:#181818;stroke-width:1.0;"/></g><!--reverse link ExistRef to LeafRef--><g id="link_ExistRef_LeafRef"><path codeLine="29" d="M217.6451,338.1972 C216.8751,399.8272 215.83,484.5786 215.09,544.4086 " fill="none" id="ExistRef-backto-LeafRef" style="stroke:#181818;stroke-width:1.0;"/><polygon fill="none" points="217.87,320.1986,211.6456,338.1223,223.6447,338.2722,217.87,320.1986" style="stroke:#181818;stroke-width:1.0;"/></g><!--SRC=[LL0nRiCm39p3Lp3fuY2n7n04MO9sojG2NWD1eWC1WXn8jDkYxTzBqKXhRyVJyUx4jOys38wGFdpcvZu0iET0U27J0TXWSiPNwbwCvJvzuXUiTcWJ6IPXAxHzPECZfJqEToSiRk7diRSf9dZ45ayRD5az9mVZdAudwl2WV2EpxFwvd_iuKc9A5Ih_LAB6BEetOl6STJh1gccAOZHX856qnIOJL__CP7qJRgk2PKSDN_OiZ5PTcdBoyIRJ1ARW7LuZlLzLMA50GNXezzW7fr3Z9V6vt1YFttKzgm-pd-YJNbwbsage-j48VW40]--></g></svg>