<?xml version="1.0" encoding="us-ascii" standalone="no"?><svg xmlns="http://www.w3.org/2000/svg" xmlns:xlink="http://www.w3.org/1999/xlink" contentStyleType="text/css" height="655px" preserveAspectRatio="none" style="width:772px;height:655px;background:#FFFFFF;" version="1.1" viewBox="0 0 772 655" width="772px" zoomAndPan="magnify"><defs/><g><text fill="#000000" font-family="arial" font-size="14" font-weight="bold" lengthAdjust="spacing" textLength="29" x="364.75" y="23.3608">Lian</text><!--class RootExist--><g id="elem_RootExist"><rect codeLine="6" fill="#F1F1F1" height="96.2959" id="RootExist" rx="2.5" ry="2.5" style="stroke:#181818;stroke-width:0.5;" width="172" x="372" y="44.0986"/><ellipse cx="424.25" cy="60.0986" fill="#ADD1B2" rx="11" ry="11" style="stroke:#181818;stroke-width:1.0;"/><path d="M426.9531,65.5361 Q426.0313,66.458 423.7656,66.458 Q422.5,66.458 421.5781,65.5361 Q419.9219,63.8799 419.9219,60.3486 Q419.9219,56.2393 421.7031,54.4424 Q422.6406,53.5205 423.8281,53.5205 Q426.0938,53.5205 426.8281,54.2393 Q428.2188,55.6455 428.1563,58.0361 L425.6875,58.0361 Q425.625,55.9111 424.8906,55.1768 Q424.5,54.7705 423.8281,54.7705 Q423.8281,54.7705 423.7656,55.2393 Q422.4375,56.5674 422.4375,60.2236 Q422.4375,63.4111 423.5781,64.5361 Q424.1094,65.0674 424.1094,65.0674 Q424.3594,65.0674 424.8906,64.5361 Q425.5625,63.8799 425.625,61.4893 L428.2188,61.4893 Q428.0156,64.4736 426.9531,65.5361 Z " fill="#000000"/><text fill="#000000" font-family="arial" font-size="14" lengthAdjust="spacing" textLength="59" x="444.75" y="65.4102">RootExist</text><line style="stroke:#181818;stroke-width:0.5;" x1="373" x2="543" y1="76.0986" y2="76.0986"/><ellipse cx="383" cy="89.6479" fill="none" rx="3" ry="3" style="stroke:#038048;stroke-width:1.0;"/><text fill="#000000" font-family="arial" font-size="14" lengthAdjust="spacing" textLength="146" x="392" y="93.4595">[ _parts ] : Set &lt; Exist &gt;</text><line style="stroke:#181818;stroke-width:1.0;stroke-dasharray:1.0,2.0;" x1="373" x2="543" y1="100.1973" y2="100.1973"/><ellipse cx="383" cy="113.7466" fill="#84BE84" rx="3" ry="3" style="stroke:#038048;stroke-width:1.0;"/><text fill="#000000" font-family="arial" font-size="14" lengthAdjust="spacing" textLength="69" x="392" y="117.5581">terminate()</text><text fill="#000000" font-family="arial" font-size="14" lengthAdjust="spacing" textLength="4" x="392" y="133.6567">&#160;</text></g><!--class Exist--><g id="elem_Exist"><rect codeLine="13" fill="#F1F1F1" height="136.4932" id="Exist" rx="2.5" ry="2.5" style="stroke:#181818;stroke-width:0.5;" width="174" x="371" y="200.0986"/><ellipse cx="439.25" cy="216.0986" fill="#ADD1B2" rx="11" ry="11" style="stroke:#181818;stroke-width:1.0;"/><path d="M441.9531,221.5361 Q441.0313,222.458 438.7656,222.458 Q437.5,222.458 436.5781,221.5361 Q434.9219,219.8799 434.9219,216.3486 Q434.9219,212.2393 436.7031,210.4424 Q437.6406,209.5205 438.8281,209.5205 Q441.0938,209.5205 441.8281,210.2393 Q443.2188,211.6455 443.1563,214.0361 L440.6875,214.0361 Q440.625,211.9111 439.8906,211.1768 Q439.5,210.7705 438.8281,210.7705 Q438.8281,210.7705 438.7656,211.2393 Q437.4375,212.5674 437.4375,216.2236 Q437.4375,219.4111 438.5781,220.5361 Q439.1094,221.0674 439.1094,221.0674 Q439.3594,221.0674 439.8906,220.5361 Q440.5625,219.8799 440.625,217.4893 L443.2188,217.4893 Q443.0156,220.4736 441.9531,221.5361 Z " fill="#000000"/><text fill="#000000" font-family="arial" font-size="14" lengthAdjust="spacing" textLength="29" x="459.75" y="221.4102">Exist</text><line style="stroke:#181818;stroke-width:0.5;" x1="372" x2="544" y1="232.0986" y2="232.0986"/><ellipse cx="382" cy="245.6479" fill="none" rx="3" ry="3" style="stroke:#038048;stroke-width:1.0;"/><text fill="#000000" font-family="arial" font-size="14" lengthAdjust="spacing" textLength="133" x="391" y="249.4595">container : Container</text><line style="stroke:#181818;stroke-width:1.0;stroke-dasharray:1.0,2.0;" x1="372" x2="544" y1="256.1973" y2="256.1973"/><rect fill="none" height="6" style="stroke:#C82930;stroke-width:1.0;" width="6" x="379" y="266.7466"/><text fill="#000000" font-family="arial" font-size="14" lengthAdjust="spacing" textLength="103" x="391" y="273.5581">refs : Set&lt; Ref &gt;</text><ellipse cx="382" cy="285.8452" fill="#84BE84" rx="3" ry="3" style="stroke:#038048;stroke-width:1.0;"/><text fill="#000000" font-family="arial" font-size="14" lengthAdjust="spacing" textLength="148" x="391" y="289.6567">addRef( ref : Exist.Ref )</text><ellipse cx="382" cy="301.9438" fill="#84BE84" rx="3" ry="3" style="stroke:#038048;stroke-width:1.0;"/><text fill="#000000" font-family="arial" font-size="14" lengthAdjust="spacing" textLength="104" x="391" y="305.7554">removeRef( ref )</text><line style="stroke:#181818;stroke-width:1.0;stroke-dasharray:1.0,2.0;" x1="372" x2="544" y1="312.4932" y2="312.4932"/><ellipse cx="382" cy="326.0425" fill="#84BE84" rx="3" ry="3" style="stroke:#038048;stroke-width:1.0;"/><text fill="#000000" font-family="arial" font-size="14" lengthAdjust="spacing" textLength="69" x="391" y="329.854">terminate()</text></g><!--class ExistRef--><g id="elem_ExistRef"><rect codeLine="23" fill="#F1F1F1" height="104.2959" id="ExistRef" rx="2.5" ry="2.5" style="stroke:#181818;stroke-width:0.5;" width="230" x="9" y="216.0986"/><ellipse cx="92.25" cy="232.0986" fill="#ADD1B2" rx="11" ry="11" style="stroke:#181818;stroke-width:1.0;"/><path d="M94.9531,237.5361 Q94.0313,238.458 91.7656,238.458 Q90.5,238.458 89.5781,237.5361 Q87.9219,235.8799 87.9219,232.3486 Q87.9219,228.2393 89.7031,226.4424 Q90.6406,225.5205 91.8281,225.5205 Q94.0938,225.5205 94.8281,226.2393 Q96.2188,227.6455 96.1563,230.0361 L93.6875,230.0361 Q93.625,227.9111 92.8906,227.1768 Q92.5,226.7705 91.8281,226.7705 Q91.8281,226.7705 91.7656,227.2393 Q90.4375,228.5674 90.4375,232.2236 Q90.4375,235.4111 91.5781,236.5361 Q92.1094,237.0674 92.1094,237.0674 Q92.3594,237.0674 92.8906,236.5361 Q93.5625,235.8799 93.625,233.4893 L96.2188,233.4893 Q96.0156,236.4736 94.9531,237.5361 Z " fill="#000000"/><text fill="#000000" font-family="arial" font-size="14" lengthAdjust="spacing" textLength="55" x="112.75" y="237.4102">Exist.Ref</text><line style="stroke:#181818;stroke-width:0.5;" x1="10" x2="238" y1="248.0986" y2="248.0986"/><ellipse cx="20" cy="261.6479" fill="none" rx="3" ry="3" style="stroke:#038048;stroke-width:1.0;"/><text fill="#000000" font-family="arial" font-size="14" lengthAdjust="spacing" textLength="84" x="29" y="265.4595">source : Exist</text><line style="stroke:#181818;stroke-width:1.0;stroke-dasharray:1.0,2.0;" x1="10" x2="238" y1="272.1973" y2="272.1973"/><polygon fill="#FFFF44" points="20,280.7466,24,284.7466,20,288.7466,16,284.7466" style="stroke:#B38D22;stroke-width:1.0;"/><text fill="#000000" font-family="arial" font-size="14" lengthAdjust="spacing" textLength="116" x="29" y="289.5581">_update : ()=&gt;void</text><line style="stroke:#181818;stroke-width:1.0;stroke-dasharray:1.0,2.0;" x1="10" x2="238" y1="296.2959" y2="296.2959"/><ellipse cx="20" cy="309.8452" fill="#84BE84" rx="3" ry="3" style="stroke:#038048;stroke-width:1.0;"/><text fill="#000000" font-family="arial" font-size="14" lengthAdjust="spacing" textLength="204" x="29" y="313.6567"># _new_source( newsrc, oldsrc )</text></g><!--class Set--><g id="elem_Set"><rect fill="#F1F1F1" height="48" id="Set" rx="2.5" ry="2.5" style="stroke:#181818;stroke-width:0.5;" width="53" x="278.5" y="68.0986"/><ellipse cx="293.5" cy="84.0986" fill="#ADD1B2" rx="11" ry="11" style="stroke:#181818;stroke-width:1.0;"/><path d="M296.2031,89.5361 Q295.2813,90.458 293.0156,90.458 Q291.75,90.458 290.8281,89.5361 Q289.1719,87.8799 289.1719,84.3486 Q289.1719,80.2393 290.9531,78.4424 Q291.8906,77.5205 293.0781,77.5205 Q295.3438,77.5205 296.0781,78.2393 Q297.4688,79.6455 297.4063,82.0361 L294.9375,82.0361 Q294.875,79.9111 294.1406,79.1768 Q293.75,78.7705 293.0781,78.7705 Q293.0781,78.7705 293.0156,79.2393 Q291.6875,80.5674 291.6875,84.2236 Q291.6875,87.4111 292.8281,88.5361 Q293.3594,89.0674 293.3594,89.0674 Q293.6094,89.0674 294.1406,88.5361 Q294.8125,87.8799 294.875,85.4893 L297.4688,85.4893 Q297.2656,88.4736 296.2031,89.5361 Z " fill="#000000"/><text fill="#000000" font-family="arial" font-size="14" lengthAdjust="spacing" textLength="21" x="307.5" y="89.4102">Set</text><line style="stroke:#181818;stroke-width:0.5;" x1="279.5" x2="330.5" y1="100.0986" y2="100.0986"/><line style="stroke:#181818;stroke-width:0.5;" x1="279.5" x2="330.5" y1="108.0986" y2="108.0986"/></g><!--class Refs--><g id="elem_Refs"><rect fill="#F1F1F1" height="48" id="Refs" rx="2.5" ry="2.5" style="stroke:#181818;stroke-width:0.5;" width="61" x="274.5" y="244.0986"/><ellipse cx="289.5" cy="260.0986" fill="#ADD1B2" rx="11" ry="11" style="stroke:#181818;stroke-width:1.0;"/><path d="M292.2031,265.5361 Q291.2813,266.458 289.0156,266.458 Q287.75,266.458 286.8281,265.5361 Q285.1719,263.8799 285.1719,260.3486 Q285.1719,256.2393 286.9531,254.4424 Q287.8906,253.5205 289.0781,253.5205 Q291.3438,253.5205 292.0781,254.2393 Q293.4688,255.6455 293.4063,258.0361 L290.9375,258.0361 Q290.875,255.9111 290.1406,255.1768 Q289.75,254.7705 289.0781,254.7705 Q289.0781,254.7705 289.0156,255.2393 Q287.6875,256.5674 287.6875,260.2236 Q287.6875,263.4111 288.8281,264.5361 Q289.3594,265.0674 289.3594,265.0674 Q289.6094,265.0674 290.1406,264.5361 Q290.8125,263.8799 290.875,261.4893 L293.4688,261.4893 Q293.2656,264.4736 292.2031,265.5361 Z " fill="#000000"/><text fill="#000000" font-family="arial" font-size="14" lengthAdjust="spacing" textLength="29" x="303.5" y="265.4102">Refs</text><line style="stroke:#181818;stroke-width:0.5;" x1="275.5" x2="334.5" y1="276.0986" y2="276.0986"/><line style="stroke:#181818;stroke-width:0.5;" x1="275.5" x2="334.5" y1="284.0986" y2="284.0986"/></g><!--class Lian--><g id="elem_Lian"><rect codeLine="6" fill="#F1F1F1" height="96.2959" id="Lian" rx="2.5" ry="2.5" style="stroke:#181818;stroke-width:0.5;" width="218" x="349" y="396.0986"/><ellipse cx="431.25" cy="412.0986" fill="#ADD1B2" rx="11" ry="11" style="stroke:#181818;stroke-width:1.0;"/><path d="M433.9531,417.5361 Q433.0313,418.458 430.7656,418.458 Q429.5,418.458 428.5781,417.5361 Q426.9219,415.8799 426.9219,412.3486 Q426.9219,408.2393 428.7031,406.4424 Q429.6406,405.5205 430.8281,405.5205 Q433.0938,405.5205 433.8281,406.2393 Q435.2188,407.6455 435.1563,410.0361 L432.6875,410.0361 Q432.625,407.9111 431.8906,407.1768 Q431.5,406.7705 430.8281,406.7705 Q430.8281,406.7705 430.7656,407.2393 Q429.4375,408.5674 429.4375,412.2236 Q429.4375,415.4111 430.5781,416.5361 Q431.1094,417.0674 431.1094,417.0674 Q431.3594,417.0674 431.8906,416.5361 Q432.5625,415.8799 432.625,413.4893 L435.2188,413.4893 Q435.0156,416.4736 433.9531,417.5361 Z " fill="#000000"/><text fill="#000000" font-family="arial" font-size="14" lengthAdjust="spacing" textLength="27" x="451.75" y="417.4102">Lian</text><rect fill="#FFFFFF" height="15.7988" style="stroke:#181818;stroke-width:1.0;stroke-dasharray:2.0,2.0;" width="16" x="554" y="393.0986"/><text fill="#000000" font-family="arial" font-size="12" font-style="italic" lengthAdjust="spacing" textLength="8" x="558" y="405.5508">V</text><line style="stroke:#181818;stroke-width:0.5;" x1="350" x2="566" y1="428.0986" y2="428.0986"/><polygon fill="none" points="360,436.6479,364,440.6479,360,444.6479,356,440.6479" style="stroke:#B38D22;stroke-width:1.0;"/><text fill="#000000" font-family="arial" font-size="14" lengthAdjust="spacing" textLength="139" x="369" y="445.4595">orders : Order &lt; V &gt; []</text><line style="stroke:#181818;stroke-width:1.0;stroke-dasharray:1.0,2.0;" x1="350" x2="566" y1="452.1973" y2="452.1973"/><ellipse cx="360" cy="465.7466" fill="#84BE84" rx="3" ry="3" style="stroke:#038048;stroke-width:1.0;"/><text fill="#000000" font-family="arial" font-size="14" lengthAdjust="spacing" textLength="160" x="369" y="469.5581">add( values : V[], start ? )</text><ellipse cx="360" cy="481.8452" fill="#84BE84" rx="3" ry="3" style="stroke:#038048;stroke-width:1.0;"/><text fill="#000000" font-family="arial" font-size="14" lengthAdjust="spacing" textLength="192" x="369" y="485.6567">remove( start | items, count ? )</text></g><!--class LianRef--><g id="elem_LianRef"><rect codeLine="13" fill="#F1F1F1" height="96.2959" id="LianRef" rx="2.5" ry="2.5" style="stroke:#181818;stroke-width:0.5;" width="140" x="54" y="552.0986"/><ellipse cx="95.55" cy="568.0986" fill="#ADD1B2" rx="11" ry="11" style="stroke:#181818;stroke-width:1.0;"/><path d="M98.2531,573.5361 Q97.3313,574.458 95.0656,574.458 Q93.8,574.458 92.8781,573.5361 Q91.2219,571.8799 91.2219,568.3486 Q91.2219,564.2393 93.0031,562.4424 Q93.9406,561.5205 95.1281,561.5205 Q97.3938,561.5205 98.1281,562.2393 Q99.5188,563.6455 99.4563,566.0361 L96.9875,566.0361 Q96.925,563.9111 96.1906,563.1768 Q95.8,562.7705 95.1281,562.7705 Q95.1281,562.7705 95.0656,563.2393 Q93.7375,564.5674 93.7375,568.2236 Q93.7375,571.4111 94.8781,572.5361 Q95.4094,573.0674 95.4094,573.0674 Q95.6594,573.0674 96.1906,572.5361 Q96.8625,571.8799 96.925,569.4893 L99.5188,569.4893 Q99.3156,572.4736 98.2531,573.5361 Z " fill="#000000"/><text fill="#000000" font-family="arial" font-size="14" lengthAdjust="spacing" textLength="49" x="115.45" y="573.4102">LianRef</text><line style="stroke:#181818;stroke-width:0.5;" x1="55" x2="193" y1="584.0986" y2="584.0986"/><line style="stroke:#181818;stroke-width:0.5;" x1="55" x2="193" y1="592.0986" y2="592.0986"/><ellipse cx="65" cy="605.6479" fill="#84BE84" rx="3" ry="3" style="stroke:#038048;stroke-width:1.0;"/><text fill="#000000" font-family="arial" font-size="14" lengthAdjust="spacing" textLength="87" x="74" y="609.4595">_add( range )</text><ellipse cx="65" cy="621.7466" fill="#84BE84" rx="3" ry="3" style="stroke:#038048;stroke-width:1.0;"/><text fill="#000000" font-family="arial" font-size="14" lengthAdjust="spacing" textLength="110" x="74" y="625.5581">_remove( range )</text><ellipse cx="65" cy="637.8452" fill="#84BE84" rx="3" ry="3" style="stroke:#038048;stroke-width:1.0;"/><text fill="#000000" font-family="arial" font-size="14" lengthAdjust="spacing" textLength="114" x="74" y="641.6567">_move( src, dest )</text></g><!--class Order--><g id="elem_Order"><rect codeLine="19" fill="#F1F1F1" height="64.0986" id="Order" rx="2.5" ry="2.5" style="stroke:#181818;stroke-width:0.5;" width="87" x="602.5" y="412.0986"/><ellipse cx="617.5" cy="428.0986" fill="#ADD1B2" rx="11" ry="11" style="stroke:#181818;stroke-width:1.0;"/><path d="M620.2031,433.5361 Q619.2813,434.458 617.0156,434.458 Q615.75,434.458 614.8281,433.5361 Q613.1719,431.8799 613.1719,428.3486 Q613.1719,424.2393 614.9531,422.4424 Q615.8906,421.5205 617.0781,421.5205 Q619.3438,421.5205 620.0781,422.2393 Q621.4688,423.6455 621.4063,426.0361 L618.9375,426.0361 Q618.875,423.9111 618.1406,423.1768 Q617.75,422.7705 617.0781,422.7705 Q617.0781,422.7705 617.0156,423.2393 Q615.6875,424.5674 615.6875,428.2236 Q615.6875,431.4111 616.8281,432.5361 Q617.3594,433.0674 617.3594,433.0674 Q617.6094,433.0674 618.1406,432.5361 Q618.8125,431.8799 618.875,429.4893 L621.4688,429.4893 Q621.2656,432.4736 620.2031,433.5361 Z " fill="#000000"/><text fill="#000000" font-family="arial" font-size="14" lengthAdjust="spacing" textLength="37" x="631.5" y="433.4102">Order</text><rect fill="#FFFFFF" height="15.7988" style="stroke:#181818;stroke-width:1.0;stroke-dasharray:2.0,2.0;" width="16" x="676.5" y="409.0986"/><text fill="#000000" font-family="arial" font-size="12" font-style="italic" lengthAdjust="spacing" textLength="8" x="680.5" y="421.5508">V</text><line style="stroke:#181818;stroke-width:0.5;" x1="603.5" x2="688.5" y1="444.0986" y2="444.0986"/><text fill="#000000" font-family="arial" font-size="14" lengthAdjust="spacing" textLength="64" x="608.5" y="461.4595">source : V</text><line style="stroke:#181818;stroke-width:0.5;" x1="603.5" x2="688.5" y1="468.1973" y2="468.1973"/></g><!--class Leaf--><g id="elem_Leaf"><rect fill="#F1F1F1" height="48" id="Leaf" rx="2.5" ry="2.5" style="stroke:#181818;stroke-width:0.5;" width="60" x="616" y="244.0986"/><ellipse cx="631" cy="260.0986" fill="#ADD1B2" rx="11" ry="11" style="stroke:#181818;stroke-width:1.0;"/><path d="M633.7031,265.5361 Q632.7813,266.458 630.5156,266.458 Q629.25,266.458 628.3281,265.5361 Q626.6719,263.8799 626.6719,260.3486 Q626.6719,256.2393 628.4531,254.4424 Q629.3906,253.5205 630.5781,253.5205 Q632.8438,253.5205 633.5781,254.2393 Q634.9688,255.6455 634.9063,258.0361 L632.4375,258.0361 Q632.375,255.9111 631.6406,255.1768 Q631.25,254.7705 630.5781,254.7705 Q630.5781,254.7705 630.5156,255.2393 Q629.1875,256.5674 629.1875,260.2236 Q629.1875,263.4111 630.3281,264.5361 Q630.8594,265.0674 630.8594,265.0674 Q631.1094,265.0674 631.6406,264.5361 Q632.3125,263.8799 632.375,261.4893 L634.9688,261.4893 Q634.7656,264.4736 633.7031,265.5361 Z " fill="#000000"/><text fill="#000000" font-family="arial" font-size="14" lengthAdjust="spacing" textLength="28" x="645" y="265.4102">Leaf</text><line style="stroke:#181818;stroke-width:0.5;" x1="617" x2="675" y1="276.0986" y2="276.0986"/><line style="stroke:#181818;stroke-width:0.5;" x1="617" x2="675" y1="284.0986" y2="284.0986"/></g><!--class V--><g id="elem_V"><rect fill="#F1F1F1" height="48" id="V" rx="2.5" ry="2.5" style="stroke:#181818;stroke-width:0.5;" width="41" x="724.5" y="420.0986"/><ellipse cx="739.5" cy="436.0986" fill="#ADD1B2" rx="11" ry="11" style="stroke:#181818;stroke-width:1.0;"/><path d="M742.2031,441.5361 Q741.2813,442.458 739.0156,442.458 Q737.75,442.458 736.8281,441.5361 Q735.1719,439.8799 735.1719,436.3486 Q735.1719,432.2393 736.9531,430.4424 Q737.8906,429.5205 739.0781,429.5205 Q741.3438,429.5205 742.0781,430.2393 Q743.4688,431.6455 743.4063,434.0361 L740.9375,434.0361 Q740.875,431.9111 740.1406,431.1768 Q739.75,430.7705 739.0781,430.7705 Q739.0781,430.7705 739.0156,431.2393 Q737.6875,432.5674 737.6875,436.2236 Q737.6875,439.4111 738.8281,440.5361 Q739.3594,441.0674 739.3594,441.0674 Q739.6094,441.0674 740.1406,440.5361 Q740.8125,439.8799 740.875,437.4893 L743.4688,437.4893 Q743.2656,440.4736 742.2031,441.5361 Z " fill="#000000"/><text fill="#000000" font-family="arial" font-size="14" lengthAdjust="spacing" textLength="9" x="753.5" y="441.4102">V</text><line style="stroke:#181818;stroke-width:0.5;" x1="725.5" x2="764.5" y1="452.0986" y2="452.0986"/><line style="stroke:#181818;stroke-width:0.5;" x1="725.5" x2="764.5" y1="460.0986" y2="460.0986"/></g><!--reverse link RootExist to Exist--><g id="link_RootExist_Exist"><path codeLine="31" d="M458,158.1886 C458,176.6086 458,180.0686 458,200.0486 " fill="none" id="RootExist-backto-Exist" style="stroke:#181818;stroke-width:1.0;"/><polygon fill="none" points="458,140.1886,452,158.1886,464,158.1886,458,140.1886" style="stroke:#181818;stroke-width:1.0;"/></g><!--link ExistRef to Exist--><g id="link_ExistRef_Exist"><path codeLine="32" d="M195.9666,209.0604 C221.6366,190.7904 242.97,179.4586 274.5,170.0986 C300.49,162.3786 309.92,161.1286 335.5,170.0986 C354.52,176.7686 363.1849,180.5621 379.5349,192.8421 " fill="none" id="ExistRef-Exist" style="stroke:#181818;stroke-width:1.0;"/><polygon fill="none" points="186.19,216.0186,193.3977,215.7984,195.9666,209.0604,188.7589,209.2806,186.19,216.0186" style="stroke:#181818;stroke-width:1.0;"/><polygon fill="none" points="389.13,200.0486,386.7347,193.247,379.5349,192.8421,381.9303,199.6437,389.13,200.0486" style="stroke:#181818;stroke-width:1.0;"/></g><!--reverse link Set to Refs--><g id="link_Set_Refs"><path codeLine="34" d="M305,134.2086 C305,167.4886 305,210.5686 305,243.8986 " fill="none" id="Set-backto-Refs" style="stroke:#181818;stroke-width:1.0;"/><polygon fill="none" points="305,116.2086,299,134.2086,311,134.2086,305,116.2086" style="stroke:#181818;stroke-width:1.0;"/></g><!--reverse link Refs to ExistRef--><g id="link_Refs_ExistRef"><path codeLine="35" d="M262.43,268.0986 C250.71,268.0986 250.98,268.0986 239.25,268.0986 " fill="none" id="Refs-backto-ExistRef" style="stroke:#181818;stroke-width:1.0;"/><polygon fill="#181818" points="274.43,268.0986,268.43,264.0986,262.43,268.0986,268.43,272.0986,274.43,268.0986" style="stroke:#181818;stroke-width:1.0;"/></g><!--reverse link Exist to Lian--><g id="link_Exist_Lian"><path codeLine="24" d="M458,354.3686 C458,374.2586 458,377.6086 458,395.9386 " fill="none" id="Exist-backto-Lian" style="stroke:#181818;stroke-width:1.0;"/><polygon fill="none" points="458,336.3686,452,354.3686,464,354.3686,458,336.3686" style="stroke:#181818;stroke-width:1.0;"/></g><!--reverse link ExistRef to LianRef--><g id="link_ExistRef_LianRef"><path codeLine="25" d="M124,338.2986 C124,401.6586 124,490.6786 124,552.0586 " fill="none" id="ExistRef-backto-LianRef" style="stroke:#181818;stroke-width:1.0;"/><polygon fill="none" points="124,320.2986,118,338.2986,130,338.2986,124,320.2986" style="stroke:#181818;stroke-width:1.0;"/></g><!--reverse link Lian to Order--><g id="link_Lian_Order"><path codeLine="27" d="M579.05,444.0986 C590.77,444.0986 590.49,444.0986 602.21,444.0986 " fill="none" id="Lian-backto-Order" style="stroke:#181818;stroke-width:1.0;"/><polygon fill="#181818" points="567.05,444.0986,573.05,448.0986,579.05,444.0986,573.05,440.0986,567.05,444.0986" style="stroke:#181818;stroke-width:1.0;"/></g><!--reverse link Leaf to Order--><g id="link_Leaf_Order"><path codeLine="28" d="M646,310.2086 C646,340.9886 646,377.5586 646,411.9486 " fill="none" id="Leaf-backto-Order" style="stroke:#181818;stroke-width:1.0;"/><polygon fill="none" points="646,292.2086,640,310.2086,652,310.2086,646,292.2086" style="stroke:#181818;stroke-width:1.0;"/></g><!--reverse link Order to V--><g id="link_Order_V"><path codeLine="29" d="M701.7,444.0986 C713.22,444.0986 712.74,444.0986 724.26,444.0986 " fill="none" id="Order-backto-V" style="stroke:#181818;stroke-width:1.0;"/><polygon fill="none" points="689.7,444.0986,695.7,448.0986,701.7,444.0986,695.7,440.0986,689.7,444.0986" style="stroke:#181818;stroke-width:1.0;"/></g><!--SRC=[JP3DYW8n48JFqqzHiXTT9_C0Y-XfRuBWmOk8XAILm3YH_8YWlhlsP8IvzK_nLNLFN6VQR1byTp4rrqoKN6ePQwSx8jFg6FiQ2-omn8Eg7_XWEKJyOIF5iDaVg6eQgkRGravnqsrcqUpsXnenwP2mmapsWI_-njDX-8HBV8arZCzTqRp6nbi-YUiSnvuRT7VcmZb-GUFPW0wcXkMOnhHnsWyn-XmCIqAHqByy08kdKkNslXTp6Qbl5AB-6R-gq6ZDkYY6ldXuzO6-0G00]--></g></svg>