<?xml version="1.0" encoding="us-ascii" standalone="no"?><svg xmlns="http://www.w3.org/2000/svg" xmlns:xlink="http://www.w3.org/1999/xlink" contentStyleType="text/css" height="705px" preserveAspectRatio="none" style="width:737px;height:705px;background:#FFFFFF;" version="1.1" viewBox="0 0 737 705" width="737px" zoomAndPan="magnify"><defs/><g><!--cluster Data--><g id="cluster_Data"><rect fill="none" height="383" rx="2.5" ry="2.5" style="stroke:#181818;stroke-width:1.0;" width="136" x="7" y="100"/><text fill="#000000" font-family="arial" font-size="14" font-weight="bold" lengthAdjust="spacing" textLength="31" x="59.5" y="115.3608">Data</text></g><!--cluster Model--><g id="cluster_Model"><rect fill="none" height="391" rx="2.5" ry="2.5" style="stroke:#181818;stroke-width:1.0;" width="220" x="167" y="100"/><text fill="#000000" font-family="arial" font-size="14" font-weight="bold" lengthAdjust="spacing" textLength="44" x="255" y="115.3608">Model</text></g><!--cluster ViewModel--><g id="cluster_ViewModel"><rect fill="none" height="623" rx="2.5" ry="2.5" style="stroke:#181818;stroke-width:1.0;" width="292" x="411" y="76"/><text fill="#000000" font-family="arial" font-size="14" font-weight="bold" lengthAdjust="spacing" textLength="77" x="518.5" y="91.3608">ViewModel</text></g><g id="elem_AppData"><rect fill="#F1F1F1" height="44.1973" style="stroke:#181818;stroke-width:0.5;" width="103" x="23.5" y="135"/><text fill="#000000" font-family="arial" font-size="14" lengthAdjust="spacing" textLength="55" x="47.5" y="150.3608">AppData</text><line style="stroke:#181818;stroke-width:0.5;" x1="24.5" x2="125.5" y1="155.0986" y2="155.0986"/><text fill="#000000" font-family="arial" font-size="14" lengthAdjust="spacing" textLength="91" x="29.5" y="172.4595">colors : Colors</text></g><g id="elem_ColorsData"><rect fill="#F1F1F1" height="36.0986" style="stroke:#181818;stroke-width:0.5;" width="85" x="32.5" y="275"/><text fill="#000000" font-family="arial" font-size="14" lengthAdjust="spacing" textLength="71" x="39.5" y="290.3608">ColorsData</text><line style="stroke:#181818;stroke-width:0.5;" x1="33.5" x2="116.5" y1="295.0986" y2="295.0986"/></g><g id="elem_ColorData"><rect fill="#F1F1F1" height="76.3945" style="stroke:#181818;stroke-width:0.5;" width="98" x="26" y="391"/><text fill="#000000" font-family="arial" font-size="14" lengthAdjust="spacing" textLength="64" x="43" y="406.3608">ColorData</text><line style="stroke:#181818;stroke-width:0.5;" x1="27" x2="123" y1="411.0986" y2="411.0986"/><text fill="#000000" font-family="arial" font-size="14" lengthAdjust="spacing" textLength="84" x="32" y="428.4595">hue : number</text><text fill="#000000" font-family="arial" font-size="14" lengthAdjust="spacing" textLength="79" x="32" y="444.5581">sat : number</text><text fill="#000000" font-family="arial" font-size="14" lengthAdjust="spacing" textLength="86" x="32" y="460.6567">light : number</text></g><g id="elem_AppModel"><rect fill="#F1F1F1" height="44.1973" style="stroke:#181818;stroke-width:0.5;" width="103" x="225.5" y="135"/><text fill="#000000" font-family="arial" font-size="14" lengthAdjust="spacing" textLength="63" x="245.5" y="150.3608">AppModel</text><line style="stroke:#181818;stroke-width:0.5;" x1="226.5" x2="327.5" y1="155.0986" y2="155.0986"/><text fill="#000000" font-family="arial" font-size="14" lengthAdjust="spacing" textLength="91" x="231.5" y="172.4595">colors : Colors</text></g><g id="elem_ColorsModel"><rect fill="#F1F1F1" height="60.2959" style="stroke:#181818;stroke-width:0.5;" width="187" x="183.5" y="263"/><text fill="#000000" font-family="arial" font-size="14" lengthAdjust="spacing" textLength="79" x="237.5" y="278.3608">ColorsModel</text><line style="stroke:#181818;stroke-width:0.5;" x1="184.5" x2="369.5" y1="283.0986" y2="283.0986"/><text fill="#000000" font-family="arial" font-size="14" lengthAdjust="spacing" textLength="152" x="189.5" y="300.4595">add( item : ColorModel )</text><text fill="#000000" font-family="arial" font-size="14" lengthAdjust="spacing" textLength="175" x="189.5" y="316.5581">remove( item : ColorModel )</text></g><g id="elem_ColorModel"><rect fill="#F1F1F1" height="92.4932" style="stroke:#181818;stroke-width:0.5;" width="154" x="208" y="383"/><text fill="#000000" font-family="arial" font-size="14" lengthAdjust="spacing" textLength="72" x="249" y="398.3608">ColorModel</text><line style="stroke:#181818;stroke-width:0.5;" x1="209" x2="361" y1="403.0986" y2="403.0986"/><text fill="#000000" font-family="arial" font-size="14" lengthAdjust="spacing" textLength="140" x="214" y="420.4595">hue : Leaf &lt; number &gt;</text><text fill="#000000" font-family="arial" font-size="14" lengthAdjust="spacing" textLength="135" x="214" y="436.5581">sat : Leaf &lt; number &gt;</text><text fill="#000000" font-family="arial" font-size="14" lengthAdjust="spacing" textLength="142" x="214" y="452.6567">light : Leaf &lt; number &gt;</text><text fill="#000000" font-family="arial" font-size="14" lengthAdjust="spacing" textLength="139" x="214" y="468.7554">"css" : Leafr &lt; string &gt;</text></g><g id="elem_AppVM"><rect fill="#F1F1F1" height="92.4932" style="stroke:#181818;stroke-width:0.5;" width="62" x="579" y="111"/><text fill="#000000" font-family="arial" font-size="14" lengthAdjust="spacing" textLength="45" x="587.5" y="126.3608">AppVM</text><line style="stroke:#181818;stroke-width:0.5;" x1="580" x2="640" y1="131.0986" y2="131.0986"/><text fill="#000000" font-family="arial" font-size="14" lengthAdjust="spacing" textLength="17" x="585" y="148.4595">list</text><text fill="#000000" font-family="arial" font-size="14" lengthAdjust="spacing" textLength="50" x="585" y="164.5581">selector</text><text fill="#000000" font-family="arial" font-size="14" lengthAdjust="spacing" textLength="44" x="585" y="180.6567">display</text><text fill="#000000" font-family="arial" font-size="14" lengthAdjust="spacing" textLength="36" x="585" y="196.7554">editor</text></g><g id="elem_ColorListVM"><rect fill="#F1F1F1" height="44.1973" style="stroke:#181818;stroke-width:0.5;" width="146" x="428" y="271"/><text fill="#000000" font-family="arial" font-size="14" lengthAdjust="spacing" textLength="76" x="463" y="286.3608">ColorListVM</text><line style="stroke:#181818;stroke-width:0.5;" x1="429" x2="573" y1="291.0986" y2="291.0986"/><text fill="#000000" font-family="arial" font-size="14" lengthAdjust="spacing" textLength="134" x="434" y="308.4595">source : ColorsModel</text></g><g id="elem_ColorSelectorVM"><rect fill="#F1F1F1" height="44.1973" style="stroke:#181818;stroke-width:0.5;" width="186" x="427" y="407"/><text fill="#000000" font-family="arial" font-size="14" lengthAdjust="spacing" textLength="106" x="467" y="422.3608">ColorSelectorVM</text><line style="stroke:#181818;stroke-width:0.5;" x1="428" x2="612" y1="427.0986" y2="427.0986"/><text fill="#000000" font-family="arial" font-size="14" lengthAdjust="spacing" textLength="174" x="433" y="444.4595">value : Leaf &lt; ColorModel &gt;</text></g><g id="elem_DisplayVM"><rect fill="#F1F1F1" height="44.1973" style="stroke:#181818;stroke-width:0.5;" width="139" x="510.5" y="535"/><text fill="#000000" font-family="arial" font-size="14" lengthAdjust="spacing" textLength="66" x="547" y="550.3608">DisplayVM</text><line style="stroke:#181818;stroke-width:0.5;" x1="511.5" x2="648.5" y1="555.0986" y2="555.0986"/><text fill="#000000" font-family="arial" font-size="14" lengthAdjust="spacing" textLength="127" x="516.5" y="572.4595">source : ColorModel</text></g><g id="elem_ColorEditorVM"><rect fill="#F1F1F1" height="44.1973" style="stroke:#181818;stroke-width:0.5;" width="139" x="487.5" y="639"/><text fill="#000000" font-family="arial" font-size="14" lengthAdjust="spacing" textLength="91" x="511.5" y="654.3608">ColorEditorVM</text><line style="stroke:#181818;stroke-width:0.5;" x1="488.5" x2="625.5" y1="659.0986" y2="659.0986"/><text fill="#000000" font-family="arial" font-size="14" lengthAdjust="spacing" textLength="127" x="493.5" y="676.4595">source : ColorModel</text></g><g id="elem_App"><rect fill="#F1F1F1" height="44.1973" style="stroke:#181818;stroke-width:0.5;" width="82" x="236" y="7"/><text fill="#000000" font-family="arial" font-size="14" lengthAdjust="spacing" textLength="25" x="264.5" y="22.3608">App</text><line style="stroke:#181818;stroke-width:0.5;" x1="237" x2="317" y1="27.0986" y2="27.0986"/><text fill="#000000" font-family="arial" font-size="14" lengthAdjust="spacing" textLength="70" x="242" y="44.4595">data : Data</text></g><!--reverse link AppData to ColorsData--><g id="link_AppData_ColorsData"><path codeLine="19" d="M75,191.23 C75,217.65 75,250.26 75,274.7 " fill="none" id="AppData-backto-ColorsData" style="stroke:#181818;stroke-width:1.0;"/><polygon fill="#181818" points="75,179.23,71,185.23,75,191.23,79,185.23,75,179.23" style="stroke:#181818;stroke-width:1.0;"/></g><!--reverse link ColorsData to ColorData--><g id="link_ColorsData_ColorData"><path codeLine="20" d="M75,323.24 C75,343.25 75,364.81 75,390.83 " fill="none" id="ColorsData-backto-ColorData" style="stroke:#181818;stroke-width:1.0;"/><polygon fill="#181818" points="75,311.24,71,317.24,75,323.24,79,317.24,75,311.24" style="stroke:#181818;stroke-width:1.0;"/><text fill="#000000" font-family="arial" font-size="13" lengthAdjust="spacing" textLength="7" x="66.9281" y="331.5064">1</text><text fill="#000000" font-family="arial" font-size="13" lengthAdjust="spacing" textLength="20" x="53.0313" y="380.3982">0..*</text></g><!--reverse link AppModel to ColorsModel--><g id="link_AppModel_ColorsModel"><path codeLine="42" d="M277,191.23 C277,213.81 277,237.68 277,262.89 " fill="none" id="AppModel-backto-ColorsModel" style="stroke:#181818;stroke-width:1.0;"/><polygon fill="#181818" points="277,179.23,273,185.23,277,191.23,281,185.23,277,179.23" style="stroke:#181818;stroke-width:1.0;"/></g><!--reverse link ColorsModel to ColorModel--><g id="link_ColorsModel_ColorModel"><path codeLine="43" d="M279.4531,335.0588 C280.4931,352.5288 281.13,363.15 282.31,382.9 " fill="none" id="ColorsModel-backto-ColorModel" style="stroke:#181818;stroke-width:1.0;"/><polygon fill="#181818" points="278.74,323.08,275.1036,329.3071,279.4531,335.0588,283.0895,328.8317,278.74,323.08" style="stroke:#181818;stroke-width:1.0;"/><text fill="#000000" font-family="arial" font-size="13" lengthAdjust="spacing" textLength="7" x="271.355" y="343.6691">1</text><text fill="#000000" font-family="arial" font-size="13" lengthAdjust="spacing" textLength="20" x="260.2082" y="372.5495">0..*</text></g><!--reverse link AppVM to ColorListVM--><g id="link_AppVM_ColorListVM"><path codeLine="71" d="M571.1895,205.7107 C551.5695,229.8407 534.55,250.75 518.34,270.68 " fill="none" id="AppVM-backto-ColorListVM" style="stroke:#181818;stroke-width:1.0;"/><polygon fill="#181818" points="578.76,196.4,571.8712,198.5318,571.1895,205.7107,578.0783,203.5788,578.76,196.4" style="stroke:#181818;stroke-width:1.0;"/></g><!--reverse link AppVM to ColorSelectorVM--><g id="link_AppVM_ColorSelectorVM"><path codeLine="72" d="M610.7133,215.1177 C610.0433,249.0777 606.37,284.23 592,323 C580.1,355.13 556.21,386.84 539.22,406.87 " fill="none" id="AppVM-backto-ColorSelectorVM" style="stroke:#181818;stroke-width:1.0;"/><polygon fill="#181818" points="610.95,203.12,606.8324,209.0399,610.7133,215.1177,614.8309,209.1977,610.95,203.12" style="stroke:#181818;stroke-width:1.0;"/></g><!--reverse link AppVM to DisplayVM--><g id="link_AppVM_DisplayVM"><path codeLine="73" d="M627.5215,214.6667 C646.2615,281.6867 669.26,398.85 631,499 C625.79,512.64 615.64,525.09 605.76,534.84 " fill="none" id="AppVM-backto-DisplayVM" style="stroke:#181818;stroke-width:1.0;"/><polygon fill="#181818" points="624.29,203.11,622.0535,209.9655,627.5215,214.6667,629.758,207.8112,624.29,203.11" style="stroke:#181818;stroke-width:1.0;"/></g><!--reverse link AppVM to ColorEditorVM--><g id="link_AppVM_ColorEditorVM"><path codeLine="74" d="M637.244,214.1487 C673.464,294.4487 730.06,454.26 667,579 C653.63,605.46 627.09,625.39 603.43,638.86 " fill="none" id="AppVM-backto-ColorEditorVM" style="stroke:#181818;stroke-width:1.0;"/><polygon fill="#181818" points="632.31,203.21,631.1308,210.324,637.244,214.1487,638.4232,207.0347,632.31,203.21" style="stroke:#181818;stroke-width:1.0;"/></g><!--link ColorsModel to ColorListVM--><g id="link_ColorsModel_ColorListVM"><path codeLine="76" d="M382.62,293 C401.72,293 396.82,293 415.92,293 " fill="none" id="ColorsModel-ColorListVM" style="stroke:#181818;stroke-width:1.0;stroke-dasharray:7.0,7.0;"/><polygon fill="none" points="370.62,293,376.62,297,382.62,293,376.62,289,370.62,293" style="stroke:#181818;stroke-width:1.0;"/><polygon fill="none" points="427.92,293,421.92,289,415.92,293,421.92,297,427.92,293" style="stroke:#181818;stroke-width:1.0;"/></g><!--link ColorModel to ColorSelectorVM--><g id="link_ColorModel_ColorSelectorVM"><path codeLine="77" d="M374.11,429 C395.7,429 393.28,429 414.87,429 " fill="none" id="ColorModel-ColorSelectorVM" style="stroke:#181818;stroke-width:1.0;stroke-dasharray:7.0,7.0;"/><polygon fill="none" points="362.11,429,368.11,433,374.11,429,368.11,425,362.11,429" style="stroke:#181818;stroke-width:1.0;"/><polygon fill="none" points="426.87,429,420.87,425,414.87,429,420.87,433,426.87,429" style="stroke:#181818;stroke-width:1.0;"/></g><!--reverse link ColorListVM to ColorSelectorVM--><g id="link_ColorListVM_ColorSelectorVM"><path codeLine="79" d="M505.6958,327.111 C509.2558,352.201 513.45,381.82 517,406.87 " fill="none" id="ColorListVM-backto-ColorSelectorVM" style="stroke:#181818;stroke-width:1.0;"/><polygon fill="#181818" points="504.01,315.23,500.8926,321.7324,505.6958,327.111,508.8132,320.6086,504.01,315.23" style="stroke:#181818;stroke-width:1.0;"/></g><!--link ColorSelectorVM to DisplayVM--><g id="link_ColorSelectorVM_DisplayVM"><path codeLine="80" d="M535.2006,461.9236 C546.2806,485.1836 553.683,500.7246 564.763,524.0046 " fill="none" id="ColorSelectorVM-DisplayVM" style="stroke:#181818;stroke-width:1.0;stroke-dasharray:7.0,7.0;"/><polygon fill="none" points="530.04,451.09,529.0091,458.227,535.2006,461.9236,536.2315,454.7866,530.04,451.09" style="stroke:#181818;stroke-width:1.0;"/><polygon fill="none" points="569.92,534.84,570.9533,527.7033,564.763,524.0046,563.7297,531.1413,569.92,534.84" style="stroke:#181818;stroke-width:1.0;"/></g><!--link ColorSelectorVM to ColorEditorVM--><g id="link_ColorSelectorVM_ColorEditorVM"><path codeLine="81" d="M504.6464,462.2202 C491.6164,491.6102 477.73,535.04 493,579 C501.06,602.19 510.4119,615.1982 525.1819,630.2382 " fill="none" id="ColorSelectorVM-ColorEditorVM" style="stroke:#181818;stroke-width:1.0;stroke-dasharray:7.0,7.0;"/><polygon fill="none" points="509.51,451.25,503.4215,455.1139,504.6464,462.2202,510.7349,458.3563,509.51,451.25" style="stroke:#181818;stroke-width:1.0;"/><polygon fill="none" points="533.59,638.8,532.2399,631.7164,525.1819,630.2382,526.532,637.3218,533.59,638.8" style="stroke:#181818;stroke-width:1.0;"/></g><!--reverse link App to AppData--><g id="link_App_AppData"><path codeLine="88" d="M224.4219,42.9274 C202.9019,49.0774 188.21,55.05 167,68 C137.38,86.08 109.49,115.08 92.34,134.81 " fill="none" id="App-backto-AppData" style="stroke:#181818;stroke-width:1.0;"/><polygon fill="#181818" points="235.96,39.63,229.0918,37.4327,224.4219,42.9274,231.2901,45.1247,235.96,39.63" style="stroke:#181818;stroke-width:1.0;"/></g><!--reverse link App to AppModel--><g id="link_App_AppModel"><path codeLine="89" d="M277,63.09 C277,86.35 277,111.56 277,134.84 " fill="none" id="App-backto-AppModel" style="stroke:#181818;stroke-width:1.0;"/><polygon fill="#181818" points="277,51.09,273,57.09,277,63.09,281,57.09,277,51.09" style="stroke:#181818;stroke-width:1.0;"/></g><!--reverse link App to AppVM--><g id="link_App_AppVM"><path codeLine="90" d="M329.5221,47.6105 C350.2421,54.6505 364.35,59.62 387,68 C455.9,93.48 535.8,125.66 578.77,143.18 " fill="none" id="App-backto-AppVM" style="stroke:#181818;stroke-width:1.0;"/><polygon fill="#181818" points="318.16,43.75,322.5542,49.4676,329.5221,47.6105,325.1279,41.8929,318.16,43.75" style="stroke:#181818;stroke-width:1.0;"/></g><!--SRC=[ZPHDRy8W7CRFvLCGJfj9pNOrfiaojvFkiiGxjbYPj3H0NHRZTnzlBRJMkHiyp__rXrKUQTrWWIku8dlSClNEQ_M1Am8H5XGp1423yoCk2LnXXU5oAKYkS5qoacNm3432TrzQWIzDOmFE84bophYGS05VxG4abn3d91CwqlhiGqjqQjrMEoBqLM8LNnaj3x6WIuEaQpvBqxX14iuGFIDhewVvV8P2Im0kOSKDBmZxSqSNyRybGomkYWT85QcwS6SzQakGYf_83NTSCbHqaDO4x-7Iiu1PJ-jQxx1TEoYN4db7Q4igGUlIM1T7rZKDQEszO-lCARWkB8AxfUJxFk3jnkx7g5Hc7SAqpit35rGs3F_e4ocebSPqrZh7fqlUYfpqZ-D77YTy-ke-wOHPJ3KYdWroLswIoLOtEhtPaUzbkFLxqcwVI4x7OyTU6kOQoEbm0Z1yEJxdmsRHrhqNDVG17lLiQgGnMbCc6ctA7aweKOJVWo5Mc0zuOV-0Z6bKqzb_zV7TmOm4NUuN]--></g></svg>