<?xml version="1.0" encoding="UTF-8" standalone="no"?><svg xmlns="http://www.w3.org/2000/svg" xmlns:xlink="http://www.w3.org/1999/xlink" contentStyleType="text/css" height="674px" preserveAspectRatio="none" style="width:433px;height:674px;background:#FFFFFF;" version="1.1" viewBox="0 0 433 674" width="433px" zoomAndPan="magnify"><defs/><g><!--class App--><g id="elem_App"><rect codeLine="1" fill="#F1F1F1" height="100.8281" id="App" rx="2.5" ry="2.5" style="stroke:#181818;stroke-width:0.5;" width="133" x="155" y="7"/><ellipse cx="204.75" cy="23" fill="#ADD1B2" rx="11" ry="11" style="stroke:#181818;stroke-width:1.0;"/><path d="M207.4531,28.4375 Q206.5313,29.3594 204.2656,29.3594 Q203,29.3594 202.0781,28.4375 Q200.4219,26.7813 200.4219,23.25 Q200.4219,19.1406 202.2031,17.3438 Q203.1406,16.4219 204.3281,16.4219 Q206.5938,16.4219 207.3281,17.1406 Q208.7188,18.5469 208.6563,20.9375 L206.1875,20.9375 Q206.125,18.8125 205.3906,18.0781 Q205,17.6719 204.3281,17.6719 Q204.3281,17.6719 204.2656,18.1406 Q202.9375,19.4688 202.9375,23.125 Q202.9375,26.3125 204.0781,27.4375 Q204.6094,27.9688 204.6094,27.9688 Q204.8594,27.9688 205.3906,27.4375 Q206.0625,26.7813 206.125,24.3906 L208.7188,24.3906 Q208.5156,27.375 207.4531,28.4375 Z " fill="#000000"/><text fill="#000000" font-family="sans-serif" font-size="14" lengthAdjust="spacing" textLength="25" x="225.25" y="28.7285">App</text><line style="stroke:#181818;stroke-width:0.5;" x1="156" x2="287" y1="39" y2="39"/><text fill="#000000" font-family="sans-serif" font-size="14" lengthAdjust="spacing" textLength="93" x="161" y="57.5332">Trains : Train[]</text><text fill="#000000" font-family="sans-serif" font-size="14" lengthAdjust="spacing" textLength="121" x="161" y="75.1426">Sections : Section[]</text><text fill="#000000" font-family="sans-serif" font-size="14" lengthAdjust="spacing" textLength="117" x="161" y="92.752">Sensors : Sensor[]</text><line style="stroke:#181818;stroke-width:0.5;" x1="156" x2="287" y1="99.8281" y2="99.8281"/></g><!--class Train--><g id="elem_Train"><rect codeLine="8" fill="#F1F1F1" height="248.0938" id="Train" rx="2.5" ry="2.5" style="stroke:#181818;stroke-width:0.5;" width="161" x="7" y="168"/><ellipse cx="66.75" cy="184" fill="#ADD1B2" rx="11" ry="11" style="stroke:#181818;stroke-width:1.0;"/><path d="M69.4531,189.4375 Q68.5313,190.3594 66.2656,190.3594 Q65,190.3594 64.0781,189.4375 Q62.4219,187.7813 62.4219,184.25 Q62.4219,180.1406 64.2031,178.3438 Q65.1406,177.4219 66.3281,177.4219 Q68.5938,177.4219 69.3281,178.1406 Q70.7188,179.5469 70.6563,181.9375 L68.1875,181.9375 Q68.125,179.8125 67.3906,179.0781 Q67,178.6719 66.3281,178.6719 Q66.3281,178.6719 66.2656,179.1406 Q64.9375,180.4688 64.9375,184.125 Q64.9375,187.3125 66.0781,188.4375 Q66.6094,188.9688 66.6094,188.9688 Q66.8594,188.9688 67.3906,188.4375 Q68.0625,187.7813 68.125,185.3906 L70.7188,185.3906 Q70.5156,188.375 69.4531,189.4375 Z " fill="#000000"/><text fill="#000000" font-family="sans-serif" font-size="14" lengthAdjust="spacing" textLength="33" x="87.25" y="189.7285">Train</text><line style="stroke:#181818;stroke-width:0.5;" x1="8" x2="167" y1="200" y2="200"/><text fill="#000000" font-family="sans-serif" font-size="14" lengthAdjust="spacing" textLength="82" x="13" y="218.5332">name : string</text><line style="stroke:#181818;stroke-width:1.0;stroke-dasharray:1.0,2.0;" x1="8" x2="167" y1="225.6094" y2="225.6094"/><text fill="#000000" font-family="sans-serif" font-size="14" lengthAdjust="spacing" textLength="149" x="13" y="244.1426">automation : Automaion</text><line style="stroke:#181818;stroke-width:1.0;stroke-dasharray:1.0,2.0;" x1="8" x2="167" y1="251.2188" y2="251.2188"/><text fill="#000000" font-family="sans-serif" font-size="14" lengthAdjust="spacing" textLength="82" x="13" y="269.752">dir : direction</text><text fill="#000000" font-family="sans-serif" font-size="14" lengthAdjust="spacing" textLength="79" x="13" y="287.3613">act : number</text><text fill="#000000" font-family="sans-serif" font-size="14" lengthAdjust="spacing" textLength="83" x="13" y="304.9707">env : number</text><text fill="#000000" font-family="sans-serif" font-size="14" lengthAdjust="spacing" textLength="99" x="13" y="322.5801">speed : number</text><line style="stroke:#181818;stroke-width:1.0;stroke-dasharray:1.0,2.0;" x1="8" x2="167" y1="329.6563" y2="329.6563"/><text fill="#000000" font-family="sans-serif" font-size="14" lengthAdjust="spacing" textLength="86" x="13" y="348.1895">bias : number</text><text fill="#000000" font-family="sans-serif" font-size="14" lengthAdjust="spacing" textLength="85" x="13" y="365.7988">max : number</text><text fill="#000000" font-family="sans-serif" font-size="14" lengthAdjust="spacing" textLength="82" x="13" y="383.4082">idle : number</text><line style="stroke:#181818;stroke-width:1.0;" x1="8" x2="167" y1="390.4844" y2="390.4844"/><text fill="#000000" font-family="sans-serif" font-size="14" lengthAdjust="spacing" textLength="53" x="13" y="409.0176">dostep()</text></g><!--class Section--><g id="elem_Section"><rect codeLine="25" fill="#F1F1F1" height="65.6094" id="Section" rx="2.5" ry="2.5" style="stroke:#181818;stroke-width:0.5;" width="100" x="37.5" y="602"/><ellipse cx="61.95" cy="618" fill="#ADD1B2" rx="11" ry="11" style="stroke:#181818;stroke-width:1.0;"/><path d="M64.6531,623.4375 Q63.7313,624.3594 61.4656,624.3594 Q60.2,624.3594 59.2781,623.4375 Q57.6219,621.7813 57.6219,618.25 Q57.6219,614.1406 59.4031,612.3438 Q60.3406,611.4219 61.5281,611.4219 Q63.7938,611.4219 64.5281,612.1406 Q65.9188,613.5469 65.8563,615.9375 L63.3875,615.9375 Q63.325,613.8125 62.5906,613.0781 Q62.2,612.6719 61.5281,612.6719 Q61.5281,612.6719 61.4656,613.1406 Q60.1375,614.4688 60.1375,618.125 Q60.1375,621.3125 61.2781,622.4375 Q61.8094,622.9688 61.8094,622.9688 Q62.0594,622.9688 62.5906,622.4375 Q63.2625,621.7813 63.325,619.3906 L65.9188,619.3906 Q65.7156,622.375 64.6531,623.4375 Z " fill="#000000"/><text fill="#000000" font-family="sans-serif" font-size="14" lengthAdjust="spacing" textLength="47" x="78.05" y="623.7285">Section</text><line style="stroke:#181818;stroke-width:0.5;" x1="38.5" x2="136.5" y1="634" y2="634"/><text fill="#000000" font-family="sans-serif" font-size="14" lengthAdjust="spacing" textLength="88" x="43.5" y="652.5332">source : Train</text><line style="stroke:#181818;stroke-width:0.5;" x1="38.5" x2="136.5" y1="659.6094" y2="659.6094"/></g><!--class Sensor--><g id="elem_Sensor"><rect codeLine="29" fill="#F1F1F1" height="65.6094" id="Sensor" rx="2.5" ry="2.5" style="stroke:#181818;stroke-width:0.5;" width="97" x="173" y="602"/><ellipse cx="197" cy="618" fill="#ADD1B2" rx="11" ry="11" style="stroke:#181818;stroke-width:1.0;"/><path d="M199.7031,623.4375 Q198.7813,624.3594 196.5156,624.3594 Q195.25,624.3594 194.3281,623.4375 Q192.6719,621.7813 192.6719,618.25 Q192.6719,614.1406 194.4531,612.3438 Q195.3906,611.4219 196.5781,611.4219 Q198.8438,611.4219 199.5781,612.1406 Q200.9688,613.5469 200.9063,615.9375 L198.4375,615.9375 Q198.375,613.8125 197.6406,613.0781 Q197.25,612.6719 196.5781,612.6719 Q196.5781,612.6719 196.5156,613.1406 Q195.1875,614.4688 195.1875,618.125 Q195.1875,621.3125 196.3281,622.4375 Q196.8594,622.9688 196.8594,622.9688 Q197.1094,622.9688 197.6406,622.4375 Q198.3125,621.7813 198.375,619.3906 L200.9688,619.3906 Q200.7656,622.375 199.7031,623.4375 Z " fill="#000000"/><text fill="#000000" font-family="sans-serif" font-size="14" lengthAdjust="spacing" textLength="45" x="213" y="623.7285">Sensor</text><line style="stroke:#181818;stroke-width:0.5;" x1="174" x2="269" y1="634" y2="634"/><text fill="#000000" font-family="sans-serif" font-size="14" lengthAdjust="spacing" textLength="85" x="179" y="652.5332">sensed : bool</text><line style="stroke:#181818;stroke-width:0.5;" x1="174" x2="269" y1="659.6094" y2="659.6094"/></g><!--class Automation--><g id="elem_Automation"><rect codeLine="33" fill="#F1F1F1" height="65.6094" id="Automation" rx="2.5" ry="2.5" style="stroke:#181818;stroke-width:0.5;" width="103" x="155" y="476"/><ellipse cx="170" cy="492" fill="#ADD1B2" rx="11" ry="11" style="stroke:#181818;stroke-width:1.0;"/><path d="M172.7031,497.4375 Q171.7813,498.3594 169.5156,498.3594 Q168.25,498.3594 167.3281,497.4375 Q165.6719,495.7813 165.6719,492.25 Q165.6719,488.1406 167.4531,486.3438 Q168.3906,485.4219 169.5781,485.4219 Q171.8438,485.4219 172.5781,486.1406 Q173.9688,487.5469 173.9063,489.9375 L171.4375,489.9375 Q171.375,487.8125 170.6406,487.0781 Q170.25,486.6719 169.5781,486.6719 Q169.5781,486.6719 169.5156,487.1406 Q168.1875,488.4688 168.1875,492.125 Q168.1875,495.3125 169.3281,496.4375 Q169.8594,496.9688 169.8594,496.9688 Q170.1094,496.9688 170.6406,496.4375 Q171.3125,495.7813 171.375,493.3906 L173.9688,493.3906 Q173.7656,496.375 172.7031,497.4375 Z " fill="#000000"/><text fill="#000000" font-family="sans-serif" font-size="14" lengthAdjust="spacing" textLength="71" x="184" y="497.7285">Automation</text><line style="stroke:#181818;stroke-width:0.5;" x1="156" x2="257" y1="508" y2="508"/><text fill="#000000" font-family="sans-serif" font-size="14" lengthAdjust="spacing" textLength="61" x="161" y="526.5332">app : App</text><line style="stroke:#181818;stroke-width:0.5;" x1="156" x2="257" y1="533.6094" y2="533.6094"/></g><!--class CommandReceiver--><g id="elem_CommandReceiver"><rect codeLine="37" fill="#F1F1F1" height="83.2188" id="CommandReceiver" rx="2.5" ry="2.5" style="stroke:#181818;stroke-width:0.5;" width="152" x="274.5" y="250.5"/><ellipse cx="289.5" cy="266.5" fill="#ADD1B2" rx="11" ry="11" style="stroke:#181818;stroke-width:1.0;"/><path d="M292.2031,271.9375 Q291.2813,272.8594 289.0156,272.8594 Q287.75,272.8594 286.8281,271.9375 Q285.1719,270.2813 285.1719,266.75 Q285.1719,262.6406 286.9531,260.8438 Q287.8906,259.9219 289.0781,259.9219 Q291.3438,259.9219 292.0781,260.6406 Q293.4688,262.0469 293.4063,264.4375 L290.9375,264.4375 Q290.875,262.3125 290.1406,261.5781 Q289.75,261.1719 289.0781,261.1719 Q289.0781,261.1719 289.0156,261.6406 Q287.6875,262.9688 287.6875,266.625 Q287.6875,269.8125 288.8281,270.9375 Q289.3594,271.4688 289.3594,271.4688 Q289.6094,271.4688 290.1406,270.9375 Q290.8125,270.2813 290.875,267.8906 L293.4688,267.8906 Q293.2656,270.875 292.2031,271.9375 Z " fill="#000000"/><text fill="#000000" font-family="sans-serif" font-size="14" lengthAdjust="spacing" textLength="120" x="303.5" y="272.2285">CommandReceiver</text><line style="stroke:#181818;stroke-width:0.5;" x1="275.5" x2="425.5" y1="282.5" y2="282.5"/><text fill="#000000" font-family="sans-serif" font-size="14" lengthAdjust="spacing" textLength="61" x="280.5" y="301.0332">app : App</text><line style="stroke:#181818;stroke-width:0.5;" x1="275.5" x2="425.5" y1="308.1094" y2="308.1094"/><text fill="#000000" font-family="sans-serif" font-size="14" lengthAdjust="spacing" textLength="68" x="280.5" y="326.6426">putChars()</text></g><!--reverse link App to Train--><g id="link_App_Train"><path codeLine="43" d="M186.22,119.71 C177.61,134.65 168.1,151.16 158.47,167.86 " fill="none" id="App-backto-Train" style="stroke:#181818;stroke-width:1.0;"/><polygon fill="#181818" points="192.92,108.09,186.4575,111.2894,186.9252,118.4853,193.3877,115.2859,192.92,108.09" style="stroke:#181818;stroke-width:1.0;"/></g><!--link App to CommandReceiver--><g id="link_App_CommandReceiver"><path codeLine="44" d="M254.8455,118.5811 C254.8455,118.5811 322.1445,239.8989 322.1445,239.8989 " fill="none" id="App-CommandReceiver" style="stroke:#181818;stroke-width:1.0;"/><polygon fill="#181818" points="249.02,108.09,248.4357,115.2774,254.8455,118.5811,255.4298,111.3937,249.02,108.09" style="stroke:#181818;stroke-width:1.0;"/><polygon fill="none" points="327.97,250.39,328.5543,243.2026,322.1445,239.8989,321.5602,247.0863,327.97,250.39" style="stroke:#181818;stroke-width:1.0;"/></g><!--link App to Automation--><g id="link_App_Automation"><path codeLine="45" d="M219.431,120.313 C219.431,120.313 207.9658,463.9265 207.9658,463.9265 " fill="none" id="App-Automation" style="stroke:#181818;stroke-width:1.0;"/><polygon fill="#181818" points="219.84,108.32,215.6378,114.1802,219.431,120.313,223.6332,114.4528,219.84,108.32" style="stroke:#181818;stroke-width:1.0;"/><polygon fill="none" points="207.57,475.92,211.7657,470.0552,207.9658,463.9265,203.7701,469.7913,207.57,475.92" style="stroke:#181818;stroke-width:1.0;"/></g><!--link Train to Section--><g id="link_Train_Section"><path codeLine="47" d="M87.5,428.11 C87.5,428.11 87.5,589.69 87.5,589.69 " fill="none" id="Train-Section" style="stroke:#181818;stroke-width:1.0;"/><polygon fill="none" points="87.5,416.11,83.5,422.11,87.5,428.11,91.5,422.11,87.5,416.11" style="stroke:#181818;stroke-width:1.0;"/><polygon fill="none" points="87.5,601.69,91.5,595.69,87.5,589.69,83.5,595.69,87.5,601.69" style="stroke:#181818;stroke-width:1.0;"/></g><!--link Train to Automation--><g id="link_Train_Automation"><path codeLine="48" d="M161.4953,426.7023 C161.4953,426.7023 182.7647,465.1077 182.7647,465.1077 " fill="none" id="Train-Automation" style="stroke:#181818;stroke-width:1.0;"/><polygon fill="#181818" points="155.69,416.2,155.0919,423.3863,161.4953,426.7023,162.0934,419.5161,155.69,416.2" style="stroke:#181818;stroke-width:1.0;"/><polygon fill="none" points="188.57,475.61,189.1681,468.4237,182.7647,465.1077,182.1666,472.2939,188.57,475.61" style="stroke:#181818;stroke-width:1.0;"/></g><!--reverse link Automation to Section--><g id="link_Automation_Section"><path codeLine="49" d="M166.11,552.09 C150.48,568.37 132.88,586.71 118.3,601.91 " fill="none" id="Automation-backto-Section" style="stroke:#181818;stroke-width:1.0;"/><polygon fill="none" points="175.54,542.26,168.4989,543.8166,167.2277,550.9148,174.2688,549.3582,175.54,542.26" style="stroke:#181818;stroke-width:1.0;"/></g><!--reverse link Automation to Sensor--><g id="link_Automation_Sensor"><path codeLine="50" d="M211.98,555.34 C213.85,570.78 215.9,587.72 217.62,601.91 " fill="none" id="Automation-backto-Sensor" style="stroke:#181818;stroke-width:1.0;"/><polygon fill="none" points="210.4,542.26,207.1479,548.6961,211.8381,554.1735,215.0902,547.7374,210.4,542.26" style="stroke:#181818;stroke-width:1.0;"/></g><!--SRC=[PL7BJiGm33mdNz4Z87K_O6_L_W5mGnpSr898pKDnka92_3js4aXOBf5dFB77jjc1Q5fYd3wrUavWFKtdgGGlhrezeSas5Aw5bVKKKYKbOav_QMrAhV9Ngdbmo1BAoVethKudhU38mO6KuSHI0CSrjzd49B-r3ujDPi8VRiMa5VhhW2WYRWEM0gi56YW77mEosuu3d6Tk62XZlBllrjk8Ofx2aGp-h6AKoC15mL7ni8QmTy7IHsGHy6BFijukk0Jdm6-FQD1UCVrLgNZaopiaObloHGxpCC_DHKFXjaPFzEvQrqC4eTjWZRfL3fPP_Il-Hylatm00]--></g></svg>