<?xml version="1.0" encoding="UTF-8" standalone="no"?><svg xmlns="http://www.w3.org/2000/svg" xmlns:xlink="http://www.w3.org/1999/xlink" contentStyleType="text/css" height="451px" preserveAspectRatio="none" style="width:357px;height:451px;background:#FFFFFF;" version="1.1" viewBox="0 0 357 451" width="357px" zoomAndPan="magnify"><defs/><g><g id="elem_Application"><rect fill="#F1F1F1" height="37.6094" style="stroke:#181818;stroke-width:0.5;" width="83" x="147" y="7"/><text fill="#000000" font-family="sans-serif" font-size="14" lengthAdjust="spacing" textLength="69" x="154" y="23.5332">Application</text><line style="stroke:#181818;stroke-width:0.5;" x1="148" x2="229" y1="28.6094" y2="28.6094"/></g><g id="elem_Document"><rect fill="#F1F1F1" height="37.6094" style="stroke:#181818;stroke-width:0.5;" width="78" x="273.5" y="109.5"/><text fill="#000000" font-family="sans-serif" font-size="14" lengthAdjust="spacing" textLength="64" x="280.5" y="126.0332">Document</text><line style="stroke:#181818;stroke-width:0.5;" x1="274.5" x2="350.5" y1="131.1094" y2="131.1094"/></g><g id="elem_URLManager"><rect fill="#F1F1F1" height="37.6094" style="stroke:#181818;stroke-width:0.5;" width="97" x="7" y="109.5"/><text fill="#000000" font-family="sans-serif" font-size="14" lengthAdjust="spacing" textLength="83" x="14" y="126.0332">URLManager</text><line style="stroke:#181818;stroke-width:0.5;" x1="8" x2="103" y1="131.1094" y2="131.1094"/></g><g id="elem_MelodyPlayer"><rect fill="#F1F1F1" height="47.2188" style="stroke:#181818;stroke-width:0.5;" width="99" x="139" y="105"/><text fill="#000000" font-family="sans-serif" font-size="14" lengthAdjust="spacing" textLength="85" x="146" y="121.5332">MelodyPlayer</text><line style="stroke:#181818;stroke-width:0.5;" x1="140" x2="237" y1="126.6094" y2="126.6094"/><text fill="#000000" font-family="sans-serif" font-size="14" lengthAdjust="spacing" textLength="21" x="145" y="145.1426">run</text></g><g id="elem_PartPlayer"><rect fill="#F1F1F1" height="37.6094" style="stroke:#181818;stroke-width:0.5;" width="80" x="95.5" y="212"/><text fill="#000000" font-family="sans-serif" font-size="14" lengthAdjust="spacing" textLength="66" x="102.5" y="228.5332">PartPlayer</text><line style="stroke:#181818;stroke-width:0.5;" x1="96.5" x2="174.5" y1="233.6094" y2="233.6094"/></g><g id="elem_Part"><rect fill="#F1F1F1" height="37.6094" style="stroke:#181818;stroke-width:0.5;" width="40" x="115.5" y="310"/><text fill="#000000" font-family="sans-serif" font-size="14" lengthAdjust="spacing" textLength="26" x="122.5" y="326.5332">Part</text><line style="stroke:#181818;stroke-width:0.5;" x1="116.5" x2="154.5" y1="331.6094" y2="331.6094"/></g><g id="elem_Voice"><rect fill="#F1F1F1" height="37.6094" style="stroke:#181818;stroke-width:0.5;" width="49" x="111" y="408"/><text fill="#000000" font-family="sans-serif" font-size="14" lengthAdjust="spacing" textLength="35" x="118" y="424.5332">Voice</text><line style="stroke:#181818;stroke-width:0.5;" x1="112" x2="159" y1="429.6094" y2="429.6094"/></g><g id="elem_Melody"><rect fill="#F1F1F1" height="37.6094" style="stroke:#181818;stroke-width:0.5;" width="59" x="211" y="212"/><text fill="#000000" font-family="sans-serif" font-size="14" lengthAdjust="spacing" textLength="45" x="218" y="228.5332">Melody</text><line style="stroke:#181818;stroke-width:0.5;" x1="212" x2="269" y1="233.6094" y2="233.6094"/></g><!--reverse link Application to Document--><g id="link_Application_Document"><path codeLine="33" d="M221.08,53.4 C242.86,71.06 270.95,93.82 290.21,109.44 " fill="none" id="Application-backto-Document" style="stroke:#181818;stroke-width:1.0;"/><polygon fill="#181818" points="210.96,45.2,213.1028,52.0854,220.2826,52.7557,218.1399,45.8703,210.96,45.2" style="stroke:#181818;stroke-width:1.0;"/></g><!--reverse link Application to MelodyPlayer--><g id="link_Application_MelodyPlayer"><path codeLine="34" d="M188.5,58.82 C188.5,73.82 188.5,91.36 188.5,104.96 " fill="none" id="Application-backto-MelodyPlayer" style="stroke:#181818;stroke-width:1.0;"/><polygon fill="#181818" points="188.5,45.43,184.5,51.43,188.5,57.43,192.5,51.43,188.5,45.43" style="stroke:#181818;stroke-width:1.0;"/></g><!--reverse link Application to URLManager--><g id="link_Application_URLManager"><path codeLine="35" d="M153.88,53.16 C130.47,70.85 100.16,93.75 79.41,109.44 " fill="none" id="Application-backto-URLManager" style="stroke:#181818;stroke-width:1.0;"/><polygon fill="#181818" points="164.41,45.2,157.2116,45.6285,154.8386,52.4379,162.0369,52.0094,164.41,45.2" style="stroke:#181818;stroke-width:1.0;"/></g><!--reverse link URLManager to Document--><g id="link_URLManager_Document"><path codeLine="37" d="M87.96,101.56 C102.6,91.1 120.7,80.36 139,75 C181.23,62.63 196.12,61.52 238,75 C259.07,81.78 279.22,96.97 293.24,109.44 " fill="none" id="URLManager-backto-Document" style="stroke:#181818;stroke-width:1.0;"/><polygon fill="none" points="77.49,109.4,84.69,109,87.09,102.2,79.89,102.6,77.49,109.4" style="stroke:#181818;stroke-width:1.0;"/></g><!--reverse link MelodyPlayer to Document--><g id="link_MelodyPlayer_Document"><path codeLine="38" d="M251.53,128.5 C258.82,128.5 266.12,128.5 273.42,128.5 " fill="none" id="MelodyPlayer-backto-Document" style="stroke:#181818;stroke-width:1.0;"/><polygon fill="none" points="238.39,128.5,244.39,132.5,250.39,128.5,244.39,124.5,238.39,128.5" style="stroke:#181818;stroke-width:1.0;"/></g><!--reverse link MelodyPlayer to Melody--><g id="link_MelodyPlayer_Melody"><path codeLine="40" d="M206.24,163.79 C214.59,179.93 224.21,198.51 231.12,211.88 " fill="none" id="MelodyPlayer-backto-Melody" style="stroke:#181818;stroke-width:1.0;"/><polygon fill="#181818" points="200.17,152.05,199.3705,159.2166,205.6784,162.711,206.4779,155.5444,200.17,152.05" style="stroke:#181818;stroke-width:1.0;"/></g><!--reverse link MelodyPlayer to PartPlayer--><g id="link_MelodyPlayer_PartPlayer"><path codeLine="41" d="M170.42,163.79 C161.91,179.93 152.11,198.51 145.06,211.88 " fill="none" id="MelodyPlayer-backto-PartPlayer" style="stroke:#181818;stroke-width:1.0;"/><polygon fill="#181818" points="176.61,152.05,170.2714,155.4884,171.0075,162.6619,177.346,159.2234,176.61,152.05" style="stroke:#181818;stroke-width:1.0;"/></g><!--reverse link PartPlayer to Part--><g id="link_PartPlayer_Part"><path codeLine="42" d="M135.5,263.22 C135.5,278.59 135.5,296.58 135.5,309.7 " fill="none" id="PartPlayer-backto-Part" style="stroke:#181818;stroke-width:1.0;"/><polygon fill="#181818" points="135.5,250.06,131.5,256.06,135.5,262.06,139.5,256.06,135.5,250.06" style="stroke:#181818;stroke-width:1.0;"/></g><!--reverse link Part to Voice--><g id="link_Part_Voice"><path codeLine="43" d="M135.5,361.22 C135.5,376.59 135.5,394.58 135.5,407.7 " fill="none" id="Part-backto-Voice" style="stroke:#181818;stroke-width:1.0;"/><polygon fill="#181818" points="135.5,348.06,131.5,354.06,135.5,360.06,139.5,354.06,135.5,348.06" style="stroke:#181818;stroke-width:1.0;"/></g><!--SRC=[oq_AIaqkKN0iACZ9J4uioSpFKwZcughbuig7IBZa9vVcfkQLe8g61ldu9kObfgSMeOhxfkRafrG6v2HMWcKuYqhpa6G34ejAu79eugWYOVcPoQdOZ8QA8JjNIrSNxaeC2MG7OKWYVC75XUIZV2JpK3o4B84gWx0AKnpXQowa0839WCN0FB2V0G00]--></g></svg>