<?xml version="1.0" encoding="us-ascii" standalone="no"?><svg xmlns="http://www.w3.org/2000/svg" xmlns:xlink="http://www.w3.org/1999/xlink" contentStyleType="text/css" height="780px" preserveAspectRatio="none" style="width:993px;height:780px;background:#FFFFFF;" version="1.1" viewBox="0 0 993 780" width="993px" zoomAndPan="magnify"><defs/><g><text fill="#000000" font-family="sans-serif" font-size="14" font-weight="bold" lengthAdjust="spacing" textLength="65" x="457" y="24.5332">dom.defs</text><!--class Element--><g id="elem_Element"><rect codeLine="4" fill="#F1F1F1" height="118.4375" id="Element" rx="2.5" ry="2.5" style="stroke:#181818;stroke-width:0.5;" width="174" x="706.5" y="48.6094"/><ellipse cx="754.75" cy="64.6094" fill="#ADD1B2" rx="11" ry="11" style="stroke:#181818;stroke-width:1.0;"/><path d="M757.4531,70.0469 Q756.5313,70.9688 754.2656,70.9688 Q753,70.9688 752.0781,70.0469 Q750.4219,68.3906 750.4219,64.8594 Q750.4219,60.75 752.2031,58.9531 Q753.1406,58.0313 754.3281,58.0313 Q756.5938,58.0313 757.3281,58.75 Q758.7188,60.1563 758.6563,62.5469 L756.1875,62.5469 Q756.125,60.4219 755.3906,59.6875 Q755,59.2813 754.3281,59.2813 Q754.3281,59.2813 754.2656,59.75 Q752.9375,61.0781 752.9375,64.7344 Q752.9375,67.9219 754.0781,69.0469 Q754.6094,69.5781 754.6094,69.5781 Q754.8594,69.5781 755.3906,69.0469 Q756.0625,68.3906 756.125,66 L758.7188,66 Q758.5156,68.9844 757.4531,70.0469 Z " fill="#000000"/><text fill="#000000" font-family="sans-serif" font-size="14" lengthAdjust="spacing" textLength="51" x="775.25" y="70.3379">Element</text><rect fill="#FFFFFF" height="17.0938" style="stroke:#181818;stroke-width:1.0;stroke-dasharray:2.0,2.0;" width="16" x="867.5" y="45.6094"/><text fill="#000000" font-family="sans-serif" font-size="12" font-style="italic" lengthAdjust="spacing" textLength="8" x="871.5" y="59.0664">E</text><line style="stroke:#181818;stroke-width:0.5;" x1="707.5" x2="879.5" y1="80.6094" y2="80.6094"/><ellipse cx="717.5" cy="94.9141" fill="none" rx="3" ry="3" style="stroke:#038048;stroke-width:1.0;"/><text fill="#000000" font-family="sans-serif" font-size="14" lengthAdjust="spacing" textLength="62" x="726.5" y="99.1426">ns : string</text><ellipse cx="717.5" cy="112.5234" fill="none" rx="3" ry="3" style="stroke:#038048;stroke-width:1.0;"/><text fill="#000000" font-family="sans-serif" font-size="14" lengthAdjust="spacing" textLength="35" x="726.5" y="116.752">type :</text><ellipse cx="717.5" cy="130.1328" fill="none" rx="3" ry="3" style="stroke:#038048;stroke-width:1.0;"/><text fill="#000000" font-family="sans-serif" font-size="14" lengthAdjust="spacing" textLength="88" x="726.5" y="134.3613">echar : EChar</text><ellipse cx="717.5" cy="147.7422" fill="none" rx="3" ry="3" style="stroke:#038048;stroke-width:1.0;"/><text fill="#000000" font-family="sans-serif" font-size="14" lengthAdjust="spacing" textLength="148" x="726.5" y="151.9707">parts : [ FirstPart, Part ]</text><line style="stroke:#181818;stroke-width:0.5;" x1="707.5" x2="879.5" y1="159.0469" y2="159.0469"/></g><!--class Class--><g id="elem_Class"><rect codeLine="11" fill="#F1F1F1" height="83.2188" id="Class" rx="2.5" ry="2.5" style="stroke:#181818;stroke-width:0.5;" width="169" x="7" y="404.6094"/><ellipse cx="69.75" cy="420.6094" fill="#ADD1B2" rx="11" ry="11" style="stroke:#181818;stroke-width:1.0;"/><path d="M72.4531,426.0469 Q71.5313,426.9688 69.2656,426.9688 Q68,426.9688 67.0781,426.0469 Q65.4219,424.3906 65.4219,420.8594 Q65.4219,416.75 67.2031,414.9531 Q68.1406,414.0313 69.3281,414.0313 Q71.5938,414.0313 72.3281,414.75 Q73.7188,416.1563 73.6563,418.5469 L71.1875,418.5469 Q71.125,416.4219 70.3906,415.6875 Q70,415.2813 69.3281,415.2813 Q69.3281,415.2813 69.2656,415.75 Q67.9375,417.0781 67.9375,420.7344 Q67.9375,423.9219 69.0781,425.0469 Q69.6094,425.5781 69.6094,425.5781 Q69.8594,425.5781 70.3906,425.0469 Q71.0625,424.3906 71.125,422 L73.7188,422 Q73.5156,424.9844 72.4531,426.0469 Z " fill="#000000"/><text fill="#000000" font-family="sans-serif" font-size="14" lengthAdjust="spacing" textLength="35" x="90.25" y="426.3379">Class</text><line style="stroke:#181818;stroke-width:0.5;" x1="8" x2="175" y1="436.6094" y2="436.6094"/><text fill="#000000" font-family="sans-serif" font-size="14" lengthAdjust="spacing" textLength="42" x="13" y="455.1426">| string</text><text fill="#000000" font-family="sans-serif" font-size="14" lengthAdjust="spacing" textLength="157" x="13" y="472.752">| { name : string | StrSrc }</text><line style="stroke:#181818;stroke-width:0.5;" x1="8" x2="175" y1="479.8281" y2="479.8281"/></g><!--class EChar--><g id="elem_EChar"><rect codeLine="16" fill="#F1F1F1" height="118.4375" id="EChar" rx="2.5" ry="2.5" style="stroke:#181818;stroke-width:0.5;" width="148" x="391.5" y="226.6094"/><ellipse cx="441.25" cy="242.6094" fill="#ADD1B2" rx="11" ry="11" style="stroke:#181818;stroke-width:1.0;"/><path d="M443.9531,248.0469 Q443.0313,248.9688 440.7656,248.9688 Q439.5,248.9688 438.5781,248.0469 Q436.9219,246.3906 436.9219,242.8594 Q436.9219,238.75 438.7031,236.9531 Q439.6406,236.0313 440.8281,236.0313 Q443.0938,236.0313 443.8281,236.75 Q445.2188,238.1563 445.1563,240.5469 L442.6875,240.5469 Q442.625,238.4219 441.8906,237.6875 Q441.5,237.2813 440.8281,237.2813 Q440.8281,237.2813 440.7656,237.75 Q439.4375,239.0781 439.4375,242.7344 Q439.4375,245.9219 440.5781,247.0469 Q441.1094,247.5781 441.1094,247.5781 Q441.3594,247.5781 441.8906,247.0469 Q442.5625,246.3906 442.625,244 L445.2188,244 Q445.0156,246.9844 443.9531,248.0469 Z " fill="#000000"/><text fill="#000000" font-family="sans-serif" font-size="14" lengthAdjust="spacing" textLength="40" x="461.75" y="248.3379">EChar</text><line style="stroke:#181818;stroke-width:0.5;" x1="392.5" x2="538.5" y1="258.6094" y2="258.6094"/><ellipse cx="402.5" cy="272.9141" fill="none" rx="3" ry="3" style="stroke:#038048;stroke-width:1.0;"/><text fill="#000000" font-family="sans-serif" font-size="14" lengthAdjust="spacing" textLength="79" x="411.5" y="277.1426">class : Class</text><ellipse cx="402.5" cy="290.5234" fill="none" rx="3" ry="3" style="stroke:#038048;stroke-width:1.0;"/><text fill="#000000" font-family="sans-serif" font-size="14" lengthAdjust="spacing" textLength="106" x="411.5" y="294.752">attrs &lt; E &gt; : Attrs</text><ellipse cx="402.5" cy="308.1328" fill="none" rx="3" ry="3" style="stroke:#038048;stroke-width:1.0;"/><text fill="#000000" font-family="sans-serif" font-size="14" lengthAdjust="spacing" textLength="122" x="411.5" y="312.3613">props &lt; E &gt; : Props</text><ellipse cx="402.5" cy="325.7422" fill="none" rx="3" ry="3" style="stroke:#038048;stroke-width:1.0;"/><text fill="#000000" font-family="sans-serif" font-size="14" lengthAdjust="spacing" textLength="72" x="411.5" y="329.9707">style : Style</text><line style="stroke:#181818;stroke-width:0.5;" x1="392.5" x2="538.5" y1="337.0469" y2="337.0469"/></g><!--class Attrs--><g id="elem_Attrs"><rect codeLine="23" fill="#F1F1F1" height="48" id="Attrs" rx="2.5" ry="2.5" style="stroke:#181818;stroke-width:0.5;" width="79" x="211" y="422.1094"/><ellipse cx="226" cy="438.1094" fill="#ADD1B2" rx="11" ry="11" style="stroke:#181818;stroke-width:1.0;"/><path d="M228.7031,443.5469 Q227.7813,444.4688 225.5156,444.4688 Q224.25,444.4688 223.3281,443.5469 Q221.6719,441.8906 221.6719,438.3594 Q221.6719,434.25 223.4531,432.4531 Q224.3906,431.5313 225.5781,431.5313 Q227.8438,431.5313 228.5781,432.25 Q229.9688,433.6563 229.9063,436.0469 L227.4375,436.0469 Q227.375,433.9219 226.6406,433.1875 Q226.25,432.7813 225.5781,432.7813 Q225.5781,432.7813 225.5156,433.25 Q224.1875,434.5781 224.1875,438.2344 Q224.1875,441.4219 225.3281,442.5469 Q225.8594,443.0781 225.8594,443.0781 Q226.1094,443.0781 226.6406,442.5469 Q227.3125,441.8906 227.375,439.5 L229.9688,439.5 Q229.7656,442.4844 228.7031,443.5469 Z " fill="#000000"/><text fill="#000000" font-family="sans-serif" font-size="14" lengthAdjust="spacing" textLength="29" x="240" y="443.8379">Attrs</text><rect fill="#FFFFFF" height="17.0938" style="stroke:#181818;stroke-width:1.0;stroke-dasharray:2.0,2.0;" width="16" x="277" y="419.1094"/><text fill="#000000" font-family="sans-serif" font-size="12" font-style="italic" lengthAdjust="spacing" textLength="8" x="281" y="432.5664">E</text><line style="stroke:#181818;stroke-width:0.5;" x1="212" x2="289" y1="454.1094" y2="454.1094"/><line style="stroke:#181818;stroke-width:0.5;" x1="212" x2="289" y1="462.1094" y2="462.1094"/></g><!--class Style--><g id="elem_Style"><rect codeLine="27" fill="#F1F1F1" height="65.6094" id="Style" rx="2.5" ry="2.5" style="stroke:#181818;stroke-width:0.5;" width="141" x="325" y="413.1094"/><ellipse cx="375.75" cy="429.1094" fill="#ADD1B2" rx="11" ry="11" style="stroke:#181818;stroke-width:1.0;"/><path d="M378.4531,434.5469 Q377.5313,435.4688 375.2656,435.4688 Q374,435.4688 373.0781,434.5469 Q371.4219,432.8906 371.4219,429.3594 Q371.4219,425.25 373.2031,423.4531 Q374.1406,422.5313 375.3281,422.5313 Q377.5938,422.5313 378.3281,423.25 Q379.7188,424.6563 379.6563,427.0469 L377.1875,427.0469 Q377.125,424.9219 376.3906,424.1875 Q376,423.7813 375.3281,423.7813 Q375.3281,423.7813 375.2656,424.25 Q373.9375,425.5781 373.9375,429.2344 Q373.9375,432.4219 375.0781,433.5469 Q375.6094,434.0781 375.6094,434.0781 Q375.8594,434.0781 376.3906,433.5469 Q377.0625,432.8906 377.125,430.5 L379.7188,430.5 Q379.5156,433.4844 378.4531,434.5469 Z " fill="#000000"/><text fill="#000000" font-family="sans-serif" font-size="14" lengthAdjust="spacing" textLength="31" x="396.25" y="434.8379">Style</text><line style="stroke:#181818;stroke-width:0.5;" x1="326" x2="465" y1="445.1094" y2="445.1094"/><text fill="#000000" font-family="sans-serif" font-size="14" lengthAdjust="spacing" textLength="129" x="331" y="463.6426">[ name:string ] : Text</text><line style="stroke:#181818;stroke-width:0.5;" x1="326" x2="465" y1="470.7188" y2="470.7188"/></g><!--class FirstPart--><g id="elem_FirstPart"><rect codeLine="31" fill="#F1F1F1" height="83.2188" id="FirstPart" rx="2.5" ry="2.5" style="stroke:#181818;stroke-width:0.5;" width="86" x="699.5" y="404.6094"/><ellipse cx="714.5" cy="420.6094" fill="#ADD1B2" rx="11" ry="11" style="stroke:#181818;stroke-width:1.0;"/><path d="M717.2031,426.0469 Q716.2813,426.9688 714.0156,426.9688 Q712.75,426.9688 711.8281,426.0469 Q710.1719,424.3906 710.1719,420.8594 Q710.1719,416.75 711.9531,414.9531 Q712.8906,414.0313 714.0781,414.0313 Q716.3438,414.0313 717.0781,414.75 Q718.4688,416.1563 718.4063,418.5469 L715.9375,418.5469 Q715.875,416.4219 715.1406,415.6875 Q714.75,415.2813 714.0781,415.2813 Q714.0781,415.2813 714.0156,415.75 Q712.6875,417.0781 712.6875,420.7344 Q712.6875,423.9219 713.8281,425.0469 Q714.3594,425.5781 714.3594,425.5781 Q714.6094,425.5781 715.1406,425.0469 Q715.8125,424.3906 715.875,422 L718.4688,422 Q718.2656,424.9844 717.2031,426.0469 Z " fill="#000000"/><text fill="#000000" font-family="sans-serif" font-size="14" lengthAdjust="spacing" textLength="54" x="728.5" y="426.3379">FirstPart</text><line style="stroke:#181818;stroke-width:0.5;" x1="700.5" x2="784.5" y1="436.6094" y2="436.6094"/><text fill="#000000" font-family="sans-serif" font-size="14" lengthAdjust="spacing" textLength="33" x="705.5" y="455.1426">| Part</text><text fill="#000000" font-family="sans-serif" font-size="14" lengthAdjust="spacing" textLength="47" x="705.5" y="472.752">| EChar</text><line style="stroke:#181818;stroke-width:0.5;" x1="700.5" x2="784.5" y1="479.8281" y2="479.8281"/></g><!--class Part--><g id="elem_Part"><rect codeLine="36" fill="#F1F1F1" height="83.2188" id="Part" rx="2.5" ry="2.5" style="stroke:#181818;stroke-width:0.5;" width="58" x="820.5" y="404.6094"/><ellipse cx="835.5" cy="420.6094" fill="#ADD1B2" rx="11" ry="11" style="stroke:#181818;stroke-width:1.0;"/><path d="M838.2031,426.0469 Q837.2813,426.9688 835.0156,426.9688 Q833.75,426.9688 832.8281,426.0469 Q831.1719,424.3906 831.1719,420.8594 Q831.1719,416.75 832.9531,414.9531 Q833.8906,414.0313 835.0781,414.0313 Q837.3438,414.0313 838.0781,414.75 Q839.4688,416.1563 839.4063,418.5469 L836.9375,418.5469 Q836.875,416.4219 836.1406,415.6875 Q835.75,415.2813 835.0781,415.2813 Q835.0781,415.2813 835.0156,415.75 Q833.6875,417.0781 833.6875,420.7344 Q833.6875,423.9219 834.8281,425.0469 Q835.3594,425.5781 835.3594,425.5781 Q835.6094,425.5781 836.1406,425.0469 Q836.8125,424.3906 836.875,422 L839.4688,422 Q839.2656,424.9844 838.2031,426.0469 Z " fill="#000000"/><text fill="#000000" font-family="sans-serif" font-size="14" lengthAdjust="spacing" textLength="26" x="849.5" y="426.3379">Part</text><line style="stroke:#181818;stroke-width:0.5;" x1="821.5" x2="877.5" y1="436.6094" y2="436.6094"/><text fill="#000000" font-family="sans-serif" font-size="14" lengthAdjust="spacing" textLength="40" x="826.5" y="455.1426">| Node</text><text fill="#000000" font-family="sans-serif" font-size="14" lengthAdjust="spacing" textLength="39" x="826.5" y="472.752">| Each</text><line style="stroke:#181818;stroke-width:0.5;" x1="821.5" x2="877.5" y1="479.8281" y2="479.8281"/></g><!--class Each--><g id="elem_Each"><rect codeLine="41" fill="#F1F1F1" height="83.2188" id="Each" rx="2.5" ry="2.5" style="stroke:#181818;stroke-width:0.5;" width="180" x="681.5" y="547.6094"/><ellipse cx="744.25" cy="563.6094" fill="#ADD1B2" rx="11" ry="11" style="stroke:#181818;stroke-width:1.0;"/><path d="M746.9531,569.0469 Q746.0313,569.9688 743.7656,569.9688 Q742.5,569.9688 741.5781,569.0469 Q739.9219,567.3906 739.9219,563.8594 Q739.9219,559.75 741.7031,557.9531 Q742.6406,557.0313 743.8281,557.0313 Q746.0938,557.0313 746.8281,557.75 Q748.2188,559.1563 748.1563,561.5469 L745.6875,561.5469 Q745.625,559.4219 744.8906,558.6875 Q744.5,558.2813 743.8281,558.2813 Q743.8281,558.2813 743.7656,558.75 Q742.4375,560.0781 742.4375,563.7344 Q742.4375,566.9219 743.5781,568.0469 Q744.1094,568.5781 744.1094,568.5781 Q744.3594,568.5781 744.8906,568.0469 Q745.5625,567.3906 745.625,565 L748.2188,565 Q748.0156,567.9844 746.9531,569.0469 Z " fill="#000000"/><text fill="#000000" font-family="sans-serif" font-size="14" lengthAdjust="spacing" textLength="32" x="764.75" y="569.3379">Each</text><rect fill="#FFFFFF" height="17.0938" style="stroke:#181818;stroke-width:1.0;stroke-dasharray:2.0,2.0;" width="12" x="852.5" y="544.6094"/><text fill="#000000" font-family="sans-serif" font-size="12" font-style="italic" lengthAdjust="spacing" textLength="4" x="856.5" y="558.0664">I</text><line style="stroke:#181818;stroke-width:0.5;" x1="682.5" x2="860.5" y1="579.6094" y2="579.6094"/><text fill="#000000" font-family="sans-serif" font-size="14" lengthAdjust="spacing" textLength="127" x="687.5" y="598.1426">source : Array | Lian</text><line style="stroke:#181818;stroke-width:0.5;" x1="682.5" x2="860.5" y1="605.2188" y2="605.2188"/><text fill="#000000" font-family="sans-serif" font-size="14" lengthAdjust="spacing" textLength="168" x="687.5" y="623.752">create : ( item : I ) =&gt; Node</text></g><!--class Text--><g id="elem_Text"><rect codeLine="46" fill="#F1F1F1" height="83.2188" id="Text" rx="2.5" ry="2.5" style="stroke:#181818;stroke-width:0.5;" width="109" x="877" y="690.6094"/><ellipse cx="914.5" cy="706.6094" fill="#ADD1B2" rx="11" ry="11" style="stroke:#181818;stroke-width:1.0;"/><path d="M917.2031,712.0469 Q916.2813,712.9688 914.0156,712.9688 Q912.75,712.9688 911.8281,712.0469 Q910.1719,710.3906 910.1719,706.8594 Q910.1719,702.75 911.9531,700.9531 Q912.8906,700.0313 914.0781,700.0313 Q916.3438,700.0313 917.0781,700.75 Q918.4688,702.1563 918.4063,704.5469 L915.9375,704.5469 Q915.875,702.4219 915.1406,701.6875 Q914.75,701.2813 914.0781,701.2813 Q914.0781,701.2813 914.0156,701.75 Q912.6875,703.0781 912.6875,706.7344 Q912.6875,709.9219 913.8281,711.0469 Q914.3594,711.5781 914.3594,711.5781 Q914.6094,711.5781 915.1406,711.0469 Q915.8125,710.3906 915.875,708 L918.4688,708 Q918.2656,710.9844 917.2031,712.0469 Z " fill="#000000"/><text fill="#000000" font-family="sans-serif" font-size="14" lengthAdjust="spacing" textLength="27" x="933.5" y="712.3379">Text</text><line style="stroke:#181818;stroke-width:0.5;" x1="878" x2="985" y1="722.6094" y2="722.6094"/><text fill="#000000" font-family="sans-serif" font-size="14" lengthAdjust="spacing" textLength="97" x="883" y="741.1426">| StrSrc &lt; any &gt;</text><text fill="#000000" font-family="sans-serif" font-size="14" lengthAdjust="spacing" textLength="30" x="883" y="758.752">| any</text><line style="stroke:#181818;stroke-width:0.5;" x1="878" x2="985" y1="765.8281" y2="765.8281"/></g><!--class Node--><g id="elem_Node"><rect codeLine="51" fill="#F1F1F1" height="83.2188" id="Node" rx="2.5" ry="2.5" style="stroke:#181818;stroke-width:0.5;" width="70" x="896.5" y="547.6094"/><ellipse cx="913.75" cy="563.6094" fill="#ADD1B2" rx="11" ry="11" style="stroke:#181818;stroke-width:1.0;"/><path d="M916.4531,569.0469 Q915.5313,569.9688 913.2656,569.9688 Q912,569.9688 911.0781,569.0469 Q909.4219,567.3906 909.4219,563.8594 Q909.4219,559.75 911.2031,557.9531 Q912.1406,557.0313 913.3281,557.0313 Q915.5938,557.0313 916.3281,557.75 Q917.7188,559.1563 917.6563,561.5469 L915.1875,561.5469 Q915.125,559.4219 914.3906,558.6875 Q914,558.2813 913.3281,558.2813 Q913.3281,558.2813 913.2656,558.75 Q911.9375,560.0781 911.9375,563.7344 Q911.9375,566.9219 913.0781,568.0469 Q913.6094,568.5781 913.6094,568.5781 Q913.8594,568.5781 914.3906,568.0469 Q915.0625,567.3906 915.125,565 L917.7188,565 Q917.5156,567.9844 916.4531,569.0469 Z " fill="#000000"/><text fill="#000000" font-family="sans-serif" font-size="14" lengthAdjust="spacing" textLength="33" x="928.25" y="569.3379">Node</text><line style="stroke:#181818;stroke-width:0.5;" x1="897.5" x2="965.5" y1="579.6094" y2="579.6094"/><text fill="#000000" font-family="sans-serif" font-size="14" lengthAdjust="spacing" textLength="58" x="902.5" y="598.1426">| Element</text><text fill="#000000" font-family="sans-serif" font-size="14" lengthAdjust="spacing" textLength="34" x="902.5" y="615.752">| Text</text><line style="stroke:#181818;stroke-width:0.5;" x1="897.5" x2="965.5" y1="622.8281" y2="622.8281"/></g><!--class Props--><g id="elem_Props"><rect fill="#F1F1F1" height="48" id="Props" rx="2.5" ry="2.5" style="stroke:#181818;stroke-width:0.5;" width="69" x="501" y="422.1094"/><ellipse cx="516" cy="438.1094" fill="#ADD1B2" rx="11" ry="11" style="stroke:#181818;stroke-width:1.0;"/><path d="M518.7031,443.5469 Q517.7813,444.4688 515.5156,444.4688 Q514.25,444.4688 513.3281,443.5469 Q511.6719,441.8906 511.6719,438.3594 Q511.6719,434.25 513.4531,432.4531 Q514.3906,431.5313 515.5781,431.5313 Q517.8438,431.5313 518.5781,432.25 Q519.9688,433.6563 519.9063,436.0469 L517.4375,436.0469 Q517.375,433.9219 516.6406,433.1875 Q516.25,432.7813 515.5781,432.7813 Q515.5781,432.7813 515.5156,433.25 Q514.1875,434.5781 514.1875,438.2344 Q514.1875,441.4219 515.3281,442.5469 Q515.8594,443.0781 515.8594,443.0781 Q516.1094,443.0781 516.6406,442.5469 Q517.3125,441.8906 517.375,439.5 L519.9688,439.5 Q519.7656,442.4844 518.7031,443.5469 Z " fill="#000000"/><text fill="#000000" font-family="sans-serif" font-size="14" lengthAdjust="spacing" textLength="37" x="530" y="443.8379">Props</text><line style="stroke:#181818;stroke-width:0.5;" x1="502" x2="569" y1="454.1094" y2="454.1094"/><line style="stroke:#181818;stroke-width:0.5;" x1="502" x2="569" y1="462.1094" y2="462.1094"/></g><!--class Acts--><g id="elem_Acts"><rect fill="#F1F1F1" height="48" id="Acts" rx="2.5" ry="2.5" style="stroke:#181818;stroke-width:0.5;" width="59" x="605" y="422.1094"/><ellipse cx="620" cy="438.1094" fill="#ADD1B2" rx="11" ry="11" style="stroke:#181818;stroke-width:1.0;"/><path d="M622.7031,443.5469 Q621.7813,444.4688 619.5156,444.4688 Q618.25,444.4688 617.3281,443.5469 Q615.6719,441.8906 615.6719,438.3594 Q615.6719,434.25 617.4531,432.4531 Q618.3906,431.5313 619.5781,431.5313 Q621.8438,431.5313 622.5781,432.25 Q623.9688,433.6563 623.9063,436.0469 L621.4375,436.0469 Q621.375,433.9219 620.6406,433.1875 Q620.25,432.7813 619.5781,432.7813 Q619.5781,432.7813 619.5156,433.25 Q618.1875,434.5781 618.1875,438.2344 Q618.1875,441.4219 619.3281,442.5469 Q619.8594,443.0781 619.8594,443.0781 Q620.1094,443.0781 620.6406,442.5469 Q621.3125,441.8906 621.375,439.5 L623.9688,439.5 Q623.7656,442.4844 622.7031,443.5469 Z " fill="#000000"/><text fill="#000000" font-family="sans-serif" font-size="14" lengthAdjust="spacing" textLength="27" x="634" y="443.8379">Acts</text><line style="stroke:#181818;stroke-width:0.5;" x1="606" x2="663" y1="454.1094" y2="454.1094"/><line style="stroke:#181818;stroke-width:0.5;" x1="606" x2="663" y1="462.1094" y2="462.1094"/></g><!--class Parts--><g id="elem_Parts"><rect fill="#F1F1F1" height="48" id="Parts" rx="2.5" ry="2.5" style="stroke:#181818;stroke-width:0.5;" width="65" x="761" y="261.6094"/><ellipse cx="776" cy="277.6094" fill="#ADD1B2" rx="11" ry="11" style="stroke:#181818;stroke-width:1.0;"/><path d="M778.7031,283.0469 Q777.7813,283.9688 775.5156,283.9688 Q774.25,283.9688 773.3281,283.0469 Q771.6719,281.3906 771.6719,277.8594 Q771.6719,273.75 773.4531,271.9531 Q774.3906,271.0313 775.5781,271.0313 Q777.8438,271.0313 778.5781,271.75 Q779.9688,273.1563 779.9063,275.5469 L777.4375,275.5469 Q777.375,273.4219 776.6406,272.6875 Q776.25,272.2813 775.5781,272.2813 Q775.5781,272.2813 775.5156,272.75 Q774.1875,274.0781 774.1875,277.7344 Q774.1875,280.9219 775.3281,282.0469 Q775.8594,282.5781 775.8594,282.5781 Q776.1094,282.5781 776.6406,282.0469 Q777.3125,281.3906 777.375,279 L779.9688,279 Q779.7656,281.9844 778.7031,283.0469 Z " fill="#000000"/><text fill="#000000" font-family="sans-serif" font-size="14" lengthAdjust="spacing" textLength="33" x="790" y="283.3379">Parts</text><line style="stroke:#181818;stroke-width:0.5;" x1="762" x2="825" y1="293.6094" y2="293.6094"/><line style="stroke:#181818;stroke-width:0.5;" x1="762" x2="825" y1="301.6094" y2="301.6094"/></g><!--reverse link EChar to Class--><g id="link_EChar_Class"><path codeLine="56" d="M380.1118,322.7931 C318.1218,349.0731 240.85,381.8194 176.15,409.2394 " fill="none" id="EChar-backto-Class" style="stroke:#181818;stroke-width:1.0;"/><polygon fill="#181818" points="391.16,318.1094,384.0747,316.7685,380.1118,322.7931,387.1972,324.134,391.16,318.1094" style="stroke:#181818;stroke-width:1.0;"/></g><!--reverse link EChar to Attrs--><g id="link_EChar_Attrs"><path codeLine="57" d="M381.5505,348.4993 C344.1605,376.0593 310.5,400.8794 281.91,421.9594 " fill="none" id="EChar-backto-Attrs" style="stroke:#181818;stroke-width:1.0;"/><polygon fill="#181818" points="391.21,341.3794,384.0069,341.7195,381.5505,348.4993,388.7536,348.1592,391.21,341.3794" style="stroke:#181818;stroke-width:1.0;"/></g><!--reverse link EChar to Props--><g id="link_EChar_Props"><path codeLine="58" d="M496.0169,355.707 C507.7969,382.387 516.26,401.5394 525.19,421.7694 " fill="none" id="EChar-backto-Props" style="stroke:#181818;stroke-width:1.0;"/><polygon fill="#181818" points="491.17,344.7294,489.9343,351.8338,496.0169,355.707,497.2527,348.6025,491.17,344.7294" style="stroke:#181818;stroke-width:1.0;"/></g><!--reverse link EChar to Style--><g id="link_EChar_Style"><path codeLine="59" d="M434.9838,355.7073 C424.8438,378.6773 418.41,393.2294 409.77,412.7894 " fill="none" id="EChar-backto-Style" style="stroke:#181818;stroke-width:1.0;"/><polygon fill="#181818" points="439.83,344.7294,433.7476,348.603,434.9838,355.7073,441.0662,351.8337,439.83,344.7294" style="stroke:#181818;stroke-width:1.0;"/></g><!--reverse link EChar to Acts--><g id="link_EChar_Acts"><path codeLine="60" d="M536.2232,352.938 C564.6732,379.618 588.04,401.5394 609.61,421.7694 " fill="none" id="EChar-backto-Acts" style="stroke:#181818;stroke-width:1.0;"/><polygon fill="#181818" points="527.47,344.7294,529.1104,351.7514,536.2232,352.938,534.5828,345.916,527.47,344.7294" style="stroke:#181818;stroke-width:1.0;"/></g><!--reverse link Element to EChar--><g id="link_Element_EChar"><path codeLine="62" d="M695.8867,160.9844 C643.8867,188.8944 589.11,218.2794 539.59,244.8594 " fill="none" id="Element-backto-EChar" style="stroke:#181818;stroke-width:1.0;"/><polygon fill="#181818" points="706.46,155.3094,699.2817,154.6225,695.8867,160.9844,703.065,161.6713,706.46,155.3094" style="stroke:#181818;stroke-width:1.0;"/></g><!--reverse link Element to Parts--><g id="link_Element_Parts"><path codeLine="63" d="M793.5,178.7294 C793.5,210.9694 793.5,237.2794 793.5,261.2794 " fill="none" id="Element-backto-Parts" style="stroke:#181818;stroke-width:1.0;"/><polygon fill="#181818" points="793.5,166.7294,789.5,172.7294,793.5,178.7294,797.5,172.7294,793.5,166.7294" style="stroke:#181818;stroke-width:1.0;"/></g><!--reverse link Parts to FirstPart--><g id="link_Parts_FirstPart"><path codeLine="64" d="M782.4057,321.083 C774.4257,345.893 765.24,374.4294 755.56,404.5294 " fill="none" id="Parts-backto-FirstPart" style="stroke:#181818;stroke-width:1.0;"/><polygon fill="#181818" points="786.08,309.6594,780.435,314.1464,782.4057,321.083,788.0507,316.596,786.08,309.6594" style="stroke:#181818;stroke-width:1.0;"/></g><!--reverse link Parts to Part--><g id="link_Parts_Part"><path codeLine="65" d="M805.6393,320.9733 C814.4093,345.7833 824.53,374.4294 835.16,404.5294 " fill="none" id="Parts-backto-Part" style="stroke:#181818;stroke-width:1.0;"/><polygon fill="#181818" points="801.64,309.6594,799.8683,316.6495,805.6393,320.9733,807.411,313.9832,801.64,309.6594" style="stroke:#181818;stroke-width:1.0;"/></g><!--link Part to Node--><g id="link_Part_Node"><path codeLine="66" d="M873.22,487.8894 C884.1,506.5994 887.9079,513.1611 898.7879,531.8611 " fill="none" id="Part-to-Node" style="stroke:#181818;stroke-width:1.0;"/><polygon fill="none" points="907.84,547.4194,903.974,528.8437,893.6018,534.8785,907.84,547.4194" style="stroke:#181818;stroke-width:1.0;"/></g><!--link Part to Each--><g id="link_Part_Each"><path codeLine="67" d="M826.94,487.8894 C816.59,506.5994 813.0601,512.9671 802.7201,531.6671 " fill="none" id="Part-to-Each" style="stroke:#181818;stroke-width:1.0;"/><polygon fill="none" points="794.01,547.4194,807.9708,534.5705,797.4693,528.7637,794.01,547.4194" style="stroke:#181818;stroke-width:1.0;"/></g><!--link Node to Text--><g id="link_Node_Text"><path codeLine="68" d="M931.5,630.8894 C931.5,649.5994 931.5,653.7194 931.5,672.4194 " fill="none" id="Node-to-Text" style="stroke:#181818;stroke-width:1.0;"/><polygon fill="none" points="931.5,690.4194,937.5,672.4194,925.5,672.4194,931.5,690.4194" style="stroke:#181818;stroke-width:1.0;"/></g><!--link Node to Element--><g id="link_Node_Element"><path codeLine="69" d="M924.61,547.4294 C918.03,510.0894 907.37,453.3394 895.5,404.6094 C875.99,324.5294 871.18,304.2394 843.5,226.6094 C836.48,206.9094 834.9553,202.3163 826.8753,183.4463 " fill="none" id="Node-to-Element" style="stroke:#181818;stroke-width:1.0;"/><polygon fill="none" points="819.79,166.8994,821.3596,185.808,832.3909,181.0845,819.79,166.8994" style="stroke:#181818;stroke-width:1.0;"/></g><!--SRC=[JLBBQiCm43n7Nx77ljmFCAaX11S2fGJSMyX1o6fZi6KZRQ76phzNgxKbNwITORmxEnOss6ge- -wrrjzE2DLAvw1iTQSDmXvAA60IksSm3d9mQ1lpGn37GNk2IgrkqlgwFFgRY45Q9FK5tXlhyEpX2z09Lt5VHnp3wLlFiUiC4nZPwJW8PgZGLbR1FNqOnh0d9dBkHOH4j6vndSE1K31a-o7HPq94EnnR6bRHdGOSDaqcaVWWey6Nu39VF5vzXo_zXqaOj-RrgAARyucg9FZiQnq4KjqsUthaNPpu1xZ-roeoUx1MZZwOZqOQiLDMIoJw0HhKdIzEy0Xl1VUClSWVprhot8Cq8nJ4-289wJCMBa-0odKxJlufovR04-Qa4-Q84-Q4Dtg5_gsjhumO3cVBK3vEX3FWcEg6Yn2oR5wMJZ3a6JOACAoHuBhWFm00]--></g></svg>