<?xml version="1.0" encoding="UTF-8" standalone="no"?><svg xmlns="http://www.w3.org/2000/svg" xmlns:xlink="http://www.w3.org/1999/xlink" contentStyleType="text/css" height="426px" preserveAspectRatio="none" style="width:473px;height:426px;background:#FFFFFF;" version="1.1" viewBox="0 0 473 426" width="473px" zoomAndPan="magnify"><defs/><g><text fill="#000000" font-family="&quot;arial&quot;" font-size="14" font-weight="bold" lengthAdjust="spacing" textLength="50" x="204.75" y="24.5332">Marker</text><!--class Marker--><g id="elem_Marker"><rect codeLine="5" fill="#F1F1F1" height="100.8281" id="Marker" rx="2.5" ry="2.5" style="stroke:#181818;stroke-width:0.5;" width="273" x="9" y="48.6094"/><ellipse cx="77.75" cy="64.6094" fill="#ADD1B2" rx="11" ry="11" style="stroke:#181818;stroke-width:1.0;"/><path d="M80.4531,70.0469 Q79.5313,70.9688 77.2656,70.9688 Q76,70.9688 75.0781,70.0469 Q73.4219,68.3906 73.4219,64.8594 Q73.4219,60.75 75.2031,58.9531 Q76.1406,58.0313 77.3281,58.0313 Q79.5938,58.0313 80.3281,58.75 Q81.7188,60.1563 81.6563,62.5469 L79.1875,62.5469 Q79.125,60.4219 78.3906,59.6875 Q78,59.2813 77.3281,59.2813 Q77.3281,59.2813 77.2656,59.75 Q75.9375,61.0781 75.9375,64.7344 Q75.9375,67.9219 77.0781,69.0469 Q77.6094,69.5781 77.6094,69.5781 Q77.8594,69.5781 78.3906,69.0469 Q79.0625,68.3906 79.125,66 L81.7188,66 Q81.5156,68.9844 80.4531,70.0469 Z " fill="#000000"/><text fill="#000000" font-family="&quot;arial&quot;" font-size="14" lengthAdjust="spacing" textLength="44" x="98.25" y="70.3379">Marker</text><rect fill="#FFFFFF" height="15.7988" style="stroke:#181818;stroke-width:1.0;stroke-dasharray:2.0,2.0;" width="81" x="204" y="45.6094"/><text fill="#000000" font-family="arial" font-size="12" font-style="italic" lengthAdjust="spacing" textLength="73" x="208" y="58.0615">Source, State</text><line style="stroke:#181818;stroke-width:0.5;" x1="10" x2="281" y1="80.6094" y2="80.6094"/><rect fill="none" height="6" style="stroke:#C82930;stroke-width:1.0;" width="6" x="17" y="91.9141"/><text fill="#000000" font-family="&quot;arial&quot;" font-size="14" lengthAdjust="spacing" textLength="247" x="29" y="99.1426">marks : Map &lt; Source, Leaf &lt; State &gt; &gt;</text><line style="stroke:#181818;stroke-width:0.5;" x1="10" x2="281" y1="106.2188" y2="106.2188"/><ellipse cx="20" cy="120.5234" fill="#84BE84" rx="3" ry="3" style="stroke:#038048;stroke-width:1.0;"/><text fill="#000000" font-family="&quot;arial&quot;" font-size="14" lengthAdjust="spacing" textLength="167" x="29" y="124.752">make_mark( source, initv )</text><polygon fill="#FFFF44" points="20,133.1328,24,137.1328,20,141.1328,16,137.1328" style="stroke:#B38D22;stroke-width:1.0;"/><text fill="#000000" font-family="&quot;arial&quot;" font-size="14" lengthAdjust="spacing" textLength="182" x="29" y="142.3613">[ _removepart ]( part : Mark )</text></g><!--class Mark--><g id="elem_Mark"><rect codeLine="11" fill="#F1F1F1" height="83.2188" id="Mark" rx="2.5" ry="2.5" style="stroke:#181818;stroke-width:0.5;" width="146" x="72.5" y="210.6094"/><ellipse cx="87.5" cy="226.6094" fill="#ADD1B2" rx="11" ry="11" style="stroke:#181818;stroke-width:1.0;"/><path d="M90.2031,232.0469 Q89.2813,232.9688 87.0156,232.9688 Q85.75,232.9688 84.8281,232.0469 Q83.1719,230.3906 83.1719,226.8594 Q83.1719,222.75 84.9531,220.9531 Q85.8906,220.0313 87.0781,220.0313 Q89.3438,220.0313 90.0781,220.75 Q91.4688,222.1563 91.4063,224.5469 L88.9375,224.5469 Q88.875,222.4219 88.1406,221.6875 Q87.75,221.2813 87.0781,221.2813 Q87.0781,221.2813 87.0156,221.75 Q85.6875,223.0781 85.6875,226.7344 Q85.6875,229.9219 86.8281,231.0469 Q87.3594,231.5781 87.3594,231.5781 Q87.6094,231.5781 88.1406,231.0469 Q88.8125,230.3906 88.875,228 L91.4688,228 Q91.2656,230.9844 90.2031,232.0469 Z " fill="#000000"/><text fill="#000000" font-family="&quot;arial&quot;" font-size="14" lengthAdjust="spacing" textLength="31" x="101.5" y="232.3379">Mark</text><rect fill="#FFFFFF" height="15.7988" style="stroke:#181818;stroke-width:1.0;stroke-dasharray:2.0,2.0;" width="81" x="140.5" y="207.6094"/><text fill="#000000" font-family="arial" font-size="12" font-style="italic" lengthAdjust="spacing" textLength="73" x="144.5" y="220.0615">Source, State</text><line style="stroke:#181818;stroke-width:0.5;" x1="73.5" x2="217.5" y1="242.6094" y2="242.6094"/><text fill="#000000" font-family="&quot;arial&quot;" font-size="14" lengthAdjust="spacing" textLength="100" x="78.5" y="261.1426">source : Source</text><text fill="#000000" font-family="&quot;arial&quot;" font-size="14" lengthAdjust="spacing" textLength="79" x="78.5" y="278.752">value : State</text><line style="stroke:#181818;stroke-width:0.5;" x1="73.5" x2="217.5" y1="285.8281" y2="285.8281"/></g><!--class Leaf--><g id="elem_Leaf"><rect fill="#F1F1F1" height="48" id="Leaf" rx="2.5" ry="2.5" style="stroke:#181818;stroke-width:0.5;" width="60" x="253.5" y="228.1094"/><ellipse cx="268.5" cy="244.1094" fill="#ADD1B2" rx="11" ry="11" style="stroke:#181818;stroke-width:1.0;"/><path d="M271.2031,249.5469 Q270.2813,250.4688 268.0156,250.4688 Q266.75,250.4688 265.8281,249.5469 Q264.1719,247.8906 264.1719,244.3594 Q264.1719,240.25 265.9531,238.4531 Q266.8906,237.5313 268.0781,237.5313 Q270.3438,237.5313 271.0781,238.25 Q272.4688,239.6563 272.4063,242.0469 L269.9375,242.0469 Q269.875,239.9219 269.1406,239.1875 Q268.75,238.7813 268.0781,238.7813 Q268.0781,238.7813 268.0156,239.25 Q266.6875,240.5781 266.6875,244.2344 Q266.6875,247.4219 267.8281,248.5469 Q268.3594,249.0781 268.3594,249.0781 Q268.6094,249.0781 269.1406,248.5469 Q269.8125,247.8906 269.875,245.5 L272.4688,245.5 Q272.2656,248.4844 271.2031,249.5469 Z " fill="#000000"/><text fill="#000000" font-family="&quot;arial&quot;" font-size="14" lengthAdjust="spacing" textLength="28" x="282.5" y="249.8379">Leaf</text><line style="stroke:#181818;stroke-width:0.5;" x1="254.5" x2="312.5" y1="260.1094" y2="260.1094"/><line style="stroke:#181818;stroke-width:0.5;" x1="254.5" x2="312.5" y1="268.1094" y2="268.1094"/></g><!--class Source--><g id="elem_Source"><rect fill="#F1F1F1" height="48" id="Source" rx="2.5" ry="2.5" style="stroke:#181818;stroke-width:0.5;" width="77" x="107" y="371.6094"/><ellipse cx="122" cy="387.6094" fill="#ADD1B2" rx="11" ry="11" style="stroke:#181818;stroke-width:1.0;"/><path d="M124.7031,393.0469 Q123.7813,393.9688 121.5156,393.9688 Q120.25,393.9688 119.3281,393.0469 Q117.6719,391.3906 117.6719,387.8594 Q117.6719,383.75 119.4531,381.9531 Q120.3906,381.0313 121.5781,381.0313 Q123.8438,381.0313 124.5781,381.75 Q125.9688,383.1563 125.9063,385.5469 L123.4375,385.5469 Q123.375,383.4219 122.6406,382.6875 Q122.25,382.2813 121.5781,382.2813 Q121.5781,382.2813 121.5156,382.75 Q120.1875,384.0781 120.1875,387.7344 Q120.1875,390.9219 121.3281,392.0469 Q121.8594,392.5781 121.8594,392.5781 Q122.1094,392.5781 122.6406,392.0469 Q123.3125,391.3906 123.375,389 L125.9688,389 Q125.7656,391.9844 124.7031,393.0469 Z " fill="#000000"/><text fill="#000000" font-family="&quot;arial&quot;" font-size="14" lengthAdjust="spacing" textLength="45" x="136" y="393.3379">Source</text><line style="stroke:#181818;stroke-width:0.5;" x1="108" x2="183" y1="403.6094" y2="403.6094"/><line style="stroke:#181818;stroke-width:0.5;" x1="108" x2="183" y1="411.6094" y2="411.6094"/></g><!--link Marker to Mark--><g id="link_Marker_Mark"><path codeLine="16" d="M145.5,161.9694 C145.5,161.9694 145.5,198.3594 145.5,198.3594 " fill="none" id="Marker-Mark" style="stroke:#181818;stroke-width:1.0;"/><polygon fill="#181818" points="145.5,149.9694,141.5,155.9694,145.5,161.9694,149.5,155.9694,145.5,149.9694" style="stroke:#181818;stroke-width:1.0;"/><polygon fill="none" points="145.5,210.3594,149.5,204.3594,145.5,198.3594,141.5,204.3594,145.5,210.3594" style="stroke:#181818;stroke-width:1.0;"/></g><!--link Mark to Leaf--><g id="link_Mark_Leaf"><path codeLine="18" d="M218.54,252.1094 C223.43,252.1094 228.32,252.1094 233.21,252.1094 " fill="none" id="Mark-to-Leaf" style="stroke:#181818;stroke-width:1.0;"/><polygon fill="none" points="233.31,245.1094,253.31,252.1094,233.31,259.1094,233.31,245.1094" style="stroke:#181818;stroke-width:1.0;"/></g><!--link Mark to Source--><g id="link_Mark_Source"><path codeLine="19" d="M145.5,305.6594 C145.5,305.6594 145.5,359.2794 145.5,359.2794 " fill="none" id="Mark-Source" style="stroke:#181818;stroke-width:1.0;"/><polygon fill="none" points="145.5,293.6594,141.5,299.6594,145.5,305.6594,149.5,299.6594,145.5,293.6594" style="stroke:#181818;stroke-width:1.0;"/><polygon fill="none" points="145.5,371.2794,149.5,365.2794,145.5,359.2794,141.5,365.2794,145.5,371.2794" style="stroke:#181818;stroke-width:1.0;"/><text fill="#000000" font-family="&quot;arial&quot;" font-size="13" lengthAdjust="spacing" textLength="319" x="146.5" y="338.1045">Mark の消滅は source の消滅に同期し Markerに通知。</text></g><!--SRC=[AyxEp2j8B4hCLN19JKiipIbnoyyhyKlCJLLGIYpAJCnHuk8goIp9ILNmJIpAJYtYuahEIImkXl8KR1I2yqkBabDr589B4ajI5UmKghaujHLo4xDJutE1IZGKYg7ocNcP9MKAcboSkWeWYM85Aw0P1KW6-AGcfe6uK7Fik3YL5Q8LuejIS_FBKe4kB568rL00qrPWsu5crIAx1hjR8DO3jK3ak3ZB4dDAmNoG6f09K9zewUhcWys1Y2ZerjY1dGJXvODaWs5cGUnxtBZksRQEPxjR7pUkXteJMMprqmazp-RCVzmu7HfOGA6N3REUpr_wkA490000]--></g></svg>