<?xml version="1.0" encoding="us-ascii" standalone="no"?><svg xmlns="http://www.w3.org/2000/svg" xmlns:xlink="http://www.w3.org/1999/xlink" contentStyleType="text/css" height="483px" preserveAspectRatio="none" style="width:441px;height:483px;background:#FFFFFF;" version="1.1" viewBox="0 0 441 483" width="441px" zoomAndPan="magnify"><defs/><g><text fill="#000000" font-family="arial" font-size="14" font-weight="bold" lengthAdjust="spacing" textLength="34" x="196.5" y="23.3608">Exist</text><!--class Container--><g id="elem_Container"><rect codeLine="6" fill="#F1F1F1" height="96.2959" id="Container" rx="2.5" ry="2.5" style="stroke:#181818;stroke-width:0.5;" width="172" x="261" y="184.0986"/><ellipse cx="311.75" cy="200.0986" fill="#ADD1B2" rx="11" ry="11" style="stroke:#181818;stroke-width:1.0;"/><path d="M314.4531,205.5361 Q313.5313,206.458 311.2656,206.458 Q310,206.458 309.0781,205.5361 Q307.4219,203.8799 307.4219,200.3486 Q307.4219,196.2393 309.2031,194.4424 Q310.1406,193.5205 311.3281,193.5205 Q313.5938,193.5205 314.3281,194.2393 Q315.7188,195.6455 315.6563,198.0361 L313.1875,198.0361 Q313.125,195.9111 312.3906,195.1768 Q312,194.7705 311.3281,194.7705 Q311.3281,194.7705 311.2656,195.2393 Q309.9375,196.5674 309.9375,200.2236 Q309.9375,203.4111 311.0781,204.5361 Q311.6094,205.0674 311.6094,205.0674 Q311.8594,205.0674 312.3906,204.5361 Q313.0625,203.8799 313.125,201.4893 L315.7188,201.4893 Q315.5156,204.4736 314.4531,205.5361 Z " fill="#000000"/><text fill="#000000" font-family="arial" font-size="14" lengthAdjust="spacing" textLength="62" x="332.25" y="205.4102">Container</text><line style="stroke:#181818;stroke-width:0.5;" x1="262" x2="432" y1="216.0986" y2="216.0986"/><ellipse cx="272" cy="229.6479" fill="none" rx="3" ry="3" style="stroke:#038048;stroke-width:1.0;"/><text fill="#000000" font-family="arial" font-size="14" lengthAdjust="spacing" textLength="146" x="281" y="233.4595">[ _parts ] : Set &lt; Exist &gt;</text><line style="stroke:#181818;stroke-width:1.0;stroke-dasharray:1.0,2.0;" x1="262" x2="432" y1="240.1973" y2="240.1973"/><ellipse cx="272" cy="253.7466" fill="#84BE84" rx="3" ry="3" style="stroke:#038048;stroke-width:1.0;"/><text fill="#000000" font-family="arial" font-size="14" lengthAdjust="spacing" textLength="69" x="281" y="257.5581">terminate()</text><text fill="#000000" font-family="arial" font-size="14" lengthAdjust="spacing" textLength="4" x="281" y="273.6567">&#160;</text></g><!--class Exist--><g id="elem_Exist"><rect codeLine="13" fill="#F1F1F1" height="136.4932" id="Exist" rx="2.5" ry="2.5" style="stroke:#181818;stroke-width:0.5;" width="174" x="260" y="340.0986"/><ellipse cx="328.25" cy="356.0986" fill="#ADD1B2" rx="11" ry="11" style="stroke:#181818;stroke-width:1.0;"/><path d="M330.9531,361.5361 Q330.0313,362.458 327.7656,362.458 Q326.5,362.458 325.5781,361.5361 Q323.9219,359.8799 323.9219,356.3486 Q323.9219,352.2393 325.7031,350.4424 Q326.6406,349.5205 327.8281,349.5205 Q330.0938,349.5205 330.8281,350.2393 Q332.2188,351.6455 332.1563,354.0361 L329.6875,354.0361 Q329.625,351.9111 328.8906,351.1768 Q328.5,350.7705 327.8281,350.7705 Q327.8281,350.7705 327.7656,351.2393 Q326.4375,352.5674 326.4375,356.2236 Q326.4375,359.4111 327.5781,360.5361 Q328.1094,361.0674 328.1094,361.0674 Q328.3594,361.0674 328.8906,360.5361 Q329.5625,359.8799 329.625,357.4893 L332.2188,357.4893 Q332.0156,360.4736 330.9531,361.5361 Z " fill="#000000"/><text fill="#000000" font-family="arial" font-size="14" lengthAdjust="spacing" textLength="29" x="348.75" y="361.4102">Exist</text><line style="stroke:#181818;stroke-width:0.5;" x1="261" x2="433" y1="372.0986" y2="372.0986"/><ellipse cx="271" cy="385.6479" fill="none" rx="3" ry="3" style="stroke:#038048;stroke-width:1.0;"/><text fill="#000000" font-family="arial" font-size="14" lengthAdjust="spacing" textLength="133" x="280" y="389.4595">container : Container</text><line style="stroke:#181818;stroke-width:1.0;stroke-dasharray:1.0,2.0;" x1="261" x2="433" y1="396.1973" y2="396.1973"/><ellipse cx="271" cy="409.7466" fill="#84BE84" rx="3" ry="3" style="stroke:#038048;stroke-width:1.0;"/><text fill="#000000" font-family="arial" font-size="14" lengthAdjust="spacing" textLength="148" x="280" y="413.5581">addRef( ref : Exist.Ref )</text><ellipse cx="271" cy="425.8452" fill="#84BE84" rx="3" ry="3" style="stroke:#038048;stroke-width:1.0;"/><text fill="#000000" font-family="arial" font-size="14" lengthAdjust="spacing" textLength="104" x="280" y="429.6567">removeRef( ref )</text><polygon fill="none" points="271,436.9438,275,440.9438,271,444.9438,267,440.9438" style="stroke:#B38D22;stroke-width:1.0;"/><text fill="#000000" font-family="arial" font-size="14" lengthAdjust="spacing" textLength="103" x="280" y="445.7554">refs : Set&lt; Ref &gt;</text><line style="stroke:#181818;stroke-width:1.0;stroke-dasharray:1.0,2.0;" x1="261" x2="433" y1="452.4932" y2="452.4932"/><ellipse cx="271" cy="466.0425" fill="#84BE84" rx="3" ry="3" style="stroke:#038048;stroke-width:1.0;"/><text fill="#000000" font-family="arial" font-size="14" lengthAdjust="spacing" textLength="69" x="280" y="469.854">terminate()</text></g><!--class ExistRef--><g id="elem_ExistRef"><rect codeLine="23" fill="#F1F1F1" height="80.1973" id="ExistRef" rx="2.5" ry="2.5" style="stroke:#181818;stroke-width:0.5;" width="218" x="7" y="368.0986"/><ellipse cx="84.25" cy="384.0986" fill="#ADD1B2" rx="11" ry="11" style="stroke:#181818;stroke-width:1.0;"/><path d="M86.9531,389.5361 Q86.0313,390.458 83.7656,390.458 Q82.5,390.458 81.5781,389.5361 Q79.9219,387.8799 79.9219,384.3486 Q79.9219,380.2393 81.7031,378.4424 Q82.6406,377.5205 83.8281,377.5205 Q86.0938,377.5205 86.8281,378.2393 Q88.2188,379.6455 88.1563,382.0361 L85.6875,382.0361 Q85.625,379.9111 84.8906,379.1768 Q84.5,378.7705 83.8281,378.7705 Q83.8281,378.7705 83.7656,379.2393 Q82.4375,380.5674 82.4375,384.2236 Q82.4375,387.4111 83.5781,388.5361 Q84.1094,389.0674 84.1094,389.0674 Q84.3594,389.0674 84.8906,388.5361 Q85.5625,387.8799 85.625,385.4893 L88.2188,385.4893 Q88.0156,388.4736 86.9531,389.5361 Z " fill="#000000"/><text fill="#000000" font-family="arial" font-size="14" lengthAdjust="spacing" textLength="55" x="104.75" y="389.4102">Exist.Ref</text><line style="stroke:#181818;stroke-width:0.5;" x1="8" x2="224" y1="400.0986" y2="400.0986"/><ellipse cx="18" cy="413.6479" fill="none" rx="3" ry="3" style="stroke:#038048;stroke-width:1.0;"/><text fill="#000000" font-family="arial" font-size="14" lengthAdjust="spacing" textLength="84" x="27" y="417.4595">source : Exist</text><line style="stroke:#181818;stroke-width:1.0;stroke-dasharray:1.0,2.0;" x1="8" x2="224" y1="424.1973" y2="424.1973"/><ellipse cx="18" cy="437.7466" fill="#84BE84" rx="3" ry="3" style="stroke:#038048;stroke-width:1.0;"/><text fill="#000000" font-family="arial" font-size="14" lengthAdjust="spacing" textLength="192" x="27" y="441.5581">_new_source( newsrc, oldsrc )</text></g><!--class Set--><g id="elem_Set"><rect codeLine="29" fill="#F1F1F1" height="80.1973" id="Set" rx="2.5" ry="2.5" style="stroke:#181818;stroke-width:0.5;" width="86" x="73" y="44.0986"/><ellipse cx="102.85" cy="60.0986" fill="#ADD1B2" rx="11" ry="11" style="stroke:#181818;stroke-width:1.0;"/><path d="M105.5531,65.5361 Q104.6313,66.458 102.3656,66.458 Q101.1,66.458 100.1781,65.5361 Q98.5219,63.8799 98.5219,60.3486 Q98.5219,56.2393 100.3031,54.4424 Q101.2406,53.5205 102.4281,53.5205 Q104.6938,53.5205 105.4281,54.2393 Q106.8188,55.6455 106.7563,58.0361 L104.2875,58.0361 Q104.225,55.9111 103.4906,55.1768 Q103.1,54.7705 102.4281,54.7705 Q102.4281,54.7705 102.3656,55.2393 Q101.0375,56.5674 101.0375,60.2236 Q101.0375,63.4111 102.1781,64.5361 Q102.7094,65.0674 102.7094,65.0674 Q102.9594,65.0674 103.4906,64.5361 Q104.1625,63.8799 104.225,61.4893 L106.8188,61.4893 Q106.6156,64.4736 105.5531,65.5361 Z " fill="#000000"/><text fill="#000000" font-family="arial" font-size="14" lengthAdjust="spacing" textLength="21" x="120.15" y="65.4102">Set</text><line style="stroke:#181818;stroke-width:0.5;" x1="74" x2="158" y1="76.0986" y2="76.0986"/><line style="stroke:#181818;stroke-width:0.5;" x1="74" x2="158" y1="84.0986" y2="84.0986"/><text fill="#000000" font-family="arial" font-size="14" lengthAdjust="spacing" textLength="59" x="79" y="101.4595">add( ref )</text><text fill="#000000" font-family="arial" font-size="14" lengthAdjust="spacing" textLength="74" x="79" y="117.5581">delete( ref )</text></g><!--class Refs--><g id="elem_Refs"><rect fill="#F1F1F1" height="48" id="Refs" rx="2.5" ry="2.5" style="stroke:#181818;stroke-width:0.5;" width="61" x="85.5" y="208.0986"/><ellipse cx="100.5" cy="224.0986" fill="#ADD1B2" rx="11" ry="11" style="stroke:#181818;stroke-width:1.0;"/><path d="M103.2031,229.5361 Q102.2813,230.458 100.0156,230.458 Q98.75,230.458 97.8281,229.5361 Q96.1719,227.8799 96.1719,224.3486 Q96.1719,220.2393 97.9531,218.4424 Q98.8906,217.5205 100.0781,217.5205 Q102.3438,217.5205 103.0781,218.2393 Q104.4688,219.6455 104.4063,222.0361 L101.9375,222.0361 Q101.875,219.9111 101.1406,219.1768 Q100.75,218.7705 100.0781,218.7705 Q100.0781,218.7705 100.0156,219.2393 Q98.6875,220.5674 98.6875,224.2236 Q98.6875,227.4111 99.8281,228.5361 Q100.3594,229.0674 100.3594,229.0674 Q100.6094,229.0674 101.1406,228.5361 Q101.8125,227.8799 101.875,225.4893 L104.4688,225.4893 Q104.2656,228.4736 103.2031,229.5361 Z " fill="#000000"/><text fill="#000000" font-family="arial" font-size="14" lengthAdjust="spacing" textLength="29" x="114.5" y="229.4102">Refs</text><line style="stroke:#181818;stroke-width:0.5;" x1="86.5" x2="145.5" y1="240.0986" y2="240.0986"/><line style="stroke:#181818;stroke-width:0.5;" x1="86.5" x2="145.5" y1="248.0986" y2="248.0986"/></g><!--reverse link Container to Exist--><g id="link_Container_Exist"><path codeLine="34" d="M320.8547,298.0106 C318.2447,316.4306 320.1,320.0686 321.37,340.0486 " fill="none" id="Container-backto-Exist" style="stroke:#181818;stroke-width:1.0;"/><polygon fill="none" points="323.38,280.1886,314.9141,297.1689,326.7954,298.8524,323.38,280.1886" style="stroke:#181818;stroke-width:1.0;"/></g><!--link Container to Exist--><g id="link_Container_Exist"><path codeLine="35" d="M347,280.1886 C347,298.6086 347,308.0686 347,328.0486 " fill="none" id="Container-to-Exist" style="stroke:#181818;stroke-width:1.0;"/><polygon fill="#181818" points="347,340.0486,351,334.0486,347,328.0486,343,334.0486,347,340.0486" style="stroke:#181818;stroke-width:1.0;"/></g><!--link Container to Exist--><g id="link_Container_Exist"><path codeLine="36" d="M372.3035,292.07 C374.9135,310.49 374.6612,308.0928 373.3912,328.0728 " fill="none" id="Container-Exist" style="stroke:#181818;stroke-width:1.0;"/><polygon fill="#181818" points="370.62,280.1886,367.5013,286.6905,372.3035,292.07,375.4222,285.5681,370.62,280.1886" style="stroke:#181818;stroke-width:1.0;"/><polygon fill="none" points="372.63,340.0486,377.0026,334.3145,373.3912,328.0728,369.0187,333.807,372.63,340.0486" style="stroke:#181818;stroke-width:1.0;"/></g><!--link ExistRef to Exist--><g id="link_ExistRef_Exist"><path codeLine="37" d="M237.18,408.0986 C248.76,408.0986 236.34,408.0986 247.92,408.0986 " fill="none" id="ExistRef-Exist" style="stroke:#181818;stroke-width:1.0;"/><polygon fill="none" points="225.18,408.0986,231.18,412.0986,237.18,408.0986,231.18,404.0986,225.18,408.0986" style="stroke:#181818;stroke-width:1.0;"/><polygon fill="none" points="259.92,408.0986,253.92,404.0986,247.92,408.0986,253.92,412.0986,259.92,408.0986" style="stroke:#181818;stroke-width:1.0;"/></g><!--reverse link Set to Refs--><g id="link_Set_Refs"><path codeLine="39" d="M116,142.2286 C116,168.9186 116,185.3686 116,207.8386 " fill="none" id="Set-backto-Refs" style="stroke:#181818;stroke-width:1.0;"/><polygon fill="none" points="116,124.2286,110,142.2286,122,142.2286,116,124.2286" style="stroke:#181818;stroke-width:1.0;"/></g><!--reverse link Refs to ExistRef--><g id="link_Refs_ExistRef"><path codeLine="40" d="M116,268.2086 C116,296.6786 116,333.4986 116,367.8786 " fill="none" id="Refs-backto-ExistRef" style="stroke:#181818;stroke-width:1.0;"/><polygon fill="#181818" points="116,256.2086,112,262.2086,116,268.2086,120,262.2086,116,256.2086" style="stroke:#181818;stroke-width:1.0;"/></g><!--SRC=[RP7BJiCm44NNdQyOXKrQS3wWYjZmMB9ebmX5esGYMNLiPBiKgV3lZFDma60JstVkdBbsmadRT_8qu2FtT3RnsTduGWDZGLwJAG2YZeRnwLE72D0Q2W4Vn4JQiiShR6xn5HjXn81lkCSZHwmdEzx3fggI8x8VjAN8vHRWUy5CfX7HPk9-fI_Tr7K7xalqt4jvxAf4m6qgUXxS1-UwQ3Tf4wOeDIRZlpboZ28J2wGvLUeQWmLtzYqlOnTEO_dIJAKIPHzyUuVETBBYBt9w2w58_XokOyCoVZwASttB-akfUSmgAhNxe-sKShEOmxeimVW74alq0EcJElAz07u0]--></g></svg>