<?xml version="1.0" encoding="us-ascii" standalone="no"?><svg xmlns="http://www.w3.org/2000/svg" xmlns:xlink="http://www.w3.org/1999/xlink" contentStyleType="text/css" height="851px" preserveAspectRatio="none" style="width:754px;height:851px;background:#FFFFFF;" version="1.1" viewBox="0 0 754 851" width="754px" zoomAndPan="magnify"><defs/><g><text fill="#000000" font-family="arial" font-size="14" font-weight="bold" lengthAdjust="spacing" textLength="30" x="355.25" y="23.3608">Leaf</text><!--class Container--><g id="elem_Container"><rect codeLine="6" fill="#F1F1F1" height="96.2959" id="Container" rx="2.5" ry="2.5" style="stroke:#181818;stroke-width:0.5;" width="172" x="313.5" y="184.0986"/><ellipse cx="364.25" cy="200.0986" fill="#ADD1B2" rx="11" ry="11" style="stroke:#181818;stroke-width:1.0;"/><path d="M366.9531,205.5361 Q366.0313,206.458 363.7656,206.458 Q362.5,206.458 361.5781,205.5361 Q359.9219,203.8799 359.9219,200.3486 Q359.9219,196.2393 361.7031,194.4424 Q362.6406,193.5205 363.8281,193.5205 Q366.0938,193.5205 366.8281,194.2393 Q368.2188,195.6455 368.1563,198.0361 L365.6875,198.0361 Q365.625,195.9111 364.8906,195.1768 Q364.5,194.7705 363.8281,194.7705 Q363.8281,194.7705 363.7656,195.2393 Q362.4375,196.5674 362.4375,200.2236 Q362.4375,203.4111 363.5781,204.5361 Q364.1094,205.0674 364.1094,205.0674 Q364.3594,205.0674 364.8906,204.5361 Q365.5625,203.8799 365.625,201.4893 L368.2188,201.4893 Q368.0156,204.4736 366.9531,205.5361 Z " fill="#000000"/><text fill="#000000" font-family="arial" font-size="14" lengthAdjust="spacing" textLength="62" x="384.75" y="205.4102">Container</text><line style="stroke:#181818;stroke-width:0.5;" x1="314.5" x2="484.5" y1="216.0986" y2="216.0986"/><ellipse cx="324.5" cy="229.6479" fill="none" rx="3" ry="3" style="stroke:#038048;stroke-width:1.0;"/><text fill="#000000" font-family="arial" font-size="14" lengthAdjust="spacing" textLength="146" x="333.5" y="233.4595">[ _parts ] : Set &lt; Exist &gt;</text><line style="stroke:#181818;stroke-width:1.0;stroke-dasharray:1.0,2.0;" x1="314.5" x2="484.5" y1="240.1973" y2="240.1973"/><ellipse cx="324.5" cy="253.7466" fill="#84BE84" rx="3" ry="3" style="stroke:#038048;stroke-width:1.0;"/><text fill="#000000" font-family="arial" font-size="14" lengthAdjust="spacing" textLength="69" x="333.5" y="257.5581">terminate()</text><text fill="#000000" font-family="arial" font-size="14" lengthAdjust="spacing" textLength="4" x="333.5" y="273.6567">&#160;</text></g><!--class Exist--><g id="elem_Exist"><rect codeLine="13" fill="#F1F1F1" height="136.4932" id="Exist" rx="2.5" ry="2.5" style="stroke:#181818;stroke-width:0.5;" width="174" x="312.5" y="340.0986"/><ellipse cx="380.75" cy="356.0986" fill="#ADD1B2" rx="11" ry="11" style="stroke:#181818;stroke-width:1.0;"/><path d="M383.4531,361.5361 Q382.5313,362.458 380.2656,362.458 Q379,362.458 378.0781,361.5361 Q376.4219,359.8799 376.4219,356.3486 Q376.4219,352.2393 378.2031,350.4424 Q379.1406,349.5205 380.3281,349.5205 Q382.5938,349.5205 383.3281,350.2393 Q384.7188,351.6455 384.6563,354.0361 L382.1875,354.0361 Q382.125,351.9111 381.3906,351.1768 Q381,350.7705 380.3281,350.7705 Q380.3281,350.7705 380.2656,351.2393 Q378.9375,352.5674 378.9375,356.2236 Q378.9375,359.4111 380.0781,360.5361 Q380.6094,361.0674 380.6094,361.0674 Q380.8594,361.0674 381.3906,360.5361 Q382.0625,359.8799 382.125,357.4893 L384.7188,357.4893 Q384.5156,360.4736 383.4531,361.5361 Z " fill="#000000"/><text fill="#000000" font-family="arial" font-size="14" lengthAdjust="spacing" textLength="29" x="401.25" y="361.4102">Exist</text><line style="stroke:#181818;stroke-width:0.5;" x1="313.5" x2="485.5" y1="372.0986" y2="372.0986"/><ellipse cx="323.5" cy="385.6479" fill="none" rx="3" ry="3" style="stroke:#038048;stroke-width:1.0;"/><text fill="#000000" font-family="arial" font-size="14" lengthAdjust="spacing" textLength="133" x="332.5" y="389.4595">container : Container</text><line style="stroke:#181818;stroke-width:1.0;stroke-dasharray:1.0,2.0;" x1="313.5" x2="485.5" y1="396.1973" y2="396.1973"/><ellipse cx="323.5" cy="409.7466" fill="#84BE84" rx="3" ry="3" style="stroke:#038048;stroke-width:1.0;"/><text fill="#000000" font-family="arial" font-size="14" lengthAdjust="spacing" textLength="148" x="332.5" y="413.5581">addRef( ref : Exist.Ref )</text><ellipse cx="323.5" cy="425.8452" fill="#84BE84" rx="3" ry="3" style="stroke:#038048;stroke-width:1.0;"/><text fill="#000000" font-family="arial" font-size="14" lengthAdjust="spacing" textLength="104" x="332.5" y="429.6567">removeRef( ref )</text><polygon fill="none" points="323.5,436.9438,327.5,440.9438,323.5,444.9438,319.5,440.9438" style="stroke:#B38D22;stroke-width:1.0;"/><text fill="#000000" font-family="arial" font-size="14" lengthAdjust="spacing" textLength="103" x="332.5" y="445.7554">refs : Set&lt; Ref &gt;</text><line style="stroke:#181818;stroke-width:1.0;stroke-dasharray:1.0,2.0;" x1="313.5" x2="485.5" y1="452.4932" y2="452.4932"/><ellipse cx="323.5" cy="466.0425" fill="#84BE84" rx="3" ry="3" style="stroke:#038048;stroke-width:1.0;"/><text fill="#000000" font-family="arial" font-size="14" lengthAdjust="spacing" textLength="69" x="332.5" y="469.854">terminate()</text></g><!--class ExistRef--><g id="elem_ExistRef"><rect codeLine="23" fill="#F1F1F1" height="80.1973" id="ExistRef" rx="2.5" ry="2.5" style="stroke:#181818;stroke-width:0.5;" width="218" x="48.5" y="368.0986"/><ellipse cx="125.75" cy="384.0986" fill="#ADD1B2" rx="11" ry="11" style="stroke:#181818;stroke-width:1.0;"/><path d="M128.4531,389.5361 Q127.5313,390.458 125.2656,390.458 Q124,390.458 123.0781,389.5361 Q121.4219,387.8799 121.4219,384.3486 Q121.4219,380.2393 123.2031,378.4424 Q124.1406,377.5205 125.3281,377.5205 Q127.5938,377.5205 128.3281,378.2393 Q129.7188,379.6455 129.6563,382.0361 L127.1875,382.0361 Q127.125,379.9111 126.3906,379.1768 Q126,378.7705 125.3281,378.7705 Q125.3281,378.7705 125.2656,379.2393 Q123.9375,380.5674 123.9375,384.2236 Q123.9375,387.4111 125.0781,388.5361 Q125.6094,389.0674 125.6094,389.0674 Q125.8594,389.0674 126.3906,388.5361 Q127.0625,387.8799 127.125,385.4893 L129.7188,385.4893 Q129.5156,388.4736 128.4531,389.5361 Z " fill="#000000"/><text fill="#000000" font-family="arial" font-size="14" lengthAdjust="spacing" textLength="55" x="146.25" y="389.4102">Exist.Ref</text><line style="stroke:#181818;stroke-width:0.5;" x1="49.5" x2="265.5" y1="400.0986" y2="400.0986"/><ellipse cx="59.5" cy="413.6479" fill="none" rx="3" ry="3" style="stroke:#038048;stroke-width:1.0;"/><text fill="#000000" font-family="arial" font-size="14" lengthAdjust="spacing" textLength="84" x="68.5" y="417.4595">source : Exist</text><line style="stroke:#181818;stroke-width:1.0;stroke-dasharray:1.0,2.0;" x1="49.5" x2="265.5" y1="424.1973" y2="424.1973"/><ellipse cx="59.5" cy="437.7466" fill="#84BE84" rx="3" ry="3" style="stroke:#038048;stroke-width:1.0;"/><text fill="#000000" font-family="arial" font-size="14" lengthAdjust="spacing" textLength="192" x="68.5" y="441.5581">_new_source( newsrc, oldsrc )</text></g><!--class Set--><g id="elem_Set"><rect codeLine="29" fill="#F1F1F1" height="80.1973" id="Set" rx="2.5" ry="2.5" style="stroke:#181818;stroke-width:0.5;" width="86" x="114.5" y="44.0986"/><ellipse cx="144.35" cy="60.0986" fill="#ADD1B2" rx="11" ry="11" style="stroke:#181818;stroke-width:1.0;"/><path d="M147.0531,65.5361 Q146.1313,66.458 143.8656,66.458 Q142.6,66.458 141.6781,65.5361 Q140.0219,63.8799 140.0219,60.3486 Q140.0219,56.2393 141.8031,54.4424 Q142.7406,53.5205 143.9281,53.5205 Q146.1938,53.5205 146.9281,54.2393 Q148.3188,55.6455 148.2563,58.0361 L145.7875,58.0361 Q145.725,55.9111 144.9906,55.1768 Q144.6,54.7705 143.9281,54.7705 Q143.9281,54.7705 143.8656,55.2393 Q142.5375,56.5674 142.5375,60.2236 Q142.5375,63.4111 143.6781,64.5361 Q144.2094,65.0674 144.2094,65.0674 Q144.4594,65.0674 144.9906,64.5361 Q145.6625,63.8799 145.725,61.4893 L148.3188,61.4893 Q148.1156,64.4736 147.0531,65.5361 Z " fill="#000000"/><text fill="#000000" font-family="arial" font-size="14" lengthAdjust="spacing" textLength="21" x="161.65" y="65.4102">Set</text><line style="stroke:#181818;stroke-width:0.5;" x1="115.5" x2="199.5" y1="76.0986" y2="76.0986"/><line style="stroke:#181818;stroke-width:0.5;" x1="115.5" x2="199.5" y1="84.0986" y2="84.0986"/><text fill="#000000" font-family="arial" font-size="14" lengthAdjust="spacing" textLength="59" x="120.5" y="101.4595">add( ref )</text><text fill="#000000" font-family="arial" font-size="14" lengthAdjust="spacing" textLength="74" x="120.5" y="117.5581">delete( ref )</text></g><!--class Refs--><g id="elem_Refs"><rect fill="#F1F1F1" height="48" id="Refs" rx="2.5" ry="2.5" style="stroke:#181818;stroke-width:0.5;" width="61" x="127" y="208.0986"/><ellipse cx="142" cy="224.0986" fill="#ADD1B2" rx="11" ry="11" style="stroke:#181818;stroke-width:1.0;"/><path d="M144.7031,229.5361 Q143.7813,230.458 141.5156,230.458 Q140.25,230.458 139.3281,229.5361 Q137.6719,227.8799 137.6719,224.3486 Q137.6719,220.2393 139.4531,218.4424 Q140.3906,217.5205 141.5781,217.5205 Q143.8438,217.5205 144.5781,218.2393 Q145.9688,219.6455 145.9063,222.0361 L143.4375,222.0361 Q143.375,219.9111 142.6406,219.1768 Q142.25,218.7705 141.5781,218.7705 Q141.5781,218.7705 141.5156,219.2393 Q140.1875,220.5674 140.1875,224.2236 Q140.1875,227.4111 141.3281,228.5361 Q141.8594,229.0674 141.8594,229.0674 Q142.1094,229.0674 142.6406,228.5361 Q143.3125,227.8799 143.375,225.4893 L145.9688,225.4893 Q145.7656,228.4736 144.7031,229.5361 Z " fill="#000000"/><text fill="#000000" font-family="arial" font-size="14" lengthAdjust="spacing" textLength="29" x="156" y="229.4102">Refs</text><line style="stroke:#181818;stroke-width:0.5;" x1="128" x2="187" y1="240.0986" y2="240.0986"/><line style="stroke:#181818;stroke-width:0.5;" x1="128" x2="187" y1="248.0986" y2="248.0986"/></g><!--class StrRefFac--><g id="elem_StrRefFac"><rect codeLine="6" fill="#F1F1F1" height="80.1973" id="StrRefFac" rx="2.5" ry="2.5" style="stroke:#181818;stroke-width:0.5;" width="169" x="320" y="536.0986"/><ellipse cx="359.75" cy="552.0986" fill="#ADD1B2" rx="11" ry="11" style="stroke:#181818;stroke-width:1.0;"/><path d="M362.4531,557.5361 Q361.5313,558.458 359.2656,558.458 Q358,558.458 357.0781,557.5361 Q355.4219,555.8799 355.4219,552.3486 Q355.4219,548.2393 357.2031,546.4424 Q358.1406,545.5205 359.3281,545.5205 Q361.5938,545.5205 362.3281,546.2393 Q363.7188,547.6455 363.6563,550.0361 L361.1875,550.0361 Q361.125,547.9111 360.3906,547.1768 Q360,546.7705 359.3281,546.7705 Q359.3281,546.7705 359.2656,547.2393 Q357.9375,548.5674 357.9375,552.2236 Q357.9375,555.4111 359.0781,556.5361 Q359.6094,557.0674 359.6094,557.0674 Q359.8594,557.0674 360.3906,556.5361 Q361.0625,555.8799 361.125,553.4893 L363.7188,553.4893 Q363.5156,556.4736 362.4531,557.5361 Z " fill="#000000"/><text fill="#000000" font-family="arial" font-size="14" lengthAdjust="spacing" textLength="64" x="379.25" y="557.4102">StrRefFac</text><rect fill="#FFFFFF" height="15.7988" style="stroke:#181818;stroke-width:1.0;stroke-dasharray:2.0,2.0;" width="16" x="476" y="533.0986"/><text fill="#000000" font-family="arial" font-size="12" font-style="italic" lengthAdjust="spacing" textLength="8" x="480" y="545.5508">V</text><line style="stroke:#181818;stroke-width:0.5;" x1="321" x2="488" y1="568.0986" y2="568.0986"/><ellipse cx="331" cy="581.6479" fill="none" rx="3" ry="3" style="stroke:#038048;stroke-width:1.0;"/><text fill="#000000" font-family="arial" font-size="14" lengthAdjust="spacing" textLength="28" x="340" y="585.4595">tostr</text><line style="stroke:#181818;stroke-width:0.5;" x1="321" x2="488" y1="592.1973" y2="592.1973"/><ellipse cx="331" cy="605.7466" fill="#84BE84" rx="3" ry="3" style="stroke:#038048;stroke-width:1.0;"/><text fill="#000000" font-family="arial" font-size="14" lengthAdjust="spacing" textLength="143" x="340" y="609.5581">learfref( refs, update );</text></g><!--class Leaf--><g id="elem_Leaf"><rect codeLine="11" fill="#F1F1F1" height="168.6904" id="Leaf" rx="2.5" ry="2.5" style="stroke:#181818;stroke-width:0.5;" width="235" x="287" y="676.0986"/><ellipse cx="375.25" cy="692.0986" fill="#ADD1B2" rx="11" ry="11" style="stroke:#181818;stroke-width:1.0;"/><path d="M377.9531,697.5361 Q377.0313,698.458 374.7656,698.458 Q373.5,698.458 372.5781,697.5361 Q370.9219,695.8799 370.9219,692.3486 Q370.9219,688.2393 372.7031,686.4424 Q373.6406,685.5205 374.8281,685.5205 Q377.0938,685.5205 377.8281,686.2393 Q379.2188,687.6455 379.1563,690.0361 L376.6875,690.0361 Q376.625,687.9111 375.8906,687.1768 Q375.5,686.7705 374.8281,686.7705 Q374.8281,686.7705 374.7656,687.2393 Q373.4375,688.5674 373.4375,692.2236 Q373.4375,695.4111 374.5781,696.5361 Q375.1094,697.0674 375.1094,697.0674 Q375.3594,697.0674 375.8906,696.5361 Q376.5625,695.8799 376.625,693.4893 L379.2188,693.4893 Q379.0156,696.4736 377.9531,697.5361 Z " fill="#000000"/><text fill="#000000" font-family="arial" font-size="14" lengthAdjust="spacing" textLength="28" x="395.75" y="697.4102">Leaf</text><rect fill="#FFFFFF" height="15.7988" style="stroke:#181818;stroke-width:1.0;stroke-dasharray:2.0,2.0;" width="16" x="509" y="673.0986"/><text fill="#000000" font-family="arial" font-size="12" font-style="italic" lengthAdjust="spacing" textLength="8" x="513" y="685.5508">V</text><line style="stroke:#181818;stroke-width:0.5;" x1="288" x2="521" y1="708.0986" y2="708.0986"/><ellipse cx="298" cy="721.6479" fill="#84BE84" rx="3" ry="3" style="stroke:#038048;stroke-width:1.0;"/><text fill="#000000" font-family="arial" font-size="14" lengthAdjust="spacing" textLength="209" x="307" y="725.4595">createRef( { update, terminate } )</text><ellipse cx="298" cy="737.7466" fill="#84BE84" rx="3" ry="3" style="stroke:#038048;stroke-width:1.0;"/><text fill="#000000" font-family="arial" font-size="14" lengthAdjust="spacing" textLength="201" x="307" y="741.5581">createConv( conv : V =&gt; string )</text><polygon fill="none" points="298,748.8452,302,752.8452,298,756.8452,294,752.8452" style="stroke:#B38D22;stroke-width:1.0;"/><text fill="#000000" font-family="arial" font-size="14" lengthAdjust="spacing" textLength="162" x="307" y="757.6567">convs : Set &lt; StrRefFac &gt;</text><line style="stroke:#181818;stroke-width:1.0;stroke-dasharray:1.0,2.0;" x1="288" x2="521" y1="764.3945" y2="764.3945"/><polygon fill="none" points="298,772.9438,302,776.9438,298,780.9438,294,776.9438" style="stroke:#B38D22;stroke-width:1.0;"/><text fill="#000000" font-family="arial" font-size="14" lengthAdjust="spacing" textLength="55" x="307" y="781.7554">value : V</text><ellipse cx="298" cy="794.0425" fill="#84BE84" rx="3" ry="3" style="stroke:#038048;stroke-width:1.0;"/><text fill="#000000" font-family="arial" font-size="14" lengthAdjust="spacing" textLength="92" x="307" y="797.854">set( value : V )</text><ellipse cx="298" cy="810.1411" fill="#84BE84" rx="3" ry="3" style="stroke:#038048;stroke-width:1.0;"/><text fill="#000000" font-family="arial" font-size="14" lengthAdjust="spacing" textLength="51" x="307" y="813.9526">get() : V</text><line style="stroke:#181818;stroke-width:1.0;stroke-dasharray:1.0,2.0;" x1="288" x2="521" y1="820.6904" y2="820.6904"/><text fill="#000000" font-family="arial" font-size="14" lengthAdjust="spacing" textLength="69" x="293" y="838.0513">terminate()</text></g><!--class Conv--><g id="elem_Conv"><rect codeLine="23" fill="#F1F1F1" height="120.3945" id="Conv" rx="2.5" ry="2.5" style="stroke:#181818;stroke-width:0.5;" width="190" x="557.5" y="700.5986"/><ellipse cx="631.75" cy="716.5986" fill="#ADD1B2" rx="11" ry="11" style="stroke:#181818;stroke-width:1.0;"/><path d="M634.4531,722.0361 Q633.5313,722.958 631.2656,722.958 Q630,722.958 629.0781,722.0361 Q627.4219,720.3799 627.4219,716.8486 Q627.4219,712.7393 629.2031,710.9424 Q630.1406,710.0205 631.3281,710.0205 Q633.5938,710.0205 634.3281,710.7393 Q635.7188,712.1455 635.6563,714.5361 L633.1875,714.5361 Q633.125,712.4111 632.3906,711.6768 Q632,711.2705 631.3281,711.2705 Q631.3281,711.2705 631.2656,711.7393 Q629.9375,713.0674 629.9375,716.7236 Q629.9375,719.9111 631.0781,721.0361 Q631.6094,721.5674 631.6094,721.5674 Q631.8594,721.5674 632.3906,721.0361 Q633.0625,720.3799 633.125,717.9893 L635.7188,717.9893 Q635.5156,720.9736 634.4531,722.0361 Z " fill="#000000"/><text fill="#000000" font-family="arial" font-size="14" lengthAdjust="spacing" textLength="33" x="652.25" y="721.9102">Conv</text><line style="stroke:#181818;stroke-width:0.5;" x1="558.5" x2="746.5" y1="732.5986" y2="732.5986"/><ellipse cx="568.5" cy="746.1479" fill="#84BE84" rx="3" ry="3" style="stroke:#038048;stroke-width:1.0;"/><text fill="#000000" font-family="arial" font-size="14" lengthAdjust="spacing" textLength="164" x="577.5" y="749.9595">createRef( update, tostr );</text><line style="stroke:#181818;stroke-width:1.0;stroke-dasharray:1.0,2.0;" x1="558.5" x2="746.5" y1="756.6973" y2="756.6973"/><text fill="#000000" font-family="arial" font-size="14" lengthAdjust="spacing" textLength="96" x="563.5" y="774.0581">leaf : Leaf | null</text><text fill="#000000" font-family="arial" font-size="14" lengthAdjust="spacing" textLength="141" x="563.5" y="790.1567">tostr : V =&gt; string | null</text><line style="stroke:#181818;stroke-width:1.0;stroke-dasharray:1.0,2.0;" x1="558.5" x2="746.5" y1="796.8945" y2="796.8945"/><text fill="#000000" font-family="arial" font-size="14" lengthAdjust="spacing" textLength="69" x="563.5" y="814.2554">terminate()</text></g><!--class LeafRef--><g id="elem_LeafRef"><rect codeLine="32" fill="#F1F1F1" height="80.1973" id="LeafRef" rx="2.5" ry="2.5" style="stroke:#181818;stroke-width:0.5;" width="245" x="7" y="720.5986"/><ellipse cx="87.25" cy="736.5986" fill="#ADD1B2" rx="11" ry="11" style="stroke:#181818;stroke-width:1.0;"/><path d="M89.9531,742.0361 Q89.0313,742.958 86.7656,742.958 Q85.5,742.958 84.5781,742.0361 Q82.9219,740.3799 82.9219,736.8486 Q82.9219,732.7393 84.7031,730.9424 Q85.6406,730.0205 86.8281,730.0205 Q89.0938,730.0205 89.8281,730.7393 Q91.2188,732.1455 91.1563,734.5361 L88.6875,734.5361 Q88.625,732.4111 87.8906,731.6768 Q87.5,731.2705 86.8281,731.2705 Q86.8281,731.2705 86.7656,731.7393 Q85.4375,733.0674 85.4375,736.7236 Q85.4375,739.9111 86.5781,741.0361 Q87.1094,741.5674 87.1094,741.5674 Q87.3594,741.5674 87.8906,741.0361 Q88.5625,740.3799 88.625,737.9893 L91.2188,737.9893 Q91.0156,740.9736 89.9531,742.0361 Z " fill="#000000"/><text fill="#000000" font-family="arial" font-size="14" lengthAdjust="spacing" textLength="54" x="107.75" y="741.9102">Leaf.Ref</text><rect fill="#FFFFFF" height="15.7988" style="stroke:#181818;stroke-width:1.0;stroke-dasharray:2.0,2.0;" width="16" x="239" y="717.5986"/><text fill="#000000" font-family="arial" font-size="12" font-style="italic" lengthAdjust="spacing" textLength="8" x="243" y="730.0508">V</text><line style="stroke:#181818;stroke-width:0.5;" x1="8" x2="251" y1="752.5986" y2="752.5986"/><ellipse cx="18" cy="766.1479" fill="none" rx="3" ry="3" style="stroke:#038048;stroke-width:1.0;"/><text fill="#000000" font-family="arial" font-size="14" lengthAdjust="spacing" textLength="55" x="27" y="769.9595">value : V</text><line style="stroke:#181818;stroke-width:1.0;stroke-dasharray:1.0,2.0;" x1="8" x2="251" y1="776.6973" y2="776.6973"/><ellipse cx="18" cy="790.2466" fill="#84BE84" rx="3" ry="3" style="stroke:#038048;stroke-width:1.0;"/><text fill="#000000" font-family="arial" font-size="14" lengthAdjust="spacing" textLength="219" x="27" y="794.0581">_new_value( newval :V, oldval : V )</text></g><!--reverse link Container to Exist--><g id="link_Container_Exist"><path codeLine="34" d="M373.3547,298.0106 C370.7447,316.4306 372.6,320.0686 373.87,340.0486 " fill="none" id="Container-backto-Exist" style="stroke:#181818;stroke-width:1.0;"/><polygon fill="none" points="375.88,280.1886,367.4141,297.1689,379.2954,298.8524,375.88,280.1886" style="stroke:#181818;stroke-width:1.0;"/></g><!--link Container to Exist--><g id="link_Container_Exist"><path codeLine="35" d="M399.5,280.1886 C399.5,298.6086 399.5,308.0686 399.5,328.0486 " fill="none" id="Container-to-Exist" style="stroke:#181818;stroke-width:1.0;"/><polygon fill="#181818" points="399.5,340.0486,403.5,334.0486,399.5,328.0486,395.5,334.0486,399.5,340.0486" style="stroke:#181818;stroke-width:1.0;"/></g><!--link Container to Exist--><g id="link_Container_Exist"><path codeLine="36" d="M424.8035,292.07 C427.4135,310.49 427.1612,308.0928 425.8912,328.0728 " fill="none" id="Container-Exist" style="stroke:#181818;stroke-width:1.0;"/><polygon fill="#181818" points="423.12,280.1886,420.0013,286.6905,424.8035,292.07,427.9222,285.5681,423.12,280.1886" style="stroke:#181818;stroke-width:1.0;"/><polygon fill="none" points="425.13,340.0486,429.5026,334.3145,425.8912,328.0728,421.5187,333.807,425.13,340.0486" style="stroke:#181818;stroke-width:1.0;"/></g><!--link ExistRef to Exist--><g id="link_ExistRef_Exist"><path codeLine="37" d="M278.68,408.0986 C293.9,408.0986 285.12,408.0986 300.34,408.0986 " fill="none" id="ExistRef-Exist" style="stroke:#181818;stroke-width:1.0;"/><polygon fill="none" points="266.68,408.0986,272.68,412.0986,278.68,408.0986,272.68,404.0986,266.68,408.0986" style="stroke:#181818;stroke-width:1.0;"/><polygon fill="none" points="312.34,408.0986,306.34,404.0986,300.34,408.0986,306.34,412.0986,312.34,408.0986" style="stroke:#181818;stroke-width:1.0;"/></g><!--reverse link Set to Refs--><g id="link_Set_Refs"><path codeLine="39" d="M157.5,142.2286 C157.5,168.9186 157.5,185.3686 157.5,207.8386 " fill="none" id="Set-backto-Refs" style="stroke:#181818;stroke-width:1.0;"/><polygon fill="none" points="157.5,124.2286,151.5,142.2286,163.5,142.2286,157.5,124.2286" style="stroke:#181818;stroke-width:1.0;"/></g><!--reverse link Refs to ExistRef--><g id="link_Refs_ExistRef"><path codeLine="40" d="M157.5,268.2086 C157.5,296.6786 157.5,333.4986 157.5,367.8786 " fill="none" id="Refs-backto-ExistRef" style="stroke:#181818;stroke-width:1.0;"/><polygon fill="#181818" points="157.5,256.2086,153.5,262.2086,157.5,268.2086,161.5,262.2086,157.5,256.2086" style="stroke:#181818;stroke-width:1.0;"/></g><!--reverse link Exist to StrRefFac--><g id="link_Exist_StrRefFac"><path codeLine="38" d="M402.0596,494.1305 C402.6696,514.4705 402.78,518.1386 403.32,535.9986 " fill="none" id="Exist-backto-StrRefFac" style="stroke:#181818;stroke-width:1.0;"/><polygon fill="none" points="401.52,476.1386,396.0623,494.3104,408.0569,493.9507,401.52,476.1386" style="stroke:#181818;stroke-width:1.0;"/></g><!--reverse link StrRefFac to Leaf--><g id="link_StrRefFac_Leaf"><path codeLine="39" d="M404.5,634.2486 C404.5,651.7386 404.5,655.0686 404.5,675.8786 " fill="none" id="StrRefFac-backto-Leaf" style="stroke:#181818;stroke-width:1.0;"/><polygon fill="none" points="404.5,616.2486,398.5,634.2486,410.5,634.2486,404.5,616.2486" style="stroke:#181818;stroke-width:1.0;"/></g><!--reverse link StrRefFac to Conv--><g id="link_StrRefFac_Conv"><path codeLine="40" d="M472.5979,626.9596 C497.3879,645.1296 512.7,656.3686 539.5,676.0986 C550.21,683.9786 561.48,692.2886 572.58,700.4886 " fill="none" id="StrRefFac-backto-Conv" style="stroke:#181818;stroke-width:1.0;"/><polygon fill="none" points="458.08,616.3186,469.0509,631.7989,476.1449,622.1203,458.08,616.3186" style="stroke:#181818;stroke-width:1.0;"/></g><!--reverse link Leaf to Conv--><g id="link_Leaf_Conv"><path codeLine="41" d="M534.2,760.5986 C545.91,760.5986 545.62,760.5986 557.32,760.5986 " fill="none" id="Leaf-backto-Conv" style="stroke:#181818;stroke-width:1.0;"/><polygon fill="#181818" points="522.2,760.5986,528.2,764.5986,534.2,760.5986,528.2,756.5986,522.2,760.5986" style="stroke:#181818;stroke-width:1.0;"/><text fill="#000000" font-family="arial" font-size="13" lengthAdjust="spacing" textLength="7" x="529.9644" y="758.597">1</text><text fill="#000000" font-family="arial" font-size="13" lengthAdjust="spacing" textLength="5" x="544.5361" y="758.4694">*</text></g><!--reverse link ExistRef to LeafRef--><g id="link_ExistRef_LeafRef"><path codeLine="42" d="M152.9357,466.2314 C147.5457,533.6614 138.02,652.9486 132.63,720.3986 " fill="none" id="ExistRef-backto-LeafRef" style="stroke:#181818;stroke-width:1.0;"/><polygon fill="none" points="154.37,448.2886,146.9548,465.7533,158.9167,466.7095,154.37,448.2886" style="stroke:#181818;stroke-width:1.0;"/></g><!--link LeafRef to Leaf--><g id="link_LeafRef_Leaf"><path codeLine="43" d="M258.23,760.5986 C269.73,760.5986 269.23,760.5986 280.73,760.5986 " fill="none" id="LeafRef-Leaf" style="stroke:#181818;stroke-width:1.0;stroke-dasharray:7.0,7.0;"/><polygon fill="#181818" points="252.23,760.5986,261.23,764.5986,257.23,760.5986,261.23,756.5986,252.23,760.5986" style="stroke:#181818;stroke-width:1.0;"/><polygon fill="#181818" points="286.73,760.5986,277.73,756.5986,281.73,760.5986,277.73,764.5986,286.73,760.5986" style="stroke:#181818;stroke-width:1.0;"/></g><!--SRC=[TPB1Ri8m38RFv2cyxj92MsbNw7gPjjDE8755KUkYIbcAcfHD0jvzjhDInhHB5FssF_zsyj3QoWmr0dwrpkU7GIdVUeFmZhfHgZBQETZuVetDcwwWW2sKS5Ap1HZKVTDZ4mCTBeNXK6kFaAmuw3ldUtKP0H7JGd44sWayKAeUgMhDcDCF8WMF_KThcNQ1PCfwwUmnXefEM1BgkGHgqjezvpoAxYYmGK-T9ikbckKv9nor6P0hcUZGnvCIkkn9Iq82LrnTnCaq2Nluu_pgcwUM3N2zuI6NOTOpsC4OOah6R_TZxD-UihsSEjrja1MnSZCPGnQmi_Yv4pK6kj8DbjiKEbFBLGOc_2k_EHJdB9lsfMuUcmFo3-uqNeAIkQAd2EOPHFCeY48KfvINZIxLwBR8om3y1W00]--></g></svg>