<?xml version="1.0" encoding="us-ascii" standalone="no"?><svg xmlns="http://www.w3.org/2000/svg" xmlns:xlink="http://www.w3.org/1999/xlink" contentStyleType="text/css" height="639px" preserveAspectRatio="none" style="width:661px;height:639px;background:#FFFFFF;" version="1.1" viewBox="0 0 661 639" width="661px" zoomAndPan="magnify"><defs/><g><text fill="#000000" font-family="arial" font-size="14" font-weight="bold" lengthAdjust="spacing" textLength="29" x="309.25" y="23.3608">Lian</text><!--class Container--><g id="elem_Container"><rect codeLine="6" fill="#F1F1F1" height="96.2959" id="Container" rx="2.5" ry="2.5" style="stroke:#181818;stroke-width:0.5;" width="172" x="261" y="184.0986"/><ellipse cx="311.75" cy="200.0986" fill="#ADD1B2" rx="11" ry="11" style="stroke:#181818;stroke-width:1.0;"/><path d="M314.4531,205.5361 Q313.5313,206.458 311.2656,206.458 Q310,206.458 309.0781,205.5361 Q307.4219,203.8799 307.4219,200.3486 Q307.4219,196.2393 309.2031,194.4424 Q310.1406,193.5205 311.3281,193.5205 Q313.5938,193.5205 314.3281,194.2393 Q315.7188,195.6455 315.6563,198.0361 L313.1875,198.0361 Q313.125,195.9111 312.3906,195.1768 Q312,194.7705 311.3281,194.7705 Q311.3281,194.7705 311.2656,195.2393 Q309.9375,196.5674 309.9375,200.2236 Q309.9375,203.4111 311.0781,204.5361 Q311.6094,205.0674 311.6094,205.0674 Q311.8594,205.0674 312.3906,204.5361 Q313.0625,203.8799 313.125,201.4893 L315.7188,201.4893 Q315.5156,204.4736 314.4531,205.5361 Z " fill="#000000"/><text fill="#000000" font-family="arial" font-size="14" lengthAdjust="spacing" textLength="62" x="332.25" y="205.4102">Container</text><line style="stroke:#181818;stroke-width:0.5;" x1="262" x2="432" y1="216.0986" y2="216.0986"/><ellipse cx="272" cy="229.6479" fill="none" rx="3" ry="3" style="stroke:#038048;stroke-width:1.0;"/><text fill="#000000" font-family="arial" font-size="14" lengthAdjust="spacing" textLength="146" x="281" y="233.4595">[ _parts ] : Set &lt; Exist &gt;</text><line style="stroke:#181818;stroke-width:1.0;stroke-dasharray:1.0,2.0;" x1="262" x2="432" y1="240.1973" y2="240.1973"/><ellipse cx="272" cy="253.7466" fill="#84BE84" rx="3" ry="3" style="stroke:#038048;stroke-width:1.0;"/><text fill="#000000" font-family="arial" font-size="14" lengthAdjust="spacing" textLength="69" x="281" y="257.5581">terminate()</text><text fill="#000000" font-family="arial" font-size="14" lengthAdjust="spacing" textLength="4" x="281" y="273.6567">&#160;</text></g><!--class Exist--><g id="elem_Exist"><rect codeLine="13" fill="#F1F1F1" height="136.4932" id="Exist" rx="2.5" ry="2.5" style="stroke:#181818;stroke-width:0.5;" width="174" x="260" y="340.0986"/><ellipse cx="328.25" cy="356.0986" fill="#ADD1B2" rx="11" ry="11" style="stroke:#181818;stroke-width:1.0;"/><path d="M330.9531,361.5361 Q330.0313,362.458 327.7656,362.458 Q326.5,362.458 325.5781,361.5361 Q323.9219,359.8799 323.9219,356.3486 Q323.9219,352.2393 325.7031,350.4424 Q326.6406,349.5205 327.8281,349.5205 Q330.0938,349.5205 330.8281,350.2393 Q332.2188,351.6455 332.1563,354.0361 L329.6875,354.0361 Q329.625,351.9111 328.8906,351.1768 Q328.5,350.7705 327.8281,350.7705 Q327.8281,350.7705 327.7656,351.2393 Q326.4375,352.5674 326.4375,356.2236 Q326.4375,359.4111 327.5781,360.5361 Q328.1094,361.0674 328.1094,361.0674 Q328.3594,361.0674 328.8906,360.5361 Q329.5625,359.8799 329.625,357.4893 L332.2188,357.4893 Q332.0156,360.4736 330.9531,361.5361 Z " fill="#000000"/><text fill="#000000" font-family="arial" font-size="14" lengthAdjust="spacing" textLength="29" x="348.75" y="361.4102">Exist</text><line style="stroke:#181818;stroke-width:0.5;" x1="261" x2="433" y1="372.0986" y2="372.0986"/><ellipse cx="271" cy="385.6479" fill="none" rx="3" ry="3" style="stroke:#038048;stroke-width:1.0;"/><text fill="#000000" font-family="arial" font-size="14" lengthAdjust="spacing" textLength="133" x="280" y="389.4595">container : Container</text><line style="stroke:#181818;stroke-width:1.0;stroke-dasharray:1.0,2.0;" x1="261" x2="433" y1="396.1973" y2="396.1973"/><ellipse cx="271" cy="409.7466" fill="#84BE84" rx="3" ry="3" style="stroke:#038048;stroke-width:1.0;"/><text fill="#000000" font-family="arial" font-size="14" lengthAdjust="spacing" textLength="148" x="280" y="413.5581">addRef( ref : Exist.Ref )</text><ellipse cx="271" cy="425.8452" fill="#84BE84" rx="3" ry="3" style="stroke:#038048;stroke-width:1.0;"/><text fill="#000000" font-family="arial" font-size="14" lengthAdjust="spacing" textLength="104" x="280" y="429.6567">removeRef( ref )</text><polygon fill="none" points="271,436.9438,275,440.9438,271,444.9438,267,440.9438" style="stroke:#B38D22;stroke-width:1.0;"/><text fill="#000000" font-family="arial" font-size="14" lengthAdjust="spacing" textLength="103" x="280" y="445.7554">refs : Set&lt; Ref &gt;</text><line style="stroke:#181818;stroke-width:1.0;stroke-dasharray:1.0,2.0;" x1="261" x2="433" y1="452.4932" y2="452.4932"/><ellipse cx="271" cy="466.0425" fill="#84BE84" rx="3" ry="3" style="stroke:#038048;stroke-width:1.0;"/><text fill="#000000" font-family="arial" font-size="14" lengthAdjust="spacing" textLength="69" x="280" y="469.854">terminate()</text></g><!--class ExistRef--><g id="elem_ExistRef"><rect codeLine="23" fill="#F1F1F1" height="80.1973" id="ExistRef" rx="2.5" ry="2.5" style="stroke:#181818;stroke-width:0.5;" width="218" x="7" y="368.0986"/><ellipse cx="84.25" cy="384.0986" fill="#ADD1B2" rx="11" ry="11" style="stroke:#181818;stroke-width:1.0;"/><path d="M86.9531,389.5361 Q86.0313,390.458 83.7656,390.458 Q82.5,390.458 81.5781,389.5361 Q79.9219,387.8799 79.9219,384.3486 Q79.9219,380.2393 81.7031,378.4424 Q82.6406,377.5205 83.8281,377.5205 Q86.0938,377.5205 86.8281,378.2393 Q88.2188,379.6455 88.1563,382.0361 L85.6875,382.0361 Q85.625,379.9111 84.8906,379.1768 Q84.5,378.7705 83.8281,378.7705 Q83.8281,378.7705 83.7656,379.2393 Q82.4375,380.5674 82.4375,384.2236 Q82.4375,387.4111 83.5781,388.5361 Q84.1094,389.0674 84.1094,389.0674 Q84.3594,389.0674 84.8906,388.5361 Q85.5625,387.8799 85.625,385.4893 L88.2188,385.4893 Q88.0156,388.4736 86.9531,389.5361 Z " fill="#000000"/><text fill="#000000" font-family="arial" font-size="14" lengthAdjust="spacing" textLength="55" x="104.75" y="389.4102">Exist.Ref</text><line style="stroke:#181818;stroke-width:0.5;" x1="8" x2="224" y1="400.0986" y2="400.0986"/><ellipse cx="18" cy="413.6479" fill="none" rx="3" ry="3" style="stroke:#038048;stroke-width:1.0;"/><text fill="#000000" font-family="arial" font-size="14" lengthAdjust="spacing" textLength="84" x="27" y="417.4595">source : Exist</text><line style="stroke:#181818;stroke-width:1.0;stroke-dasharray:1.0,2.0;" x1="8" x2="224" y1="424.1973" y2="424.1973"/><ellipse cx="18" cy="437.7466" fill="#84BE84" rx="3" ry="3" style="stroke:#038048;stroke-width:1.0;"/><text fill="#000000" font-family="arial" font-size="14" lengthAdjust="spacing" textLength="192" x="27" y="441.5581">_new_source( newsrc, oldsrc )</text></g><!--class Set--><g id="elem_Set"><rect codeLine="29" fill="#F1F1F1" height="80.1973" id="Set" rx="2.5" ry="2.5" style="stroke:#181818;stroke-width:0.5;" width="86" x="73" y="44.0986"/><ellipse cx="102.85" cy="60.0986" fill="#ADD1B2" rx="11" ry="11" style="stroke:#181818;stroke-width:1.0;"/><path d="M105.5531,65.5361 Q104.6313,66.458 102.3656,66.458 Q101.1,66.458 100.1781,65.5361 Q98.5219,63.8799 98.5219,60.3486 Q98.5219,56.2393 100.3031,54.4424 Q101.2406,53.5205 102.4281,53.5205 Q104.6938,53.5205 105.4281,54.2393 Q106.8188,55.6455 106.7563,58.0361 L104.2875,58.0361 Q104.225,55.9111 103.4906,55.1768 Q103.1,54.7705 102.4281,54.7705 Q102.4281,54.7705 102.3656,55.2393 Q101.0375,56.5674 101.0375,60.2236 Q101.0375,63.4111 102.1781,64.5361 Q102.7094,65.0674 102.7094,65.0674 Q102.9594,65.0674 103.4906,64.5361 Q104.1625,63.8799 104.225,61.4893 L106.8188,61.4893 Q106.6156,64.4736 105.5531,65.5361 Z " fill="#000000"/><text fill="#000000" font-family="arial" font-size="14" lengthAdjust="spacing" textLength="21" x="120.15" y="65.4102">Set</text><line style="stroke:#181818;stroke-width:0.5;" x1="74" x2="158" y1="76.0986" y2="76.0986"/><line style="stroke:#181818;stroke-width:0.5;" x1="74" x2="158" y1="84.0986" y2="84.0986"/><text fill="#000000" font-family="arial" font-size="14" lengthAdjust="spacing" textLength="59" x="79" y="101.4595">add( ref )</text><text fill="#000000" font-family="arial" font-size="14" lengthAdjust="spacing" textLength="74" x="79" y="117.5581">delete( ref )</text></g><!--class Refs--><g id="elem_Refs"><rect fill="#F1F1F1" height="48" id="Refs" rx="2.5" ry="2.5" style="stroke:#181818;stroke-width:0.5;" width="61" x="85.5" y="208.0986"/><ellipse cx="100.5" cy="224.0986" fill="#ADD1B2" rx="11" ry="11" style="stroke:#181818;stroke-width:1.0;"/><path d="M103.2031,229.5361 Q102.2813,230.458 100.0156,230.458 Q98.75,230.458 97.8281,229.5361 Q96.1719,227.8799 96.1719,224.3486 Q96.1719,220.2393 97.9531,218.4424 Q98.8906,217.5205 100.0781,217.5205 Q102.3438,217.5205 103.0781,218.2393 Q104.4688,219.6455 104.4063,222.0361 L101.9375,222.0361 Q101.875,219.9111 101.1406,219.1768 Q100.75,218.7705 100.0781,218.7705 Q100.0781,218.7705 100.0156,219.2393 Q98.6875,220.5674 98.6875,224.2236 Q98.6875,227.4111 99.8281,228.5361 Q100.3594,229.0674 100.3594,229.0674 Q100.6094,229.0674 101.1406,228.5361 Q101.8125,227.8799 101.875,225.4893 L104.4688,225.4893 Q104.2656,228.4736 103.2031,229.5361 Z " fill="#000000"/><text fill="#000000" font-family="arial" font-size="14" lengthAdjust="spacing" textLength="29" x="114.5" y="229.4102">Refs</text><line style="stroke:#181818;stroke-width:0.5;" x1="86.5" x2="145.5" y1="240.0986" y2="240.0986"/><line style="stroke:#181818;stroke-width:0.5;" x1="86.5" x2="145.5" y1="248.0986" y2="248.0986"/></g><!--class Lian--><g id="elem_Lian"><rect codeLine="6" fill="#F1F1F1" height="96.2959" id="Lian" rx="2.5" ry="2.5" style="stroke:#181818;stroke-width:0.5;" width="218" x="238" y="536.0986"/><ellipse cx="320.25" cy="552.0986" fill="#ADD1B2" rx="11" ry="11" style="stroke:#181818;stroke-width:1.0;"/><path d="M322.9531,557.5361 Q322.0313,558.458 319.7656,558.458 Q318.5,558.458 317.5781,557.5361 Q315.9219,555.8799 315.9219,552.3486 Q315.9219,548.2393 317.7031,546.4424 Q318.6406,545.5205 319.8281,545.5205 Q322.0938,545.5205 322.8281,546.2393 Q324.2188,547.6455 324.1563,550.0361 L321.6875,550.0361 Q321.625,547.9111 320.8906,547.1768 Q320.5,546.7705 319.8281,546.7705 Q319.8281,546.7705 319.7656,547.2393 Q318.4375,548.5674 318.4375,552.2236 Q318.4375,555.4111 319.5781,556.5361 Q320.1094,557.0674 320.1094,557.0674 Q320.3594,557.0674 320.8906,556.5361 Q321.5625,555.8799 321.625,553.4893 L324.2188,553.4893 Q324.0156,556.4736 322.9531,557.5361 Z " fill="#000000"/><text fill="#000000" font-family="arial" font-size="14" lengthAdjust="spacing" textLength="27" x="340.75" y="557.4102">Lian</text><rect fill="#FFFFFF" height="15.7988" style="stroke:#181818;stroke-width:1.0;stroke-dasharray:2.0,2.0;" width="16" x="443" y="533.0986"/><text fill="#000000" font-family="arial" font-size="12" font-style="italic" lengthAdjust="spacing" textLength="8" x="447" y="545.5508">V</text><line style="stroke:#181818;stroke-width:0.5;" x1="239" x2="455" y1="568.0986" y2="568.0986"/><polygon fill="none" points="249,576.6479,253,580.6479,249,584.6479,245,580.6479" style="stroke:#B38D22;stroke-width:1.0;"/><text fill="#000000" font-family="arial" font-size="14" lengthAdjust="spacing" textLength="139" x="258" y="585.4595">orders : Order &lt; V &gt; []</text><line style="stroke:#181818;stroke-width:1.0;stroke-dasharray:1.0,2.0;" x1="239" x2="455" y1="592.1973" y2="592.1973"/><ellipse cx="249" cy="605.7466" fill="#84BE84" rx="3" ry="3" style="stroke:#038048;stroke-width:1.0;"/><text fill="#000000" font-family="arial" font-size="14" lengthAdjust="spacing" textLength="160" x="258" y="609.5581">add( values : V[], start ? )</text><ellipse cx="249" cy="621.8452" fill="#84BE84" rx="3" ry="3" style="stroke:#038048;stroke-width:1.0;"/><text fill="#000000" font-family="arial" font-size="14" lengthAdjust="spacing" textLength="192" x="258" y="625.6567">remove( start | items, count ? )</text></g><!--class LianRef--><g id="elem_LianRef"><rect codeLine="13" fill="#F1F1F1" height="96.2959" id="LianRef" rx="2.5" ry="2.5" style="stroke:#181818;stroke-width:0.5;" width="140" x="46" y="536.0986"/><ellipse cx="87.55" cy="552.0986" fill="#ADD1B2" rx="11" ry="11" style="stroke:#181818;stroke-width:1.0;"/><path d="M90.2531,557.5361 Q89.3313,558.458 87.0656,558.458 Q85.8,558.458 84.8781,557.5361 Q83.2219,555.8799 83.2219,552.3486 Q83.2219,548.2393 85.0031,546.4424 Q85.9406,545.5205 87.1281,545.5205 Q89.3938,545.5205 90.1281,546.2393 Q91.5188,547.6455 91.4563,550.0361 L88.9875,550.0361 Q88.925,547.9111 88.1906,547.1768 Q87.8,546.7705 87.1281,546.7705 Q87.1281,546.7705 87.0656,547.2393 Q85.7375,548.5674 85.7375,552.2236 Q85.7375,555.4111 86.8781,556.5361 Q87.4094,557.0674 87.4094,557.0674 Q87.6594,557.0674 88.1906,556.5361 Q88.8625,555.8799 88.925,553.4893 L91.5188,553.4893 Q91.3156,556.4736 90.2531,557.5361 Z " fill="#000000"/><text fill="#000000" font-family="arial" font-size="14" lengthAdjust="spacing" textLength="49" x="107.45" y="557.4102">LianRef</text><line style="stroke:#181818;stroke-width:0.5;" x1="47" x2="185" y1="568.0986" y2="568.0986"/><line style="stroke:#181818;stroke-width:0.5;" x1="47" x2="185" y1="576.0986" y2="576.0986"/><ellipse cx="57" cy="589.6479" fill="#84BE84" rx="3" ry="3" style="stroke:#038048;stroke-width:1.0;"/><text fill="#000000" font-family="arial" font-size="14" lengthAdjust="spacing" textLength="87" x="66" y="593.4595">_add( range )</text><ellipse cx="57" cy="605.7466" fill="#84BE84" rx="3" ry="3" style="stroke:#038048;stroke-width:1.0;"/><text fill="#000000" font-family="arial" font-size="14" lengthAdjust="spacing" textLength="110" x="66" y="609.5581">_remove( range )</text><ellipse cx="57" cy="621.8452" fill="#84BE84" rx="3" ry="3" style="stroke:#038048;stroke-width:1.0;"/><text fill="#000000" font-family="arial" font-size="14" lengthAdjust="spacing" textLength="114" x="66" y="625.6567">_move( src, dest )</text></g><!--class Order--><g id="elem_Order"><rect codeLine="19" fill="#F1F1F1" height="64.0986" id="Order" rx="2.5" ry="2.5" style="stroke:#181818;stroke-width:0.5;" width="87" x="491.5" y="552.0986"/><ellipse cx="506.5" cy="568.0986" fill="#ADD1B2" rx="11" ry="11" style="stroke:#181818;stroke-width:1.0;"/><path d="M509.2031,573.5361 Q508.2813,574.458 506.0156,574.458 Q504.75,574.458 503.8281,573.5361 Q502.1719,571.8799 502.1719,568.3486 Q502.1719,564.2393 503.9531,562.4424 Q504.8906,561.5205 506.0781,561.5205 Q508.3438,561.5205 509.0781,562.2393 Q510.4688,563.6455 510.4063,566.0361 L507.9375,566.0361 Q507.875,563.9111 507.1406,563.1768 Q506.75,562.7705 506.0781,562.7705 Q506.0781,562.7705 506.0156,563.2393 Q504.6875,564.5674 504.6875,568.2236 Q504.6875,571.4111 505.8281,572.5361 Q506.3594,573.0674 506.3594,573.0674 Q506.6094,573.0674 507.1406,572.5361 Q507.8125,571.8799 507.875,569.4893 L510.4688,569.4893 Q510.2656,572.4736 509.2031,573.5361 Z " fill="#000000"/><text fill="#000000" font-family="arial" font-size="14" lengthAdjust="spacing" textLength="37" x="520.5" y="573.4102">Order</text><rect fill="#FFFFFF" height="15.7988" style="stroke:#181818;stroke-width:1.0;stroke-dasharray:2.0,2.0;" width="16" x="565.5" y="549.0986"/><text fill="#000000" font-family="arial" font-size="12" font-style="italic" lengthAdjust="spacing" textLength="8" x="569.5" y="561.5508">V</text><line style="stroke:#181818;stroke-width:0.5;" x1="492.5" x2="577.5" y1="584.0986" y2="584.0986"/><text fill="#000000" font-family="arial" font-size="14" lengthAdjust="spacing" textLength="64" x="497.5" y="601.4595">source : V</text><line style="stroke:#181818;stroke-width:0.5;" x1="492.5" x2="577.5" y1="608.1973" y2="608.1973"/></g><!--class Leaf--><g id="elem_Leaf"><rect fill="#F1F1F1" height="48" id="Leaf" rx="2.5" ry="2.5" style="stroke:#181818;stroke-width:0.5;" width="60" x="505" y="384.0986"/><ellipse cx="520" cy="400.0986" fill="#ADD1B2" rx="11" ry="11" style="stroke:#181818;stroke-width:1.0;"/><path d="M522.7031,405.5361 Q521.7813,406.458 519.5156,406.458 Q518.25,406.458 517.3281,405.5361 Q515.6719,403.8799 515.6719,400.3486 Q515.6719,396.2393 517.4531,394.4424 Q518.3906,393.5205 519.5781,393.5205 Q521.8438,393.5205 522.5781,394.2393 Q523.9688,395.6455 523.9063,398.0361 L521.4375,398.0361 Q521.375,395.9111 520.6406,395.1768 Q520.25,394.7705 519.5781,394.7705 Q519.5781,394.7705 519.5156,395.2393 Q518.1875,396.5674 518.1875,400.2236 Q518.1875,403.4111 519.3281,404.5361 Q519.8594,405.0674 519.8594,405.0674 Q520.1094,405.0674 520.6406,404.5361 Q521.3125,403.8799 521.375,401.4893 L523.9688,401.4893 Q523.7656,404.4736 522.7031,405.5361 Z " fill="#000000"/><text fill="#000000" font-family="arial" font-size="14" lengthAdjust="spacing" textLength="28" x="534" y="405.4102">Leaf</text><line style="stroke:#181818;stroke-width:0.5;" x1="506" x2="564" y1="416.0986" y2="416.0986"/><line style="stroke:#181818;stroke-width:0.5;" x1="506" x2="564" y1="424.0986" y2="424.0986"/></g><!--class V--><g id="elem_V"><rect fill="#F1F1F1" height="48" id="V" rx="2.5" ry="2.5" style="stroke:#181818;stroke-width:0.5;" width="41" x="613.5" y="560.0986"/><ellipse cx="628.5" cy="576.0986" fill="#ADD1B2" rx="11" ry="11" style="stroke:#181818;stroke-width:1.0;"/><path d="M631.2031,581.5361 Q630.2813,582.458 628.0156,582.458 Q626.75,582.458 625.8281,581.5361 Q624.1719,579.8799 624.1719,576.3486 Q624.1719,572.2393 625.9531,570.4424 Q626.8906,569.5205 628.0781,569.5205 Q630.3438,569.5205 631.0781,570.2393 Q632.4688,571.6455 632.4063,574.0361 L629.9375,574.0361 Q629.875,571.9111 629.1406,571.1768 Q628.75,570.7705 628.0781,570.7705 Q628.0781,570.7705 628.0156,571.2393 Q626.6875,572.5674 626.6875,576.2236 Q626.6875,579.4111 627.8281,580.5361 Q628.3594,581.0674 628.3594,581.0674 Q628.6094,581.0674 629.1406,580.5361 Q629.8125,579.8799 629.875,577.4893 L632.4688,577.4893 Q632.2656,580.4736 631.2031,581.5361 Z " fill="#000000"/><text fill="#000000" font-family="arial" font-size="14" lengthAdjust="spacing" textLength="9" x="642.5" y="581.4102">V</text><line style="stroke:#181818;stroke-width:0.5;" x1="614.5" x2="653.5" y1="592.0986" y2="592.0986"/><line style="stroke:#181818;stroke-width:0.5;" x1="614.5" x2="653.5" y1="600.0986" y2="600.0986"/></g><!--reverse link Container to Exist--><g id="link_Container_Exist"><path codeLine="34" d="M320.8547,298.0106 C318.2447,316.4306 320.1,320.0686 321.37,340.0486 " fill="none" id="Container-backto-Exist" style="stroke:#181818;stroke-width:1.0;"/><polygon fill="none" points="323.38,280.1886,314.9141,297.1689,326.7954,298.8524,323.38,280.1886" style="stroke:#181818;stroke-width:1.0;"/></g><!--link Container to Exist--><g id="link_Container_Exist"><path codeLine="35" d="M347,280.1886 C347,298.6086 347,308.0686 347,328.0486 " fill="none" id="Container-to-Exist" style="stroke:#181818;stroke-width:1.0;"/><polygon fill="#181818" points="347,340.0486,351,334.0486,347,328.0486,343,334.0486,347,340.0486" style="stroke:#181818;stroke-width:1.0;"/></g><!--link Container to Exist--><g id="link_Container_Exist"><path codeLine="36" d="M372.3035,292.07 C374.9135,310.49 374.6612,308.0928 373.3912,328.0728 " fill="none" id="Container-Exist" style="stroke:#181818;stroke-width:1.0;"/><polygon fill="#181818" points="370.62,280.1886,367.5013,286.6905,372.3035,292.07,375.4222,285.5681,370.62,280.1886" style="stroke:#181818;stroke-width:1.0;"/><polygon fill="none" points="372.63,340.0486,377.0026,334.3145,373.3912,328.0728,369.0187,333.807,372.63,340.0486" style="stroke:#181818;stroke-width:1.0;"/></g><!--link ExistRef to Exist--><g id="link_ExistRef_Exist"><path codeLine="37" d="M237.18,408.0986 C248.76,408.0986 236.34,408.0986 247.92,408.0986 " fill="none" id="ExistRef-Exist" style="stroke:#181818;stroke-width:1.0;"/><polygon fill="none" points="225.18,408.0986,231.18,412.0986,237.18,408.0986,231.18,404.0986,225.18,408.0986" style="stroke:#181818;stroke-width:1.0;"/><polygon fill="none" points="259.92,408.0986,253.92,404.0986,247.92,408.0986,253.92,412.0986,259.92,408.0986" style="stroke:#181818;stroke-width:1.0;"/></g><!--reverse link Set to Refs--><g id="link_Set_Refs"><path codeLine="39" d="M116,142.2286 C116,168.9186 116,185.3686 116,207.8386 " fill="none" id="Set-backto-Refs" style="stroke:#181818;stroke-width:1.0;"/><polygon fill="none" points="116,124.2286,110,142.2286,122,142.2286,116,124.2286" style="stroke:#181818;stroke-width:1.0;"/></g><!--reverse link Refs to ExistRef--><g id="link_Refs_ExistRef"><path codeLine="40" d="M116,268.2086 C116,296.6786 116,333.4986 116,367.8786 " fill="none" id="Refs-backto-ExistRef" style="stroke:#181818;stroke-width:1.0;"/><polygon fill="#181818" points="116,256.2086,112,262.2086,116,268.2086,120,262.2086,116,256.2086" style="stroke:#181818;stroke-width:1.0;"/></g><!--reverse link Exist to Lian--><g id="link_Exist_Lian"><path codeLine="24" d="M347,494.3686 C347,514.2586 347,517.6086 347,535.9386 " fill="none" id="Exist-backto-Lian" style="stroke:#181818;stroke-width:1.0;"/><polygon fill="none" points="347,476.3686,341,494.3686,353,494.3686,347,476.3686" style="stroke:#181818;stroke-width:1.0;"/></g><!--reverse link ExistRef to LianRef--><g id="link_ExistRef_LianRef"><path codeLine="25" d="M116,466.1486 C116,492.0986 116,508.3286 116,535.8186 " fill="none" id="ExistRef-backto-LianRef" style="stroke:#181818;stroke-width:1.0;"/><polygon fill="none" points="116,448.1486,110,466.1486,122,466.1486,116,448.1486" style="stroke:#181818;stroke-width:1.0;"/></g><!--reverse link Lian to Order--><g id="link_Lian_Order"><path codeLine="27" d="M468.05,584.0986 C479.77,584.0986 479.49,584.0986 491.21,584.0986 " fill="none" id="Lian-backto-Order" style="stroke:#181818;stroke-width:1.0;"/><polygon fill="#181818" points="456.05,584.0986,462.05,588.0986,468.05,584.0986,462.05,580.0986,456.05,584.0986" style="stroke:#181818;stroke-width:1.0;"/></g><!--reverse link Leaf to Order--><g id="link_Leaf_Order"><path codeLine="28" d="M535,450.2086 C535,480.9886 535,517.5586 535,551.9486 " fill="none" id="Leaf-backto-Order" style="stroke:#181818;stroke-width:1.0;"/><polygon fill="none" points="535,432.2086,529,450.2086,541,450.2086,535,432.2086" style="stroke:#181818;stroke-width:1.0;"/></g><!--reverse link Order to V--><g id="link_Order_V"><path codeLine="29" d="M590.7,584.0986 C602.22,584.0986 601.74,584.0986 613.26,584.0986 " fill="none" id="Order-backto-V" style="stroke:#181818;stroke-width:1.0;"/><polygon fill="none" points="578.7,584.0986,584.7,588.0986,590.7,584.0986,584.7,580.0986,578.7,584.0986" style="stroke:#181818;stroke-width:1.0;"/></g><!--SRC=[JP3D2i9038JFpLECU57xym0YUl8c21wyYCYo6sMXTcL_Yg2-kzrkbTuooV1DaebkP1qKWv_Q-UeHYBpsDMEdHKCaQ-5SNsE58zPuKJQ5iOgjmnBxM0oJqvcogg8iXr1gXbRKWQFdU3eNS5vOZmtcSMxvRbgU3SqtjEUxAo1DQ9BdCmu-y3McvhZqN2kQ6oVEvGSQzmQqbGKKEp-cZRVjYCu4Apbk62sqZG_0wbsMwVPUn_1_gnD4_IyMPOBHZiLWI3f5cB9ZVW40]--></g></svg>