<?xml version="1.0" encoding="UTF-8" standalone="no"?><svg xmlns="http://www.w3.org/2000/svg" xmlns:xlink="http://www.w3.org/1999/xlink" contentStyleType="text/css" height="505px" preserveAspectRatio="none" style="width:659px;height:505px;background:#FFFFFF;" version="1.1" viewBox="0 0 659 505" width="659px" zoomAndPan="magnify"><defs/><g><!--cluster ViewModel--><g id="cluster_ViewModel"><path d="M295.5,6 L373.5,6 A3.75,3.75 0 0 1 376,8.5 L383,29.6094 L649.5,29.6094 A2.5,2.5 0 0 1 652,32.1094 L652,495.5 A2.5,2.5 0 0 1 649.5,498 L295.5,498 A2.5,2.5 0 0 1 293,495.5 L293,8.5 A2.5,2.5 0 0 1 295.5,6 " fill="none" style="stroke:#000000;stroke-width:1.5;"/><line style="stroke:#000000;stroke-width:1.5;" x1="293" x2="383" y1="29.6094" y2="29.6094"/><text fill="#000000" font-family="&quot;arial&quot;" font-size="14" font-weight="bold" lengthAdjust="spacing" textLength="77" x="297" y="22.5332">ViewModel</text></g><!--cluster UI--><g id="cluster_UI"><path d="M8.5,15 L23.5,15 A3.75,3.75 0 0 1 26,17.5 L33,38.6094 L266.5,38.6094 A2.5,2.5 0 0 1 269,41.1094 L269,460.5 A2.5,2.5 0 0 1 266.5,463 L8.5,463 A2.5,2.5 0 0 1 6,460.5 L6,17.5 A2.5,2.5 0 0 1 8.5,15 " fill="none" style="stroke:#000000;stroke-width:1.5;"/><line style="stroke:#000000;stroke-width:1.5;" x1="6" x2="33" y1="38.6094" y2="38.6094"/><text fill="#000000" font-family="&quot;arial&quot;" font-size="14" font-weight="bold" lengthAdjust="spacing" textLength="14" x="10" y="31.5332">UI</text></g><!--class AppVM--><g id="elem_AppVM"><rect codeLine="4" fill="#F1F1F1" height="65.6094" id="AppVM" rx="2.5" ry="2.5" style="stroke:#181818;stroke-width:0.5;" width="77" x="375.5" y="42"/><ellipse cx="390.5" cy="58" fill="#ADD1B2" rx="11" ry="11" style="stroke:#181818;stroke-width:1.0;"/><path d="M393.2031,63.4375 Q392.2813,64.3594 390.0156,64.3594 Q388.75,64.3594 387.8281,63.4375 Q386.1719,61.7813 386.1719,58.25 Q386.1719,54.1406 387.9531,52.3438 Q388.8906,51.4219 390.0781,51.4219 Q392.3438,51.4219 393.0781,52.1406 Q394.4688,53.5469 394.4063,55.9375 L391.9375,55.9375 Q391.875,53.8125 391.1406,53.0781 Q390.75,52.6719 390.0781,52.6719 Q390.0781,52.6719 390.0156,53.1406 Q388.6875,54.4688 388.6875,58.125 Q388.6875,61.3125 389.8281,62.4375 Q390.3594,62.9688 390.3594,62.9688 Q390.6094,62.9688 391.1406,62.4375 Q391.8125,61.7813 391.875,59.3906 L394.4688,59.3906 Q394.2656,62.375 393.2031,63.4375 Z " fill="#000000"/><text fill="#000000" font-family="&quot;arial&quot;" font-size="14" lengthAdjust="spacing" textLength="45" x="404.5" y="63.7285">AppVM</text><line style="stroke:#181818;stroke-width:0.5;" x1="376.5" x2="451.5" y1="74" y2="74"/><ellipse cx="386.5" cy="88.3047" fill="none" rx="3" ry="3" style="stroke:#038048;stroke-width:1.0;"/><text fill="#000000" font-family="&quot;arial&quot;" font-size="14" lengthAdjust="spacing" textLength="50" x="395.5" y="92.5332">browser</text><line style="stroke:#181818;stroke-width:0.5;" x1="376.5" x2="451.5" y1="99.6094" y2="99.6094"/></g><!--class Map--><g id="elem_Map"><rect codeLine="8" fill="#F1F1F1" height="65.6094" id="Map" rx="2.5" ry="2.5" style="stroke:#181818;stroke-width:0.5;" width="82" x="554" y="194"/><ellipse cx="579.35" cy="210" fill="#ADD1B2" rx="11" ry="11" style="stroke:#181818;stroke-width:1.0;"/><path d="M582.0531,215.4375 Q581.1313,216.3594 578.8656,216.3594 Q577.6,216.3594 576.6781,215.4375 Q575.0219,213.7813 575.0219,210.25 Q575.0219,206.1406 576.8031,204.3438 Q577.7406,203.4219 578.9281,203.4219 Q581.1938,203.4219 581.9281,204.1406 Q583.3188,205.5469 583.2563,207.9375 L580.7875,207.9375 Q580.725,205.8125 579.9906,205.0781 Q579.6,204.6719 578.9281,204.6719 Q578.9281,204.6719 578.8656,205.1406 Q577.5375,206.4688 577.5375,210.125 Q577.5375,213.3125 578.6781,214.4375 Q579.2094,214.9688 579.2094,214.9688 Q579.4594,214.9688 579.9906,214.4375 Q580.6625,213.7813 580.725,211.3906 L583.3188,211.3906 Q583.1156,214.375 582.0531,215.4375 Z " fill="#000000"/><text fill="#000000" font-family="&quot;arial&quot;" font-size="14" lengthAdjust="spacing" textLength="27" x="595.65" y="215.7285">Map</text><line style="stroke:#181818;stroke-width:0.5;" x1="555" x2="635" y1="226" y2="226"/><text fill="#000000" font-family="&quot;arial&quot;" font-size="14" lengthAdjust="spacing" textLength="70" x="560" y="244.5332">root : Index</text><line style="stroke:#181818;stroke-width:0.5;" x1="555" x2="635" y1="251.6094" y2="251.6094"/></g><!--class Browser--><g id="elem_Browser"><rect codeLine="12" fill="#F1F1F1" height="118.4375" id="Browser" rx="2.5" ry="2.5" style="stroke:#181818;stroke-width:0.5;" width="210" x="309" y="168"/><ellipse cx="384.25" cy="184" fill="#ADD1B2" rx="11" ry="11" style="stroke:#181818;stroke-width:1.0;"/><path d="M386.9531,189.4375 Q386.0313,190.3594 383.7656,190.3594 Q382.5,190.3594 381.5781,189.4375 Q379.9219,187.7813 379.9219,184.25 Q379.9219,180.1406 381.7031,178.3438 Q382.6406,177.4219 383.8281,177.4219 Q386.0938,177.4219 386.8281,178.1406 Q388.2188,179.5469 388.1563,181.9375 L385.6875,181.9375 Q385.625,179.8125 384.8906,179.0781 Q384.5,178.6719 383.8281,178.6719 Q383.8281,178.6719 383.7656,179.1406 Q382.4375,180.4688 382.4375,184.125 Q382.4375,187.3125 383.5781,188.4375 Q384.1094,188.9688 384.1094,188.9688 Q384.3594,188.9688 384.8906,188.4375 Q385.5625,187.7813 385.625,185.3906 L388.2188,185.3906 Q388.0156,188.375 386.9531,189.4375 Z " fill="#000000"/><text fill="#000000" font-family="&quot;arial&quot;" font-size="14" lengthAdjust="spacing" textLength="51" x="404.75" y="189.7285">Browser</text><line style="stroke:#181818;stroke-width:0.5;" x1="310" x2="518" y1="200" y2="200"/><ellipse cx="320" cy="214.3047" fill="#84BE84" rx="3" ry="3" style="stroke:#038048;stroke-width:1.0;"/><text fill="#000000" font-family="&quot;arial&quot;" font-size="14" lengthAdjust="spacing" textLength="160" x="329" y="218.5332">make_title( index : Index )</text><ellipse cx="320" cy="231.9141" fill="#84BE84" rx="3" ry="3" style="stroke:#038048;stroke-width:1.0;"/><text fill="#000000" font-family="&quot;arial&quot;" font-size="14" lengthAdjust="spacing" textLength="166" x="329" y="236.1426">make_path( index : Index )</text><line style="stroke:#181818;stroke-width:1.0;stroke-dasharray:1.0,2.0;" x1="310" x2="518" y1="243.2188" y2="243.2188"/><ellipse cx="320" cy="257.5234" fill="none" rx="3" ry="3" style="stroke:#038048;stroke-width:1.0;"/><text fill="#000000" font-family="&quot;arial&quot;" font-size="14" lengthAdjust="spacing" textLength="184" x="329" y="261.752">current : Leafr &lt; Index | null &gt;</text><ellipse cx="320" cy="275.1328" fill="#84BE84" rx="3" ry="3" style="stroke:#038048;stroke-width:1.0;"/><text fill="#000000" font-family="&quot;arial&quot;" font-size="14" lengthAdjust="spacing" textLength="133" x="329" y="279.3613">select( index : Index )</text></g><!--class Index--><g id="elem_Index"><rect codeLine="20" fill="#F1F1F1" height="136.0469" id="Index" rx="2.5" ry="2.5" style="stroke:#181818;stroke-width:0.5;" width="101" x="363.5" y="346"/><ellipse cx="394.7" cy="362" fill="#ADD1B2" rx="11" ry="11" style="stroke:#181818;stroke-width:1.0;"/><path d="M397.4031,367.4375 Q396.4813,368.3594 394.2156,368.3594 Q392.95,368.3594 392.0281,367.4375 Q390.3719,365.7813 390.3719,362.25 Q390.3719,358.1406 392.1531,356.3438 Q393.0906,355.4219 394.2781,355.4219 Q396.5438,355.4219 397.2781,356.1406 Q398.6688,357.5469 398.6063,359.9375 L396.1375,359.9375 Q396.075,357.8125 395.3406,357.0781 Q394.95,356.6719 394.2781,356.6719 Q394.2781,356.6719 394.2156,357.1406 Q392.8875,358.4688 392.8875,362.125 Q392.8875,365.3125 394.0281,366.4375 Q394.5594,366.9688 394.5594,366.9688 Q394.8094,366.9688 395.3406,366.4375 Q396.0125,365.7813 396.075,363.3906 L398.6688,363.3906 Q398.4656,366.375 397.4031,367.4375 Z " fill="#000000"/><text fill="#000000" font-family="&quot;arial&quot;" font-size="14" lengthAdjust="spacing" textLength="33" x="412.3" y="367.7285">Index</text><line style="stroke:#181818;stroke-width:0.5;" x1="364.5" x2="463.5" y1="378" y2="378"/><ellipse cx="374.5" cy="392.3047" fill="none" rx="3" ry="3" style="stroke:#038048;stroke-width:1.0;"/><text fill="#000000" font-family="&quot;arial&quot;" font-size="14" lengthAdjust="spacing" textLength="62" x="383.5" y="396.5332">title : Leaf</text><ellipse cx="374.5" cy="409.9141" fill="none" rx="3" ry="3" style="stroke:#038048;stroke-width:1.0;"/><text fill="#000000" font-family="&quot;arial&quot;" font-size="14" lengthAdjust="spacing" textLength="75" x="383.5" y="414.1426">name : Leaf</text><line style="stroke:#181818;stroke-width:1.0;stroke-dasharray:1.0,2.0;" x1="364.5" x2="463.5" y1="421.2188" y2="421.2188"/><ellipse cx="374.5" cy="435.5234" fill="none" rx="3" ry="3" style="stroke:#038048;stroke-width:1.0;"/><text fill="#000000" font-family="&quot;arial&quot;" font-size="14" lengthAdjust="spacing" textLength="53" x="383.5" y="439.752">selected</text><ellipse cx="374.5" cy="453.1328" fill="none" rx="3" ry="3" style="stroke:#038048;stroke-width:1.0;"/><text fill="#000000" font-family="&quot;arial&quot;" font-size="14" lengthAdjust="spacing" textLength="52" x="383.5" y="457.3613">hovered</text><ellipse cx="374.5" cy="470.7422" fill="none" rx="3" ry="3" style="stroke:#038048;stroke-width:1.0;"/><text fill="#000000" font-family="&quot;arial&quot;" font-size="14" lengthAdjust="spacing" textLength="69" x="383.5" y="474.9707">highlighted</text></g><!--class AppUI--><g id="elem_AppUI"><rect codeLine="34" fill="#F1F1F1" height="48" id="AppUI" rx="2.5" ry="2.5" style="stroke:#181818;stroke-width:0.5;" width="69" x="161.5" y="51"/><ellipse cx="176.5" cy="67" fill="#ADD1B2" rx="11" ry="11" style="stroke:#181818;stroke-width:1.0;"/><path d="M179.2031,72.4375 Q178.2813,73.3594 176.0156,73.3594 Q174.75,73.3594 173.8281,72.4375 Q172.1719,70.7813 172.1719,67.25 Q172.1719,63.1406 173.9531,61.3438 Q174.8906,60.4219 176.0781,60.4219 Q178.3438,60.4219 179.0781,61.1406 Q180.4688,62.5469 180.4063,64.9375 L177.9375,64.9375 Q177.875,62.8125 177.1406,62.0781 Q176.75,61.6719 176.0781,61.6719 Q176.0781,61.6719 176.0156,62.1406 Q174.6875,63.4688 174.6875,67.125 Q174.6875,70.3125 175.8281,71.4375 Q176.3594,71.9688 176.3594,71.9688 Q176.6094,71.9688 177.1406,71.4375 Q177.8125,70.7813 177.875,68.3906 L180.4688,68.3906 Q180.2656,71.375 179.2031,72.4375 Z " fill="#000000"/><text fill="#000000" font-family="&quot;arial&quot;" font-size="14" lengthAdjust="spacing" textLength="37" x="190.5" y="72.7285">AppUI</text><line style="stroke:#181818;stroke-width:0.5;" x1="162.5" x2="229.5" y1="83" y2="83"/><line style="stroke:#181818;stroke-width:0.5;" x1="162.5" x2="229.5" y1="91" y2="91"/></g><!--class PageSwitch--><g id="elem_PageSwitch"><rect codeLine="35" fill="#F1F1F1" height="83.2188" id="PageSwitch" rx="2.5" ry="2.5" style="stroke:#181818;stroke-width:0.5;" width="158" x="95" y="185.5"/><ellipse cx="133.85" cy="201.5" fill="#ADD1B2" rx="11" ry="11" style="stroke:#181818;stroke-width:1.0;"/><path d="M136.5531,206.9375 Q135.6313,207.8594 133.3656,207.8594 Q132.1,207.8594 131.1781,206.9375 Q129.5219,205.2813 129.5219,201.75 Q129.5219,197.6406 131.3031,195.8438 Q132.2406,194.9219 133.4281,194.9219 Q135.6938,194.9219 136.4281,195.6406 Q137.8188,197.0469 137.7563,199.4375 L135.2875,199.4375 Q135.225,197.3125 134.4906,196.5781 Q134.1,196.1719 133.4281,196.1719 Q133.4281,196.1719 133.3656,196.6406 Q132.0375,197.9688 132.0375,201.625 Q132.0375,204.8125 133.1781,205.9375 Q133.7094,206.4688 133.7094,206.4688 Q133.9594,206.4688 134.4906,205.9375 Q135.1625,205.2813 135.225,202.8906 L137.8188,202.8906 Q137.6156,205.875 136.5531,206.9375 Z " fill="#000000"/><text fill="#000000" font-family="&quot;arial&quot;" font-size="14" lengthAdjust="spacing" textLength="73" x="153.15" y="207.2285">PageSwitch</text><line style="stroke:#181818;stroke-width:0.5;" x1="96" x2="252" y1="217.5" y2="217.5"/><line style="stroke:#181818;stroke-width:0.5;" x1="96" x2="252" y1="225.5" y2="225.5"/><text fill="#000000" font-family="&quot;arial&quot;" font-size="14" lengthAdjust="spacing" textLength="124" x="101" y="244.0332">createPage( index )</text><text fill="#000000" font-family="&quot;arial&quot;" font-size="14" lengthAdjust="spacing" textLength="146" x="101" y="261.6426">loadPageClass( index )</text></g><!--class PageUI--><g id="elem_PageUI"><rect codeLine="39" fill="#F1F1F1" height="65.6094" id="PageUI" rx="2.5" ry="2.5" style="stroke:#181818;stroke-width:0.5;" width="104" x="149" y="381"/><ellipse cx="181.55" cy="397" fill="#ADD1B2" rx="11" ry="11" style="stroke:#181818;stroke-width:1.0;"/><path d="M184.2531,402.4375 Q183.3313,403.3594 181.0656,403.3594 Q179.8,403.3594 178.8781,402.4375 Q177.2219,400.7813 177.2219,397.25 Q177.2219,393.1406 179.0031,391.3438 Q179.9406,390.4219 181.1281,390.4219 Q183.3938,390.4219 184.1281,391.1406 Q185.5188,392.5469 185.4563,394.9375 L182.9875,394.9375 Q182.925,392.8125 182.1906,392.0781 Q181.8,391.6719 181.1281,391.6719 Q181.1281,391.6719 181.0656,392.1406 Q179.7375,393.4688 179.7375,397.125 Q179.7375,400.3125 180.8781,401.4375 Q181.4094,401.9688 181.4094,401.9688 Q181.6594,401.9688 182.1906,401.4375 Q182.8625,400.7813 182.925,398.3906 L185.5188,398.3906 Q185.3156,401.375 184.2531,402.4375 Z " fill="#000000"/><text fill="#000000" font-family="&quot;arial&quot;" font-size="14" lengthAdjust="spacing" textLength="33" x="199.45" y="402.7285">Page</text><line style="stroke:#181818;stroke-width:0.5;" x1="150" x2="252" y1="413" y2="413"/><rect fill="none" height="6" style="stroke:#C82930;stroke-width:1.0;" width="6" x="157" y="424.3047"/><text fill="#000000" font-family="&quot;arial&quot;" font-size="14" lengthAdjust="spacing" textLength="78" x="169" y="431.5332">index : Index</text><line style="stroke:#181818;stroke-width:0.5;" x1="150" x2="252" y1="438.6094" y2="438.6094"/></g><!--class NaviPage--><g id="elem_NaviPage"><rect codeLine="42" fill="#F1F1F1" height="48" id="NaviPage" rx="2.5" ry="2.5" style="stroke:#181818;stroke-width:0.5;" width="92" x="22" y="390"/><ellipse cx="37" cy="406" fill="#ADD1B2" rx="11" ry="11" style="stroke:#181818;stroke-width:1.0;"/><path d="M39.7031,411.4375 Q38.7813,412.3594 36.5156,412.3594 Q35.25,412.3594 34.3281,411.4375 Q32.6719,409.7813 32.6719,406.25 Q32.6719,402.1406 34.4531,400.3438 Q35.3906,399.4219 36.5781,399.4219 Q38.8438,399.4219 39.5781,400.1406 Q40.9688,401.5469 40.9063,403.9375 L38.4375,403.9375 Q38.375,401.8125 37.6406,401.0781 Q37.25,400.6719 36.5781,400.6719 Q36.5781,400.6719 36.5156,401.1406 Q35.1875,402.4688 35.1875,406.125 Q35.1875,409.3125 36.3281,410.4375 Q36.8594,410.9688 36.8594,410.9688 Q37.1094,410.9688 37.6406,410.4375 Q38.3125,409.7813 38.375,407.3906 L40.9688,407.3906 Q40.7656,410.375 39.7031,411.4375 Z " fill="#000000"/><text fill="#000000" font-family="&quot;arial&quot;" font-size="14" lengthAdjust="spacing" textLength="60" x="51" y="411.7285">NaviPage</text><line style="stroke:#181818;stroke-width:0.5;" x1="23" x2="113" y1="422" y2="422"/><line style="stroke:#181818;stroke-width:0.5;" x1="23" x2="113" y1="430" y2="430"/></g><!--reverse link AppVM to Browser--><g id="link_AppVM_Browser"><path codeLine="29" d="M414,121.54 C414,136.13 414,152.49 414,167.85 " fill="none" id="AppVM-backto-Browser" style="stroke:#181818;stroke-width:1.0;"/><polygon fill="#181818" points="414,108.18,410,114.18,414,120.18,418,114.18,414,108.18" style="stroke:#181818;stroke-width:1.0;"/></g><!--reverse link Browser to Index--><g id="link_Browser_Index"><path codeLine="30" d="M414,299.22 C414,314.53 414,330.66 414,345.81 " fill="none" id="Browser-backto-Index" style="stroke:#181818;stroke-width:1.0;"/><polygon fill="none" points="414,286.03,410,292.03,414,298.03,418,292.03,414,286.03" style="stroke:#181818;stroke-width:1.0;"/></g><!--reverse link AppVM to Map--><g id="link_AppVM_Map"><path codeLine="45" d="M463.34,110.42 C486.32,127.07 513.68,147.8 537,168 C546.26,176.02 555.84,185.19 564.49,193.85 " fill="none" id="AppVM-backto-Map" style="stroke:#181818;stroke-width:1.0;"/><polygon fill="#181818" points="452.78,102.83,455.3185,109.5795,462.5252,109.8323,459.9867,103.0827,452.78,102.83" style="stroke:#181818;stroke-width:1.0;"/></g><!--reverse link Map to Index--><g id="link_Map_Index"><path codeLine="46" d="M554.11,269.8 C527.6,296.89 492.88,332.37 464.64,361.24 " fill="none" id="Map-backto-Index" style="stroke:#181818;stroke-width:1.0;"/><polygon fill="#181818" points="563.47,260.22,556.4136,261.7056,555.0709,268.7906,562.1273,267.305,563.47,260.22" style="stroke:#181818;stroke-width:1.0;"/></g><!--link AppUI to AppVM--><g id="link_AppUI_AppVM"><path codeLine="48" d="M242.91,75 C242.91,75 363.38,75 363.38,75 " fill="none" id="AppUI-AppVM" style="stroke:#181818;stroke-width:1.0;"/><polygon fill="none" points="230.91,75,236.91,79,242.91,75,236.91,71,230.91,75" style="stroke:#181818;stroke-width:1.0;"/><polygon fill="none" points="375.38,75,369.38,71,363.38,75,369.38,79,375.38,75" style="stroke:#181818;stroke-width:1.0;"/></g><!--reverse link AppUI to PageSwitch--><g id="link_AppUI_PageSwitch"><path codeLine="49" d="M190.68,112.26 C187.45,134.31 183.31,162.52 179.97,185.33 " fill="none" id="AppUI-backto-PageSwitch" style="stroke:#181818;stroke-width:1.0;"/><polygon fill="#181818" points="192.61,99.11,187.7825,104.4668,190.8705,110.9833,195.698,105.6265,192.61,99.11" style="stroke:#181818;stroke-width:1.0;"/></g><!--link PageSwitch to Browser--><g id="link_PageSwitch_Browser"><path codeLine="51" d="M253.22,227 C267.4,227 281.59,227 295.77,227 " fill="none" id="PageSwitch-to-Browser" style="stroke:#181818;stroke-width:1.0;"/><polygon fill="none" points="308.8,227,302.8,223,296.8,227,302.8,231,308.8,227" style="stroke:#181818;stroke-width:1.0;"/></g><!--reverse link PageSwitch to PageUI--><g id="link_PageSwitch_PageUI"><path codeLine="52" d="M181.86,281.82 C186.54,313.89 192.32,353.53 196.3,380.79 " fill="none" id="PageSwitch-backto-PageUI" style="stroke:#181818;stroke-width:1.0;"/><polygon fill="#181818" points="179.93,268.6,176.8349,275.1131,181.6566,280.4751,184.7517,273.962,179.93,268.6" style="stroke:#181818;stroke-width:1.0;"/></g><!--link PageUI to Index--><g id="link_PageUI_Index"><path codeLine="54" d="M265,414 C265,414 351.37,414 351.37,414 " fill="none" id="PageUI-Index" style="stroke:#181818;stroke-width:1.0;"/><polygon fill="none" points="253,414,259,418,265,414,259,410,253,414" style="stroke:#181818;stroke-width:1.0;"/><polygon fill="none" points="363.37,414,357.37,410,351.37,414,357.37,418,363.37,414" style="stroke:#181818;stroke-width:1.0;"/></g><!--link NaviPage to PageUI--><g id="link_NaviPage_PageUI"><path codeLine="56" d="M114.24,414 C119.01,414 123.78,414 128.55,414 " fill="none" id="NaviPage-to-PageUI" style="stroke:#181818;stroke-width:1.0;"/><polygon fill="none" points="128.81,407,148.81,414,128.81,421,128.81,407" style="stroke:#181818;stroke-width:1.0;"/></g><!--SRC=[RLBRQeD047rslsBmgKqn7r1Ae1SAWHeA9NajKntZaeqhwveKclnxdRr40taGd3bdpfmvskraqwB1FRnHXRsoxxgnAzmJf6WagbI8IgkI36ma7NDTae8_aHGAkmwUstQJSvaym8_HnuwCICuYmZcs3ZHQMtY4PLFIxnH_yID1O8yx-hRIAhe3oTGu0lSZtgAjRy7pkUCKlJ7KyB8Fmih0Kw2SeEcLWeKZTQIei3TKHcU-vNqvIq7HDHfEvrA7pLwKIbVK-a0clijjhOR7ORp1XpRBidY_I68GUcZwbCwNsDVBgxpNorXyufQ-Zj8MjJDQ649Bt8oNSIvAOyczLnwP0EUeaZAQ0dezlop9hhEPq5Tua4naW-CXmuSM_B5d5__2MHqEqlud2JKJHjz2J6uOc36FIJSE36UBO90rmvBe1hBJ8j3-0G00]--></g></svg>