<?xml version="1.0" encoding="UTF-8" standalone="no"?><svg xmlns="http://www.w3.org/2000/svg" xmlns:xlink="http://www.w3.org/1999/xlink" contentStyleType="text/css" height="690px" preserveAspectRatio="none" style="width:552px;height:690px;background:#FFFFFF;" version="1.1" viewBox="0 0 552 690" width="552px" zoomAndPan="magnify"><defs/><g><!--class Lian--><g id="elem_Lian"><rect codeLine="3" fill="#F1F1F1" height="230.4844" id="Lian" rx="2.5" ry="2.5" style="stroke:#181818;stroke-width:0.5;" width="293" x="7" y="150"/><ellipse cx="135.75" cy="166" fill="#ADD1B2" rx="11" ry="11" style="stroke:#181818;stroke-width:1.0;"/><path d="M138.4531,171.4375 Q137.5313,172.3594 135.2656,172.3594 Q134,172.3594 133.0781,171.4375 Q131.4219,169.7813 131.4219,166.25 Q131.4219,162.1406 133.2031,160.3438 Q134.1406,159.4219 135.3281,159.4219 Q137.5938,159.4219 138.3281,160.1406 Q139.7188,161.5469 139.6563,163.9375 L137.1875,163.9375 Q137.125,161.8125 136.3906,161.0781 Q136,160.6719 135.3281,160.6719 Q135.3281,160.6719 135.2656,161.1406 Q133.9375,162.4688 133.9375,166.125 Q133.9375,169.3125 135.0781,170.4375 Q135.6094,170.9688 135.6094,170.9688 Q135.8594,170.9688 136.3906,170.4375 Q137.0625,169.7813 137.125,167.3906 L139.7188,167.3906 Q139.5156,170.375 138.4531,171.4375 Z " fill="#000000"/><text fill="#000000" font-family="&quot;arial&quot;" font-size="14" lengthAdjust="spacing" textLength="27" x="156.25" y="171.7285">Lian</text><line style="stroke:#181818;stroke-width:0.5;" x1="8" x2="299" y1="182" y2="182"/><ellipse cx="18" cy="196.3047" fill="#84BE84" rx="3" ry="3" style="stroke:#038048;stroke-width:1.0;"/><text fill="#000000" font-family="&quot;arial&quot;" font-size="14" lengthAdjust="spacing" textLength="267" x="27" y="200.5332">addByPos( create, count = 1, start = next )</text><line style="stroke:#181818;stroke-width:1.0;stroke-dasharray:1.0,2.0;" x1="8" x2="299" y1="207.6094" y2="207.6094"/><ellipse cx="18" cy="221.9141" fill="#84BE84" rx="3" ry="3" style="stroke:#038048;stroke-width:1.0;"/><text fill="#000000" font-family="&quot;arial&quot;" font-size="14" lengthAdjust="spacing" textLength="76" x="27" y="226.1426">add( order )</text><ellipse cx="18" cy="239.5234" fill="#84BE84" rx="3" ry="3" style="stroke:#038048;stroke-width:1.0;"/><text fill="#000000" font-family="&quot;arial&quot;" font-size="14" lengthAdjust="spacing" textLength="99" x="27" y="243.752">remove( order )</text><line style="stroke:#181818;stroke-width:1.0;stroke-dasharray:1.0,2.0;" x1="8" x2="299" y1="250.8281" y2="250.8281"/><ellipse cx="18" cy="265.1328" fill="#84BE84" rx="3" ry="3" style="stroke:#038048;stroke-width:1.0;"/><text fill="#000000" font-family="&quot;arial&quot;" font-size="14" lengthAdjust="spacing" textLength="164" x="27" y="269.3613">addOrders( order[], start )</text><ellipse cx="18" cy="282.7422" fill="#84BE84" rx="3" ry="3" style="stroke:#038048;stroke-width:1.0;"/><text fill="#000000" font-family="&quot;arial&quot;" font-size="14" lengthAdjust="spacing" textLength="192" x="27" y="286.9707">removeOrders( start, count ? )</text><line style="stroke:#181818;stroke-width:1.0;stroke-dasharray:1.0,2.0;" x1="8" x2="299" y1="294.0469" y2="294.0469"/><ellipse cx="18" cy="308.3516" fill="#84BE84" rx="3" ry="3" style="stroke:#038048;stroke-width:1.0;"/><text fill="#000000" font-family="&quot;arial&quot;" font-size="14" lengthAdjust="spacing" textLength="41" x="27" y="312.5801">clear()</text><line style="stroke:#181818;stroke-width:1.0;" x1="8" x2="299" y1="319.6563" y2="319.6563"/><ellipse cx="18" cy="333.9609" fill="none" rx="3" ry="3" style="stroke:#038048;stroke-width:1.0;"/><text fill="#000000" font-family="&quot;arial&quot;" font-size="14" lengthAdjust="spacing" textLength="89" x="27" y="338.1895">source : Array</text><ellipse cx="18" cy="351.5703" fill="none" rx="3" ry="3" style="stroke:#038048;stroke-width:1.0;"/><text fill="#000000" font-family="&quot;arial&quot;" font-size="14" lengthAdjust="spacing" textLength="132" x="27" y="355.7988">length : Leaf.Number</text><rect fill="none" height="6" style="stroke:#C82930;stroke-width:1.0;" width="6" x="15" y="366.1797"/><text fill="#000000" font-family="&quot;arial&quot;" font-size="14" lengthAdjust="spacing" textLength="138" x="27" y="373.4082">refs : Set &lt; Lian.Ref &gt;</text></g><!--class Array--><g id="elem_Array"><rect codeLine="19" fill="#F1F1F1" height="83.2188" id="Array" rx="2.5" ry="2.5" style="stroke:#181818;stroke-width:0.5;" width="72" x="117.5" y="7"/><ellipse cx="135.2" cy="23" fill="#ADD1B2" rx="11" ry="11" style="stroke:#181818;stroke-width:1.0;"/><path d="M137.9031,28.4375 Q136.9813,29.3594 134.7156,29.3594 Q133.45,29.3594 132.5281,28.4375 Q130.8719,26.7813 130.8719,23.25 Q130.8719,19.1406 132.6531,17.3438 Q133.5906,16.4219 134.7781,16.4219 Q137.0438,16.4219 137.7781,17.1406 Q139.1688,18.5469 139.1063,20.9375 L136.6375,20.9375 Q136.575,18.8125 135.8406,18.0781 Q135.45,17.6719 134.7781,17.6719 Q134.7781,17.6719 134.7156,18.1406 Q133.3875,19.4688 133.3875,23.125 Q133.3875,26.3125 134.5281,27.4375 Q135.0594,27.9688 135.0594,27.9688 Q135.3094,27.9688 135.8406,27.4375 Q136.5125,26.7813 136.575,24.3906 L139.1688,24.3906 Q138.9656,27.375 137.9031,28.4375 Z " fill="#000000"/><text fill="#000000" font-family="&quot;arial&quot;" font-size="14" lengthAdjust="spacing" textLength="34" x="149.8" y="28.7285">Array</text><line style="stroke:#181818;stroke-width:0.5;" x1="118.5" x2="188.5" y1="39" y2="39"/><ellipse cx="128.5" cy="53.3047" fill="none" rx="3" ry="3" style="stroke:#038048;stroke-width:1.0;"/><text fill="#000000" font-family="&quot;arial&quot;" font-size="14" lengthAdjust="spacing" textLength="39" x="137.5" y="57.5332">length</text><line style="stroke:#181818;stroke-width:0.5;" x1="118.5" x2="188.5" y1="64.6094" y2="64.6094"/><ellipse cx="128.5" cy="78.9141" fill="#84BE84" rx="3" ry="3" style="stroke:#038048;stroke-width:1.0;"/><text fill="#000000" font-family="&quot;arial&quot;" font-size="14" lengthAdjust="spacing" textLength="46" x="137.5" y="83.1426">splice()</text></g><!--class Order--><g id="elem_Order"><rect codeLine="24" fill="#F1F1F1" height="100.8281" id="Order" rx="2.5" ry="2.5" style="stroke:#181818;stroke-width:0.5;" width="168" x="335.5" y="214.5"/><ellipse cx="396.75" cy="230.5" fill="#ADD1B2" rx="11" ry="11" style="stroke:#181818;stroke-width:1.0;"/><path d="M399.4531,235.9375 Q398.5313,236.8594 396.2656,236.8594 Q395,236.8594 394.0781,235.9375 Q392.4219,234.2813 392.4219,230.75 Q392.4219,226.6406 394.2031,224.8438 Q395.1406,223.9219 396.3281,223.9219 Q398.5938,223.9219 399.3281,224.6406 Q400.7188,226.0469 400.6563,228.4375 L398.1875,228.4375 Q398.125,226.3125 397.3906,225.5781 Q397,225.1719 396.3281,225.1719 Q396.3281,225.1719 396.2656,225.6406 Q394.9375,226.9688 394.9375,230.625 Q394.9375,233.8125 396.0781,234.9375 Q396.6094,235.4688 396.6094,235.4688 Q396.8594,235.4688 397.3906,234.9375 Q398.0625,234.2813 398.125,231.8906 L400.7188,231.8906 Q400.5156,234.875 399.4531,235.9375 Z " fill="#000000"/><text fill="#000000" font-family="&quot;arial&quot;" font-size="14" lengthAdjust="spacing" textLength="37" x="417.25" y="236.2285">Order</text><line style="stroke:#181818;stroke-width:0.5;" x1="336.5" x2="502.5" y1="246.5" y2="246.5"/><ellipse cx="346.5" cy="260.8047" fill="none" rx="3" ry="3" style="stroke:#038048;stroke-width:1.0;"/><text fill="#000000" font-family="&quot;arial&quot;" font-size="14" lengthAdjust="spacing" textLength="85" x="355.5" y="265.0332">[owner] : Lian</text><ellipse cx="346.5" cy="278.4141" fill="none" rx="3" ry="3" style="stroke:#038048;stroke-width:1.0;"/><text fill="#000000" font-family="&quot;arial&quot;" font-size="14" lengthAdjust="spacing" textLength="142" x="355.5" y="282.6426">position : Leaf.Number</text><ellipse cx="346.5" cy="296.0234" fill="none" rx="3" ry="3" style="stroke:#038048;stroke-width:1.0;"/><text fill="#000000" font-family="&quot;arial&quot;" font-size="14" lengthAdjust="spacing" textLength="64" x="355.5" y="300.252">source : V</text><line style="stroke:#181818;stroke-width:0.5;" x1="336.5" x2="502.5" y1="307.3281" y2="307.3281"/></g><!--class Index--><g id="elem_Index"><rect codeLine="31" fill="#F1F1F1" height="83.2188" id="Index" rx="2.5" ry="2.5" style="stroke:#181818;stroke-width:0.5;" width="158" x="340.5" y="440"/><ellipse cx="398.75" cy="456" fill="#ADD1B2" rx="11" ry="11" style="stroke:#181818;stroke-width:1.0;"/><path d="M401.4531,461.4375 Q400.5313,462.3594 398.2656,462.3594 Q397,462.3594 396.0781,461.4375 Q394.4219,459.7813 394.4219,456.25 Q394.4219,452.1406 396.2031,450.3438 Q397.1406,449.4219 398.3281,449.4219 Q400.5938,449.4219 401.3281,450.1406 Q402.7188,451.5469 402.6563,453.9375 L400.1875,453.9375 Q400.125,451.8125 399.3906,451.0781 Q399,450.6719 398.3281,450.6719 Q398.3281,450.6719 398.2656,451.1406 Q396.9375,452.4688 396.9375,456.125 Q396.9375,459.3125 398.0781,460.4375 Q398.6094,460.9688 398.6094,460.9688 Q398.8594,460.9688 399.3906,460.4375 Q400.0625,459.7813 400.125,457.3906 L402.7188,457.3906 Q402.5156,460.375 401.4531,461.4375 Z " fill="#000000"/><text fill="#000000" font-family="&quot;arial&quot;" font-size="14" lengthAdjust="spacing" textLength="33" x="419.25" y="461.7285">Index</text><line style="stroke:#181818;stroke-width:0.5;" x1="341.5" x2="497.5" y1="472" y2="472"/><ellipse cx="351.5" cy="486.3047" fill="none" rx="3" ry="3" style="stroke:#038048;stroke-width:1.0;"/><text fill="#000000" font-family="&quot;arial&quot;" font-size="14" lengthAdjust="spacing" textLength="99" x="360.5" y="490.5332">title : LoL.String</text><ellipse cx="351.5" cy="503.9141" fill="none" rx="3" ry="3" style="stroke:#038048;stroke-width:1.0;"/><text fill="#000000" font-family="&quot;arial&quot;" font-size="14" lengthAdjust="spacing" textLength="132" x="360.5" y="508.1426">parts : Lian &lt; Index &gt;</text><line style="stroke:#181818;stroke-width:0.5;" x1="341.5" x2="497.5" y1="515.2188" y2="515.2188"/></g><!--class Selector--><g id="elem_Selector"><rect codeLine="36" fill="#F1F1F1" height="100.8281" id="Selector" rx="2.5" ry="2.5" style="stroke:#181818;stroke-width:0.5;" width="230" x="28.5" y="583"/><ellipse cx="113.25" cy="599" fill="#ADD1B2" rx="11" ry="11" style="stroke:#181818;stroke-width:1.0;"/><path d="M115.9531,604.4375 Q115.0313,605.3594 112.7656,605.3594 Q111.5,605.3594 110.5781,604.4375 Q108.9219,602.7813 108.9219,599.25 Q108.9219,595.1406 110.7031,593.3438 Q111.6406,592.4219 112.8281,592.4219 Q115.0938,592.4219 115.8281,593.1406 Q117.2188,594.5469 117.1563,596.9375 L114.6875,596.9375 Q114.625,594.8125 113.8906,594.0781 Q113.5,593.6719 112.8281,593.6719 Q112.8281,593.6719 112.7656,594.1406 Q111.4375,595.4688 111.4375,599.125 Q111.4375,602.3125 112.5781,603.4375 Q113.1094,603.9688 113.1094,603.9688 Q113.3594,603.9688 113.8906,603.4375 Q114.5625,602.7813 114.625,600.3906 L117.2188,600.3906 Q117.0156,603.375 115.9531,604.4375 Z " fill="#000000"/><text fill="#000000" font-family="&quot;arial&quot;" font-size="14" lengthAdjust="spacing" textLength="52" x="133.75" y="604.7285">Selector</text><line style="stroke:#181818;stroke-width:0.5;" x1="29.5" x2="257.5" y1="615" y2="615"/><ellipse cx="39.5" cy="629.3047" fill="none" rx="3" ry="3" style="stroke:#038048;stroke-width:1.0;"/><text fill="#000000" font-family="&quot;arial&quot;" font-size="14" lengthAdjust="spacing" textLength="79" x="48.5" y="633.5332">root : Option</text><ellipse cx="39.5" cy="646.9141" fill="#84BE84" rx="3" ry="3" style="stroke:#038048;stroke-width:1.0;"/><text fill="#000000" font-family="&quot;arial&quot;" font-size="14" lengthAdjust="spacing" textLength="167" x="48.5" y="651.1426">setCurrent( name, option )</text><line style="stroke:#181818;stroke-width:1.0;" x1="29.5" x2="257.5" y1="658.2188" y2="658.2188"/><rect fill="none" height="6" style="stroke:#C82930;stroke-width:1.0;" width="6" x="36.5" y="669.5234"/><text fill="#000000" font-family="&quot;arial&quot;" font-size="14" lengthAdjust="spacing" textLength="204" x="48.5" y="676.752">currents : Map &lt; string, Option &gt;</text></g><!--class Option--><g id="elem_Option"><rect codeLine="43" fill="#F1F1F1" height="83.2188" id="Option" rx="2.5" ry="2.5" style="stroke:#181818;stroke-width:0.5;" width="251" x="294" y="592"/><ellipse cx="394.25" cy="608" fill="#ADD1B2" rx="11" ry="11" style="stroke:#181818;stroke-width:1.0;"/><path d="M396.9531,613.4375 Q396.0313,614.3594 393.7656,614.3594 Q392.5,614.3594 391.5781,613.4375 Q389.9219,611.7813 389.9219,608.25 Q389.9219,604.1406 391.7031,602.3438 Q392.6406,601.4219 393.8281,601.4219 Q396.0938,601.4219 396.8281,602.1406 Q398.2188,603.5469 398.1563,605.9375 L395.6875,605.9375 Q395.625,603.8125 394.8906,603.0781 Q394.5,602.6719 393.8281,602.6719 Q393.8281,602.6719 393.7656,603.1406 Q392.4375,604.4688 392.4375,608.125 Q392.4375,611.3125 393.5781,612.4375 Q394.1094,612.9688 394.1094,612.9688 Q394.3594,612.9688 394.8906,612.4375 Q395.5625,611.7813 395.625,609.3906 L398.2188,609.3906 Q398.0156,612.375 396.9531,613.4375 Z " fill="#000000"/><text fill="#000000" font-family="&quot;arial&quot;" font-size="14" lengthAdjust="spacing" textLength="42" x="414.75" y="613.7285">Option</text><line style="stroke:#181818;stroke-width:0.5;" x1="295" x2="544" y1="624" y2="624"/><rect fill="none" height="6" style="stroke:#C82930;stroke-width:1.0;" width="6" x="302" y="635.3047"/><text fill="#000000" font-family="&quot;arial&quot;" font-size="14" lengthAdjust="spacing" textLength="225" x="314" y="642.5332">state : Map &lt; string, Leaf.Boolean &gt;</text><line style="stroke:#181818;stroke-width:0.5;" x1="295" x2="544" y1="649.6094" y2="649.6094"/><ellipse cx="305" cy="663.9141" fill="#84BE84" rx="3" ry="3" style="stroke:#038048;stroke-width:1.0;"/><text fill="#000000" font-family="&quot;arial&quot;" font-size="14" lengthAdjust="spacing" textLength="202" x="314" y="668.1426">getState( name ) : Leaf.Boolean</text></g><!--reverse link Array to Lian--><g id="link_Array_Lian"><path codeLine="48" d="M153.5,110.47 C153.5,122.86 153.5,136.27 153.5,149.83 " fill="none" id="Array-backto-Lian" style="stroke:#181818;stroke-width:1.0;"/><polygon fill="none" points="146.5,110.1,153.5,90.1,160.5,110.1,146.5,110.1" style="stroke:#181818;stroke-width:1.0;"/></g><!--reverse link Lian to Order--><g id="link_Lian_Order"><path codeLine="49" d="M313.03,265 C320.52,265 328,265 335.48,265 " fill="none" id="Lian-backto-Order" style="stroke:#181818;stroke-width:1.0;"/><polygon fill="#181818" points="300.01,265,306.01,269,312.01,265,306.01,261,300.01,265" style="stroke:#181818;stroke-width:1.0;"/><text fill="#000000" font-family="&quot;arial&quot;" font-size="13" lengthAdjust="spacing" textLength="7" x="308.2137" y="262.054">1</text><text fill="#000000" font-family="&quot;arial&quot;" font-size="13" lengthAdjust="spacing" textLength="20" x="307.4002" y="261.8301">0..*</text></g><!--reverse link Order to Index--><g id="link_Order_Index"><path codeLine="51" d="M419.5,335.77 C419.5,370.26 419.5,410.66 419.5,440 " fill="none" id="Order-backto-Index" style="stroke:#181818;stroke-width:1.0;"/><polygon fill="none" points="412.5,335.75,419.5,315.75,426.5,335.75,412.5,335.75" style="stroke:#181818;stroke-width:1.0;"/></g><!--reverse link Index to Index--><g id="link_Index_Index"><path codeLine="52" d="M511.69,455.94 C524.74,460.08 533.5,468.6 533.5,481.5 C533.5,498.35 518.56,507.73 498.62,509.63 " fill="none" id="Index-backto-Index" style="stroke:#181818;stroke-width:1.0;"/><polygon fill="#181818" points="498.62,453.37,503.7333,458.4547,510.3935,455.6904,505.2802,450.6057,498.62,453.37" style="stroke:#181818;stroke-width:1.0;"/><text fill="#000000" font-family="&quot;arial&quot;" font-size="13" lengthAdjust="spacing" textLength="7" x="506.4947" y="447.4278">1</text><text fill="#000000" font-family="&quot;arial&quot;" font-size="13" lengthAdjust="spacing" textLength="20" x="506.5573" y="508.9239">0..*</text></g><!--reverse link Selector to Option--><g id="link_Selector_Option"><path codeLine="54" d="M271.79,633.5 C279.12,633.5 286.46,633.5 293.79,633.5 " fill="none" id="Selector-backto-Option" style="stroke:#181818;stroke-width:1.0;"/><polygon fill="#181818" points="258.59,633.5,264.59,637.5,270.59,633.5,264.59,629.5,258.59,633.5" style="stroke:#181818;stroke-width:1.0;"/></g><!--reverse link Index to Option--><g id="link_Index_Option"><path codeLine="55" d="M419.5,543.11 C419.5,559.51 419.5,576.86 419.5,591.88 " fill="none" id="Index-backto-Option" style="stroke:#181818;stroke-width:1.0;"/><polygon fill="none" points="412.5,543.09,419.5,523.09,426.5,543.09,412.5,543.09" style="stroke:#181818;stroke-width:1.0;"/></g><!--SRC=[PPBDJiCm48JFzLEiSagXYUWL5H058I6LWgZ41N4mwRP4f7Qqtl0ZuDsnlMuRmIsP7N-pdiIzrgRLf3TmYIlTDNnb3S_r1Y7JLEicKwfgj7CmgxM1BpKu1BrSJZ_lhCkX8jIC8wXiPnXEO3m2nvh2ey4FXg4Qb6KwaeEb9LBG3e5mOz-m9-rijq5nQVBuj0NsJcqTSR3DFjj3gWOrvVwrACAhinrL2CTmJgG_WzAWMVEBLsQeL-MyspmZURV7hvnN5yWmYTSjxt45fmf-b08f8JAa1TSsTONvS4-CHl757SNtQDyDqbE8yyYWjDRLN5lpTuFUhW_AenBhsYpnGrXSSnF6Cpih5qorMKUUxy4bljzS_ATgjym26wpOfdt8MlRcspQi44EHBpeYD9o3yHz-13RE85LOG2NZa76ZMn_XOlOeGVfPIOb9Q-G5-_z3i33StdTghVz49f1TcF_3zbq2bzudtqKXBSQhPkCC3Wh8Ziho89FAbPBcepCMeQGEyIQh3DIk5mz9TOWvdXRb5m00]--></g></svg>