<?xml version="1.0" encoding="UTF-8" standalone="no"?><svg xmlns="http://www.w3.org/2000/svg" xmlns:xlink="http://www.w3.org/1999/xlink" contentStyleType="text/css" height="118px" preserveAspectRatio="none" style="width:198px;height:118px;background:#FFFFFF;" version="1.1" viewBox="0 0 198 118" width="198px" zoomAndPan="magnify"><defs/><g><text fill="#000000" font-family="sans-serif" font-size="14" font-weight="bold" lengthAdjust="spacing" textLength="34" x="75.25" y="24.5332">Exist</text><!--class Exist--><g id="elem_Exist"><rect codeLine="3" fill="#F1F1F1" height="65.6094" id="Exist" rx="2.5" ry="2.5" style="stroke:#181818;stroke-width:0.5;" width="95" x="7" y="45.6094"/><ellipse cx="37.3" cy="61.6094" fill="#ADD1B2" rx="11" ry="11" style="stroke:#181818;stroke-width:1.0;"/><path d="M40.0031,67.0469 Q39.0813,67.9688 36.8156,67.9688 Q35.55,67.9688 34.6281,67.0469 Q32.9719,65.3906 32.9719,61.8594 Q32.9719,57.75 34.7531,55.9531 Q35.6906,55.0313 36.8781,55.0313 Q39.1438,55.0313 39.8781,55.75 Q41.2688,57.1563 41.2063,59.5469 L38.7375,59.5469 Q38.675,57.4219 37.9406,56.6875 Q37.55,56.2813 36.8781,56.2813 Q36.8781,56.2813 36.8156,56.75 Q35.4875,58.0781 35.4875,61.7344 Q35.4875,64.9219 36.6281,66.0469 Q37.1594,66.5781 37.1594,66.5781 Q37.4094,66.5781 37.9406,66.0469 Q38.6125,65.3906 38.675,63 L41.2688,63 Q41.0656,65.9844 40.0031,67.0469 Z " fill="#000000"/><text fill="#000000" font-family="sans-serif" font-size="14" lengthAdjust="spacing" textLength="29" x="54.7" y="67.3379">Exist</text><line style="stroke:#181818;stroke-width:0.5;" x1="8" x2="101" y1="77.6094" y2="77.6094"/><line style="stroke:#181818;stroke-width:0.5;" x1="8" x2="101" y1="85.6094" y2="85.6094"/><ellipse cx="18" cy="99.9141" fill="#84BE84" rx="3" ry="3" style="stroke:#038048;stroke-width:1.0;"/><text fill="#000000" font-family="sans-serif" font-size="14" lengthAdjust="spacing" textLength="69" x="27" y="104.1426">terminate()</text></g><!--class Ref--><g id="elem_Ref"><rect codeLine="7" fill="#F1F1F1" height="65.6094" id="Ref" rx="2.5" ry="2.5" style="stroke:#181818;stroke-width:0.5;" width="54" x="137.5" y="45.6094"/><ellipse cx="152.5" cy="61.6094" fill="#ADD1B2" rx="11" ry="11" style="stroke:#181818;stroke-width:1.0;"/><path d="M155.2031,67.0469 Q154.2813,67.9688 152.0156,67.9688 Q150.75,67.9688 149.8281,67.0469 Q148.1719,65.3906 148.1719,61.8594 Q148.1719,57.75 149.9531,55.9531 Q150.8906,55.0313 152.0781,55.0313 Q154.3438,55.0313 155.0781,55.75 Q156.4688,57.1563 156.4063,59.5469 L153.9375,59.5469 Q153.875,57.4219 153.1406,56.6875 Q152.75,56.2813 152.0781,56.2813 Q152.0781,56.2813 152.0156,56.75 Q150.6875,58.0781 150.6875,61.7344 Q150.6875,64.9219 151.8281,66.0469 Q152.3594,66.5781 152.3594,66.5781 Q152.6094,66.5781 153.1406,66.0469 Q153.8125,65.3906 153.875,63 L156.4688,63 Q156.2656,65.9844 155.2031,67.0469 Z " fill="#000000"/><text fill="#000000" font-family="sans-serif" font-size="14" lengthAdjust="spacing" textLength="22" x="166.5" y="67.3379">Ref</text><line style="stroke:#181818;stroke-width:0.5;" x1="138.5" x2="190.5" y1="77.6094" y2="77.6094"/><ellipse cx="148.5" cy="91.9141" fill="none" rx="3" ry="3" style="stroke:#038048;stroke-width:1.0;"/><text fill="#000000" font-family="sans-serif" font-size="14" lengthAdjust="spacing" textLength="19" x="157.5" y="96.1426">src</text><line style="stroke:#181818;stroke-width:0.5;" x1="138.5" x2="190.5" y1="103.2188" y2="103.2188"/></g><!--link Exist to Ref--><g id="link_Exist_Ref"><path codeLine="11" d="M114.2,78.6094 C114.2,78.6094 125.24,78.6094 125.24,78.6094 " fill="none" id="Exist-Ref" style="stroke:#181818;stroke-width:1.0;"/><polygon fill="none" points="102.2,78.6094,108.2,82.6094,114.2,78.6094,108.2,74.6094,102.2,78.6094" style="stroke:#181818;stroke-width:1.0;"/><polygon fill="none" points="137.24,78.6094,131.24,74.6094,125.24,78.6094,131.24,82.6094,137.24,78.6094" style="stroke:#181818;stroke-width:1.0;"/></g><!--SRC=[AyaioKbLSAt8B2xXuahEIImkXd0KghaujHLAKejoC_CIIr8rDBbgOV91gMaGsUAYP90eH7s-RZv81W00]--></g></svg>